<svg xmlns="http://www.w3.org/2000/svg" viewBox="0 0 13.125 13.125">
    <defs>
        <style>
            .cls-1{fill:#fff}
        </style>
    </defs>
    <path id="status-aborted" d="M11.719-12.187H1.406A1.407 1.407 0 0 0 0-10.781V-.469A1.407 1.407 0 0 0 1.406.937h10.313a1.407 1.407 0 0 0 1.406-1.406v-10.312a1.407 1.407 0 0 0-1.406-1.406zM11.543-.469H1.582a.176.176 0 0 1-.176-.176v-9.961a.176.176 0 0 1 .176-.176h9.961a.176.176 0 0 1 .176.176v9.961a.176.176 0 0 1-.176.176z" class="cls-1" transform="translate(0 12.188)"/>
</svg>
