<?xml version="1.0" encoding="utf-8"?>
<!-- Generator: Adobe Illustrator 15.0.0, SVG Export Plug-In . SVG Version: 6.00 Build 0)  -->
<!DOCTYPE svg PUBLIC "-//W3C//DTD SVG 1.1//EN" "http://www.w3.org/Graphics/SVG/1.1/DTD/svg11.dtd">
<svg version="1.1" id="Layer_1" xmlns="http://www.w3.org/2000/svg" xmlns:xlink="http://www.w3.org/1999/xlink" x="0px"
     y="0px"
     width="500px" height="500px" viewBox="0 0 500 500" enable-background="new 0 0 500 500" xml:space="preserve">
<g>
	<path fill="#8f9dc9" d="M250,34.521c14.301,0,27.438,7.158,35.188,19.161L476.273,373.1l0.123,0.205l0.128,0.2
		c8.229,12.897,8.771,29.238,1.43,42.646c-7.361,13.423-21.437,21.762-36.723,21.762H58.773c-15.297,0-29.368-8.333-36.722-21.75
		c-7.353-13.409-6.807-29.754,1.424-42.654l0.128-0.198l0.122-0.203l191.1-319.421C222.567,41.68,235.701,34.521,250,34.521
		 M250,17.981c-20.048,0-38.455,10.088-49.236,26.988L9.533,364.607c-11.477,17.99-12.243,40.791-1.983,59.504
		c10.258,18.714,29.888,30.338,51.225,30.338h382.458c21.337,0,40.954-11.624,51.225-30.353c10.25-18.698,9.489-41.499-1.988-59.489
		L299.248,44.969C288.46,28.069,270.049,17.981,250,17.981L250,17.981z"/>
</g>
  <path fill="#8f9dc9" d="M250.055,375.471c-9.285,0-16.811-7.527-16.811-16.813c0-9.281,7.526-16.813,16.811-16.813
	c9.285,0,16.806,7.524,16.806,16.813C266.864,367.943,259.34,375.471,250.055,375.471z M266.611,182.722l-5.865,118.875
	c-0.863,5.812-6.271,9.818-12.084,8.953c-4.693-0.695-8.213-4.379-8.936-8.82l-6.37-118.794c-1.48-9.177,4.754-17.814,13.928-19.298
	c9.169-1.482,17.81,4.752,19.291,13.928C266.854,179.294,266.846,181.078,266.611,182.722z"/>
</svg>
