<svg xmlns="http://www.w3.org/2000/svg" xmlns:xlink="http://www.w3.org/1999/xlink" width="88" height="88" viewBox="0 0 88 88">
    <defs>
        <path id="a" d="M60.09 14.634l-6.48-2.618a5.496 5.496 0 0 0-4.032-4.292l-.35-4.043a1.456 1.456 0 0 0-2.526-.852L45.007 4.7l-1.04-3.645A1.455 1.455 0 0 0 41.2.96l-8.974 24.787c-6.455 1.679-12.091 5.815-15.554 11.443-3.17 5.155-4.156 11.06-2.773 16.63.808 3.254 2.342 5.399 3.911 6.805h-1.269c-5.838.143-11.25-3.181-13.776-8.462A1.454 1.454 0 1 0 .143 53.42a17.817 17.817 0 0 0 16.043 10.12H43.95c.803 0 1.454-.651 1.454-1.455 0-3.92-3.122-5.706-5.877-6.362 1.288-2.515 1.4-4.727 1.253-6.174l.38-.051 8.716 13.382c.269.412.727.66 1.219.66h5.292a1.454 1.454 0 0 0 1.23-2.232c-.056-.089-5.52-8.776-8.458-13.64V23.203c.433.05.918.075 1.347.075 4.219 0 8.186-2.383 10.323-6.61a1.456 1.456 0 0 0-.74-2.035z"/>
    </defs>
    <g fill="none" fill-rule="evenodd">
        <use fill="#32394F" fill-rule="nonzero" transform="translate(11 13)" xlink:href="#a"/>
        <path fill="#D3FF00" d="M3 4h7.455v7.455H3zM77.545 4H85v7.455h-7.455z"/>
        <path stroke="#D3FF00" stroke-width="3" d="M8.227 9.227h71.545v71.545H8.227z"/>
        <path fill="#D3FF00" d="M3 78.545h7.455V86H3zM77.545 78.545H85V86h-7.455z"/>
    </g>
</svg>
