<svg xmlns="http://www.w3.org/2000/svg" width="48" height="48" viewBox="-12 -12 48 48">
	<path fill="#8F9DC9" d="M15.4,14.14a.62.62,0,0,1-.62-.62A.61.61,0,0,1,15,13a1.79,1.79,0,0,0,.75-1.19,1.68,1.68,0,0,0-.72-1.13.63.63,0,0,1-.15-.87.62.62,0,0,1,.84-.16A2.89,2.89,0,0,1,17,11.84,3,3,0,0,1,15.76,14,.64.64,0,0,1,15.4,14.14Zm1.52,2.39a.62.62,0,0,1-.62-.62.64.64,0,0,1,.21-.46,5.55,5.55,0,0,0,1.76-3.61,5.41,5.41,0,0,0-1.73-3.57.62.62,0,0,1,.83-.93,6.66,6.66,0,0,1,2.15,4.51,6.88,6.88,0,0,1-2.18,4.53A.6.6,0,0,1,16.92,16.53Zm1.52,2.4a.63.63,0,0,1-.62-.63.6.6,0,0,1,.24-.48,7.23,7.23,0,0,0,1.36-1.56,7.94,7.94,0,0,0,1.34-4.41,7.8,7.8,0,0,0-1.31-4.39,6.81,6.81,0,0,0-1.34-1.54.62.62,0,0,1,.77-1h0A9,9,0,0,1,22,11.86a9.18,9.18,0,0,1-3.18,6.94A.62.62,0,0,1,18.44,18.93ZM3,8H5v8H3a1.21,1.21,0,0,1-1-1V9A1.21,1.21,0,0,1,3,8ZM2,15V9A1,1,0,0,1,3,8H5v8H3A1,1,0,0,1,2,15ZM7,8l5.55-3.28a1,1,0,0,1,1.45.9V18.38a1,1,0,0,1-1.45.9L7,16Z"/>
</svg>
