<svg xmlns="http://www.w3.org/2000/svg" viewBox="0 0 12.25 10.719">
  <defs>
    <style>
      .cls-1 {
        fill: #8f9dc9;
      }
    </style>
  </defs>
  <path id="Path_217" data-name="Path 217" class="cls-1" d="M.437-8.641a.426.426,0,0,1-.314-.123A.426.426,0,0,1,0-9.078v-1.094a.426.426,0,0,1,.123-.314.426.426,0,0,1,.314-.123H11.812a.426.426,0,0,1,.314.123.426.426,0,0,1,.123.314v1.094a.426.426,0,0,1-.123.314.426.426,0,0,1-.314.123Zm0,4.375a.426.426,0,0,1-.314-.123A.426.426,0,0,1,0-4.7V-5.8a.426.426,0,0,1,.123-.314.426.426,0,0,1,.314-.123H11.812a.426.426,0,0,1,.314.123.426.426,0,0,1,.123.314V-4.7a.426.426,0,0,1-.123.314.426.426,0,0,1-.314.123Zm0,4.375A.426.426,0,0,1,.123-.014.426.426,0,0,1,0-.328V-1.422a.426.426,0,0,1,.123-.314.426.426,0,0,1,.314-.123H11.812a.426.426,0,0,1,.314.123.426.426,0,0,1,.123.314V-.328a.426.426,0,0,1-.123.314.426.426,0,0,1-.314.123Z" transform="translate(0 10.609)"/>
</svg>
