<svg xmlns="http://www.w3.org/2000/svg" width="24" height="24" viewBox="0 0 24 24">
  <title>between</title>
  <path fill="#8f9dc9" d="M8,11a1,1,0,1,1-1,1A1,1,0,0,1,8,11Zm4,0a1,1,0,1,1-1,1A1,1,0,0,1,12,11Zm4,0a1,1,0,1,1-1,1A1,1,0,0,1,16,11ZM6.75,15.71a1,1,0,0,0,0-1.42L4.46,12,6.75,9.71a1,1,0,0,0,0-1.42,1,1,0,0,0-1.42,0l-3,3a1,1,0,0,0,0,1.42l3,3A1,1,0,0,0,6,16,1,1,0,0,0,6.75,15.71Zm12,0,3-3a1,1,0,0,0,0-1.42l-3-3a1,1,0,0,0-1.42,0,1,1,0,0,0,0,1.42L19.63,12l-2.3,2.29a1,1,0,0,0,0,1.42A1,1,0,0,0,18,16,1,1,0,0,0,18.75,15.71Z"/>
</svg>
