<svg xmlns="http://www.w3.org/2000/svg" width="16" height="16" viewBox="0 0 16 16">
    <path fill="#39415B" fill-rule="nonzero" d="M13 5.719c0 2.566-1.143 2.4-1.703 4.81a.486.486 0 0 1-.5.471H5.192c-.277 0-.5-.21-.5-.472C4.153 8.142 3 8.285 3 5.718 3 3.114 5.239 1 8 1s5 2.113 5 4.719zm-2.5 6.651c0 .342-.225.618-.503.618H6.003c-.278 0-.503-.276-.503-.618 0-.341.043-.385.321-.385h4.402c.279 0 .277.044.277.385zm-1.73 3.198H7.2c-.663 0-1.2-.886-1.2-1.568h3.97c0 .682-.537 1.568-1.2 1.568z"/>
</svg>
