<svg xmlns="http://www.w3.org/2000/svg" viewBox="0 0 88 88">
  <path d="M0,0H88V88H0Z" fill="#fff"/>
  <path d="M44.944,68.56444a26.89836,26.89836,0,0,1-26.86795-26.868H13.94254A31.00147,31.00147,0,0,0,44.944,72.698Z" fill="#82dd22"/>
  <path d="M44.944,18.96207A22.66352,22.66352,0,0,1,61.01213,25.6284L63.94251,22.698a26.86793,26.86793,0,0,0-45.86644,18.9985H22.2096A22.76019,22.76019,0,0,1,44.944,18.96207Z" fill="#14aa8c"/>
  <path d="M44.944,64.43091A22.76019,22.76019,0,0,1,22.2096,41.69649H18.07607a26.86794,26.86794,0,0,0,26.868,26.868Z" fill="#afe61e"/>
  <path d="M63.94254,60.695l-2.93038-2.93041h0l-2.92145-2.92143a18.57122,18.57122,0,0,1-26.29333,0l-2.929,2.929A22.66314,22.66314,0,0,0,44.944,64.43091v4.13353A26.7839,26.7839,0,0,0,63.94254,60.695Z" fill="#14aa8c"/>
  <path d="M31.79122,54.84931l2.92763-2.92768A14.46058,14.46058,0,1,1,55.16921,31.4713l2.92763-2.92763A18.60089,18.60089,0,1,0,31.79122,54.84931Z" fill="#0096ff"/>
  <path d="M31.79738,54.84315a18.59219,18.59219,0,1,1,26.2933-26.29333l2.929-2.929A22.73441,22.73441,0,1,0,28.86836,57.77215Z" fill="#50beff"/>
  <path d="M38.15176,43.67415v-.04238a7.6263,7.6263,0,0,1,7.82556-7.71959A7.26888,7.26888,0,0,1,52.276,39.00855l-3.09637,2.39638A3.97467,3.97467,0,0,0,45.93493,39.666a3.67118,3.67118,0,0,0-3.54174,3.92337v.04239a3.67225,3.67225,0,0,0,3.54174,3.96591A4.05435,4.05435,0,0,0,49.28577,45.795L52.382,48.00066a7.81562,7.81562,0,0,1-14.23024-4.32651Z" fill="#0b2471"/>
</svg>
