<svg width="24" height="24" xmlns="http://www.w3.org/2000/svg">
 <defs>
  <style>.cls-1{fill:#fff}</style>
 </defs>
 <g>
  <title>background</title>
  <rect fill="none" id="canvas_background" height="26" width="26" y="-1" x="-1"/>
 </g>
 <g>
  <title>Layer 1</title>
  <path class="cls-1" d="m17.468708,17.544677l0.858,0q0.165,0.924 0.3,2.326a18.944,18.944 0 0 1 0.063,2.723a4.081,4.081 0 0 1 -1.188,0.643a11.443,11.443 0 0 1 -1.469,0.414a12.485,12.485 0 0 1 -1.584,0.23q-0.805,0.07 -1.534,0.07a15.956,15.956 0 0 1 -4.95,-0.709a9.382,9.382 0 0 1 -3.68,-2.162a9.528,9.528 0 0 1 -2.31,-3.712a15.947,15.947 0 0 1 -0.809,-5.363a15.013,15.013 0 0 1 0.891,-5.495a10.08,10.08 0 0 1 2.409,-3.7a9.282,9.282 0 0 1 3.531,-2.1a13.471,13.471 0 0 1 4.224,-0.66a20.163,20.163 0 0 1 3.663,0.281a9.94,9.94 0 0 1 2.607,0.842q0,0.528 -0.033,1.237t-0.1,1.5q-0.066,0.792 -0.165,1.551t-0.2,1.386l-0.849,0l-1.721,-4.746a3.212,3.212 0 0 0 -1.2,-0.264q-0.841,-0.066 -1.667,-0.066a8.042,8.042 0 0 0 -3.118,0.611a6.894,6.894 0 0 0 -2.574,1.881a9.492,9.492 0 0 0 -1.766,3.2a14.047,14.047 0 0 0 -0.66,4.537a14.159,14.159 0 0 0 0.594,4.241a9.269,9.269 0 0 0 1.712,3.234a7.418,7.418 0 0 0 2.739,2.046a9.029,9.029 0 0 0 3.661,0.71a8.371,8.371 0 0 0 1.815,-0.165a1.845,1.845 0 0 0 0.957,-0.429l1.553,-4.092z" id="caffe-icon"/>
 </g>
</svg>