<svg xmlns="http://www.w3.org/2000/svg" viewBox="0 0 127.633 142.178">
  <defs>
    <style>
      .cls-1 {
        fill: #fff;
        fill-rule: evenodd;
      }
    </style>
  </defs>
  <g id="np_cat_1745061_000000" transform="translate(-657.977 -246.824)">
    <path id="np_cat_1745061_000000-2" data-name="np_cat_1745061_000000" class="cls-1" d="M36.544,126.134C3.905,97.921,64.207,70.258,51.478,39.28,44.286,22.685,22.711,17.155,9.437,28.767c-8.3,6.637-3.321,14.934,4.976,9.4,9.4-7.747,21.576-3.871,26,6.637C47.052,60.85,20.5,86.3,16.63,101.232c-4.426,14.934,6.637,40.936,27.107,40.936H84.673c0-4.976-2.21-7.192-6.637-7.747,11.063-9.958,12.724-22.125.555-37.065,13.279,11.063,13.829,28.213,5.531,36.51,3.871,2.21,4.426,5.531,4.976,8.3h16.044c-1.661-2.21-3.321-4.426-6.087-5.531-1.661-27.663,13.829-35.96,18.81-52,3.321-12.724-1.661-26-5.531-37.065,6.087-4.426,13.829,3.321,20.47-8.853-5.531-8.853-2.766-21.021-14.384-24.342-2.21-5.531.555-9.4,3.321-14.384C92.975,9.948,88.548,17.139,85.783,40.376c-4.426,30.978-12.168,18.81-33.744,34.85-20.47,14.934-16.044,31.534-15.49,50.894Z" transform="translate(652.804 246.834)"/>
  </g>
</svg>
