<svg xmlns="http://www.w3.org/2000/svg" width="16" height="16" viewBox="0 0 16 16">
    <g>
        <g fill="#eb7161">
            <path d="M14 15H2c-.551 0-1-.449-1-1V2c0-.551.449-1 1-1h12c.551 0 1 .449 1 1v12c0 .551-.449 1-1 1z" transform="translate(-692.5 -392.5) translate(692.5 392.5)"/>
            <path d="M2 2v12h12V2H2m0-2h12c1.105 0 2 .895 2 2v12c0 1.105-.895 2-2 2H2c-1.105 0-2-.895-2-2V2C0 .895.895 0 2 0z" transform="translate(-692.5 -392.5) translate(692.5 392.5)"/>
        </g>
        <path fill="#fff" d="M-1838.97-16.909l-3.47 3.47-1.06-1.06 3.47-3.47-3.47-3.469 1.06-1.061 3.47 3.47 3.47-3.47 1.06 1.061-3.47 3.469 3.47 3.47-1.06 1.06z" transform="translate(-692.5 -392.5) translate(2539.47 418.47)"/>
    </g>
</svg>
