<svg xmlns="http://www.w3.org/2000/svg" width="24" height="24" viewBox="0 0 24 24">
    <g fill="#8492C2" fill-rule="evenodd">
        <g fill-rule="nonzero">
            <path d="M1 11h2v13H1zM21 11h2v13h-2z" opacity=".5"/>
            <path d="M11 4H5c.2 0 0-.2 0-1s.2-1 0-1h6c-.2 0 0 .2 0 1s-.2 1 0 1M19 4h-6c.2 0 0-.2 0-1s.2-1 0-1h6c-.2 0 0 .2 0 1s-.2 1 0 1"/>
            <g opacity=".5">
                <path d="M14 17h4V4h-4zM6 15h4V4H6z"/>
            </g>
            <g>
                <path d="M2.833 10h19.25c.568 0 .917.45.917 1s-.349 1-.917 1H1.917C1.275 12 1 11.55 1 11s.275-1 .917-1h.916z"/>
            </g>
        </g>
        <path d="M14 17h4v3a2 2 0 1 1-4 0v-3zM6 15h4v5a2 2 0 1 1-4 0v-5z"/>
    </g>
</svg>
