<svg xmlns="http://www.w3.org/2000/svg" viewBox="0 0 16 16">
  <defs>
    <style>
      .cls-1 {
        fill: #dce0ee;
      }
    </style>
  </defs>
  <g id="np_compare_1468349_000000" transform="translate(-10 -10)">
    <path id="Path_129" data-name="Path 129" class="cls-1" d="M50.666,20.761V14.667A2.667,2.667,0,0,0,48,12H45.609l1.056-1.057L45.722,10l-2.195,2.2a.667.667,0,0,0,0,.943l2.2,2.2.943-.943-1.057-1.057H48a1.333,1.333,0,0,1,1.333,1.334v6.094a2.665,2.665,0,1,0,1.333,0Z" transform="translate(-26.667)"/>
    <path id="Path_130" data-name="Path 130" class="cls-1" d="M19.137,22.862l-2.2-2.2L16,21.609l1.057,1.057H14.665a1.333,1.333,0,0,1-1.333-1.334V15.239a2.668,2.668,0,1,0-1.334,0v6.094A2.667,2.667,0,0,0,14.665,24h2.391L16,25.057l.943.943,2.195-2.2a.667.667,0,0,0,0-.943Z" transform="translate(0 0)"/>
  </g>
</svg>
