<svg xmlns="http://www.w3.org/2000/svg" viewBox="0 0 7.875 10.5">
  <defs>
    <style>
      .cls-1 {
        fill: #dce0ee;
      }
    </style>
  </defs>
  <path id="Path_1" data-name="Path 1" class="cls-1" d="M5.742-13.453a.157.157,0,0,1,.113.051.157.157,0,0,1,.051.113v.328a.157.157,0,0,1-.051.113.157.157,0,0,1-.113.051h-2.3a.157.157,0,0,1-.113-.051.157.157,0,0,1-.051-.113v-.328a.157.157,0,0,1,.051-.113.157.157,0,0,1,.113-.051Zm0,1.969a.157.157,0,0,1,.113.051.157.157,0,0,1,.051.113v.328a.157.157,0,0,1-.051.113.157.157,0,0,1-.113.051h-2.3a.157.157,0,0,1-.113-.051.157.157,0,0,1-.051-.113v-.328a.157.157,0,0,1,.051-.113.157.157,0,0,1,.113-.051ZM2.3-13.617a.475.475,0,0,1,.349.144.475.475,0,0,1,.144.349.475.475,0,0,1-.144.349.475.475,0,0,1-.349.144.475.475,0,0,1-.349-.144.475.475,0,0,1-.144-.349.475.475,0,0,1,.144-.349A.475.475,0,0,1,2.3-13.617Zm0,1.969a.475.475,0,0,1,.349.144.475.475,0,0,1,.144.349.475.475,0,0,1-.144.349.475.475,0,0,1-.349.144.475.475,0,0,1-.349-.144.475.475,0,0,1-.144-.349.475.475,0,0,1,.144-.349A.475.475,0,0,1,2.3-11.648Zm4.594-5.414a.949.949,0,0,1,.7.287.949.949,0,0,1,.287.7v7.219a.949.949,0,0,1-.287.7.949.949,0,0,1-.7.287H.984a.949.949,0,0,1-.7-.287A.949.949,0,0,1,0-8.859v-7.219a.949.949,0,0,1,.287-.7.949.949,0,0,1,.7-.287H2.81a.674.674,0,0,1-.021-.164,1.105,1.105,0,0,1,.338-.81,1.105,1.105,0,0,1,.81-.338,1.105,1.105,0,0,1,.81.338,1.105,1.105,0,0,1,.338.81.674.674,0,0,1-.021.164Zm-2.953-.656a.475.475,0,0,0-.349.144.475.475,0,0,0-.144.349.475.475,0,0,0,.144.349.475.475,0,0,0,.349.144.475.475,0,0,0,.349-.144.475.475,0,0,0,.144-.349.475.475,0,0,0-.144-.349A.475.475,0,0,0,3.937-17.719ZM7.219-8.859v-7.219a.319.319,0,0,0-.092-.236.319.319,0,0,0-.236-.092H5.906V-16a.237.237,0,0,1-.072.174.237.237,0,0,1-.174.072H2.215a.237.237,0,0,1-.174-.072A.237.237,0,0,1,1.969-16v-.41H.984a.319.319,0,0,0-.236.092.319.319,0,0,0-.092.236v7.219a.319.319,0,0,0,.092.236.319.319,0,0,0,.236.092H6.891a.319.319,0,0,0,.236-.092A.319.319,0,0,0,7.219-8.859Z" transform="translate(0 18.375)"/>
</svg>
