<svg xmlns="http://www.w3.org/2000/svg" viewBox="0 0 29.994 30">
    <defs>
        <style>
            .cls-1{fill:#fff}
        </style>
    </defs>
    <path id="custom-icon" d="M31.939 15.024h-1.257a1.421 1.421 0 0 1-1.461-.781c-.015-.045-.032-.088-.047-.135l-.007-.029a11.548 11.548 0 0 0-.495-1.206c0-.009 0-.015-.006-.026a1.529 1.529 0 0 1 .3-1.709l.05-.049.007-.007.764-.765a1.1 1.1 0 0 0 .1-1.648L27.315 6.1a1.049 1.049 0 0 0-1.576-.067l-.064.066-1.144 1.146a1.073 1.073 0 0 1-1.2.149 11.572 11.572 0 0 0-1.231-.531.522.522 0 0 0-.131-.055 1.3 1.3 0 0 1-1.055-1.168V4.467a1.488 1.488 0 0 0-1.572-1.5H16.6a1.489 1.489 0 0 0-1.572 1.5v1.395c-.034.239-.2.622-.851.875l-.015.007a11.833 11.833 0 0 0-1.3.529c-.014 0-.024.006-.039.012A1.49 1.49 0 0 1 11.166 7l-.781-.781A1.14 1.14 0 0 0 8.7 6.025l-2.618 2.62a1.03 1.03 0 0 0-.095 1.5L7.1 11.26a1.453 1.453 0 0 1 .177 1.582 11.584 11.584 0 0 0-.522 1.274c0 .007-.006.011-.009.019a1.355 1.355 0 0 1-1.272.884H3.843c-.341.022-.879.154-.879.779v4.222c.026.308.2.892 1.155.892H5.46a1.325 1.325 0 0 1 1.256.77 11.627 11.627 0 0 0 .613 1.5.122.122 0 0 0 .01.014l.061.125a1.342 1.342 0 0 1-.45 1.5l-1.112 1.118a.767.767 0 0 0 .014 1.125l3.03 3.036s.605.517 1.358-.233l1.06-1.06a1.367 1.367 0 0 1 1.614-.113.719.719 0 0 0 .169.071c.308.138.622.267.942.377l.032.006c.083.029.164.059.248.086a1.232 1.232 0 0 1 .726 1.222v1.57a.935.935 0 0 0 .757.938h3.943a1.094 1.094 0 0 0 1.187-1.084v-1.5a1.391 1.391 0 0 1 .937-1.213.13.13 0 0 0 .022-.012 11.665 11.665 0 0 0 1.1-.447c.021-.007.039-.011.061-.02a1.713 1.713 0 0 1 1.694.2l.865.865a1.182 1.182 0 0 0 1.715.086l2.489-2.49c.643-.643.477-1.151.265-1.443l-1.156-1.154a1.284 1.284 0 0 1-.4-1.379c.05-.1.1-.194.143-.292l.017-.025a12.09 12.09 0 0 0 .478-1.161.18.18 0 0 0 .014-.031 1.6 1.6 0 0 1 1.472-.948h1.079c.285-.009 1.253-.141 1.253-1.516v-2.928c0-1.2-.678-1.416-1.028-1.448zm-13.972 9.6a6.651 6.651 0 1 1 6.656-6.652 6.657 6.657 0 0 1-6.656 6.652z" class="cls-1" transform="translate(-2.973 -2.969)"/>
</svg>
