<svg xmlns="http://www.w3.org/2000/svg" width="16" height="16" viewBox="0 0 16 16">
  <path fill="#8f9dc9" d="M8,3.2A4.8,4.8,0,1,0,12.8,8,4.8,4.8,0,0,0,8,3.2Zm-.8,7.2V5.6L10.4,8ZM2.54,4.66,1.18,3.82A8,8,0,0,1,3.12,1.66h0l.07,0h0l0,0h0l0,0,.94,1.29A6.38,6.38,0,0,0,2.54,4.66ZM9.4,14.25l.34,1.56A7.55,7.55,0,0,1,8.38,16H7.46c-.21,0-.43,0-.64-.07h0l-.14,0,.27-1.57.14,0,.52.06A6.6,6.6,0,0,0,9.4,14.25Zm-4.8-.83-.85,1.36a8.05,8.05,0,0,1-2.26-2.13l1.3-.93A6.37,6.37,0,0,0,4.6,13.42Zm-2.83-4L.21,9.83A7.88,7.88,0,0,1,0,7.65H0v0H0v0H0v0H0v0H0v0H0v0h0c0-.14,0-.27.05-.4L1.68,7c0,.2-.05.39-.07.59A6.29,6.29,0,0,0,1.77,9.46ZM8.43,1.61a6.79,6.79,0,0,0-2,.17L6.09.23A7.93,7.93,0,0,1,7.64,0h.9c.21,0,.43,0,.64.07h0l.34.06-.3,1.57L9,1.67ZM16,8.45h0v0h0v0h0v0h0v0h0V9h0v0h0l-.06.38L14.3,9.16c0-.24.07-.49.09-.73a6.51,6.51,0,0,0-.13-1.76l1.57-.33A8.21,8.21,0,0,1,16,8.45Zm-.16-2.11ZM11.52,2.65l.88-1.33a8,8,0,0,1,2.21,2.17l-1.32.9A6.51,6.51,0,0,0,11.52,2.65Zm1.87,8.81,1.34.87a8.15,8.15,0,0,1-2.15,2.23l-.92-1.31A6.55,6.55,0,0,0,13.39,11.46ZM2.54,4.66,1.18,3.82A8,8,0,0,1,3.12,1.66h0l.07,0h0l0,0h0l0,0,.94,1.29A6.38,6.38,0,0,0,2.54,4.66ZM9.4,14.25l.34,1.56A7.55,7.55,0,0,1,8.38,16H7.46c-.21,0-.43,0-.64-.07h0l-.14,0,.27-1.57.14,0,.52.06A6.6,6.6,0,0,0,9.4,14.25Zm-4.8-.83-.85,1.36a8.05,8.05,0,0,1-2.26-2.13l1.3-.93A6.37,6.37,0,0,0,4.6,13.42Zm-2.83-4L.21,9.83A7.88,7.88,0,0,1,0,7.65H0v0H0v0H0v0H0v0H0v0H0v0h0c0-.14,0-.27.05-.4L1.68,7c0,.2-.05.39-.07.59A6.29,6.29,0,0,0,1.77,9.46ZM8.43,1.61a6.79,6.79,0,0,0-2,.17L6.09.23A7.93,7.93,0,0,1,7.64,0h.9c.21,0,.43,0,.64.07h0l.34.06-.3,1.57L9,1.67ZM16,8.45h0v0h0v0h0v0h0v0h0V9h0v0h0l-.06.38L14.3,9.16c0-.24.07-.49.09-.73a6.51,6.51,0,0,0-.13-1.76l1.57-.33A8.21,8.21,0,0,1,16,8.45Zm-.16-2.11ZM11.52,2.65l.88-1.33a8,8,0,0,1,2.21,2.17l-1.32.9A6.51,6.51,0,0,0,11.52,2.65Zm1.87,8.81,1.34.87a8.15,8.15,0,0,1-2.15,2.23l-.92-1.31A6.55,6.55,0,0,0,13.39,11.46Z"/>
</svg>
