<svg xmlns="http://www.w3.org/2000/svg" xmlns:xlink="http://www.w3.org/1999/xlink" viewBox="0 0 89 90"><defs><style>.a,.b,.e{fill:#323950;}.a{clip-rule:evenodd;}.b{fill-rule:evenodd;}.c,.h{fill:none;}.d{opacity:0.5;clip-path:url(#a);}.f{clip-path:url(#b);}.g{clip-path:url(#c);}.i{clip-path:url(#d);}.j{clip-path:url(#e);}.k{fill:#fff;}.l,.m{stroke:none;}.m{fill:#2c3246;}</style><clipPath id="a"><rect class="c" width="89" height="90"/></clipPath><clipPath id="b"><path class="a" d="M0-82H2.274v2.274H0Z" transform="translate(0 82)"/></clipPath><clipPath id="c"><path class="a" d="M74.545-82h2.274v2.274H74.545Z" transform="translate(-74.545 82)"/></clipPath><clipPath id="d"><path class="a" d="M0-7.455H2.274v2.274H0Z" transform="translate(0 7.455)"/></clipPath><clipPath id="e"><path class="a" d="M74.545-7.455h2.274v2.274H74.545Z" transform="translate(-74.545 7.455)"/></clipPath></defs><g transform="translate(-1013 -390)"><g class="d" transform="translate(1013 390)"><g transform="translate(-1503 -398)"><path class="e" d="M26.326-68.539l-1.976-.8a1.676,1.676,0,0,0-1.229-1.308l-.107-1.233a.444.444,0,0,0-.3-.382.443.443,0,0,0-.47.123l-.517.571-.317-1.111A.444.444,0,0,0,21-73a.445.445,0,0,0-.432.292l-2.737,7.557a7.933,7.933,0,0,0-4.744,3.488,6.591,6.591,0,0,0-.846,5.07,4,4,0,0,0,1.193,2.075h-.387a4.545,4.545,0,0,1-4.2-2.58.443.443,0,0,0-.592-.209.444.444,0,0,0-.208.592,5.434,5.434,0,0,0,4.893,3.085H21.4a.444.444,0,0,0,.444-.444,2.038,2.038,0,0,0-1.793-1.939,3.366,3.366,0,0,0,.382-1.882l.116-.015,2.658,4.08a.443.443,0,0,0,.372.2H25.2a.443.443,0,0,0,.388-.229.444.444,0,0,0-.013-.451c-.017-.027-1.684-2.676-2.58-4.158v-7.459a3.737,3.737,0,0,0,.411.023,3.527,3.527,0,0,0,3.148-2.015s.017-.036.02-.043A.444.444,0,0,0,26.326-68.539Z" transform="translate(1497.44 473.745)"/><g class="f" transform="translate(1503 398)"><path class="e" d="M-5-81.677H.323V-87H-5Z" transform="translate(3.475 85.475)"/></g><g class="g" transform="translate(1525.726 398)"><path class="e" d="M69.545-81.677h5.323V-87H69.545Z" transform="translate(-71.07 85.475)"/></g><g transform="translate(1504.137 399.137)"><g class="h"><path class="l" d="M0,0H22.727V22.727H0Z"/><path class="m" d="M 1 1 L 1 21.7268009185791 L 21.72654151916504 21.7268009185791 L 21.72654151916504 1 L 1 1 M 0 0 L 22.72654151916504 0 L 22.72654151916504 22.7268009185791 L 0 22.7268009185791 L 0 0 Z"/></g></g><g class="i" transform="translate(1503 420.727)"><path class="e" d="M-5-7.131H.323v-5.323H-5Z" transform="translate(3.475 10.93)"/></g><g class="j" transform="translate(1525.726 420.727)"><path class="e" d="M69.545-7.131h5.323v-5.323H69.545Z" transform="translate(-71.07 10.93)"/></g></g><g transform="translate(-1472 -398)"><path class="e" d="M26.326-68.539l-1.976-.8a1.676,1.676,0,0,0-1.229-1.308l-.107-1.233a.444.444,0,0,0-.3-.382.443.443,0,0,0-.47.123l-.517.571-.317-1.111A.444.444,0,0,0,21-73a.445.445,0,0,0-.432.292l-2.737,7.557a7.933,7.933,0,0,0-4.744,3.488,6.591,6.591,0,0,0-.846,5.07,4,4,0,0,0,1.193,2.075h-.387a4.545,4.545,0,0,1-4.2-2.58.443.443,0,0,0-.592-.209.444.444,0,0,0-.208.592,5.434,5.434,0,0,0,4.893,3.085H21.4a.444.444,0,0,0,.444-.444,2.038,2.038,0,0,0-1.793-1.939,3.366,3.366,0,0,0,.382-1.882l.116-.015,2.658,4.08a.443.443,0,0,0,.372.2H25.2a.443.443,0,0,0,.388-.229.444.444,0,0,0-.013-.451c-.017-.027-1.684-2.676-2.58-4.158v-7.459a3.737,3.737,0,0,0,.411.023,3.527,3.527,0,0,0,3.148-2.015s.017-.036.02-.043A.444.444,0,0,0,26.326-68.539Z" transform="translate(1497.44 473.745)"/><g class="f" transform="translate(1503 398)"><path class="e" d="M-5-81.677H.323V-87H-5Z" transform="translate(3.475 85.475)"/></g><g class="g" transform="translate(1525.726 398)"><path class="e" d="M69.545-81.677h5.323V-87H69.545Z" transform="translate(-71.07 85.475)"/></g><g transform="translate(1504.137 399.137)"><g class="h"><path class="l" d="M0,0H22.727V22.727H0Z"/><path class="m" d="M 1 1 L 1 21.7268009185791 L 21.72654151916504 21.7268009185791 L 21.72654151916504 1 L 1 1 M 0 0 L 22.72654151916504 0 L 22.72654151916504 22.7268009185791 L 0 22.7268009185791 L 0 0 Z"/></g></g><g class="i" transform="translate(1503 420.727)"><path class="e" d="M-5-7.131H.323v-5.323H-5Z" transform="translate(3.475 10.93)"/></g><g class="j" transform="translate(1525.726 420.727)"><path class="e" d="M69.545-7.131h5.323v-5.323H69.545Z" transform="translate(-71.07 10.93)"/></g></g><g transform="translate(-1441 -398)"><path class="e" d="M26.326-68.539l-1.976-.8a1.676,1.676,0,0,0-1.229-1.308l-.107-1.233a.444.444,0,0,0-.3-.382.443.443,0,0,0-.47.123l-.517.571-.317-1.111A.444.444,0,0,0,21-73a.445.445,0,0,0-.432.292l-2.737,7.557a7.933,7.933,0,0,0-4.744,3.488,6.591,6.591,0,0,0-.846,5.07,4,4,0,0,0,1.193,2.075h-.387a4.545,4.545,0,0,1-4.2-2.58.443.443,0,0,0-.592-.209.444.444,0,0,0-.208.592,5.434,5.434,0,0,0,4.893,3.085H21.4a.444.444,0,0,0,.444-.444,2.038,2.038,0,0,0-1.793-1.939,3.366,3.366,0,0,0,.382-1.882l.116-.015,2.658,4.08a.443.443,0,0,0,.372.2H25.2a.443.443,0,0,0,.388-.229.444.444,0,0,0-.013-.451c-.017-.027-1.684-2.676-2.58-4.158v-7.459a3.737,3.737,0,0,0,.411.023,3.527,3.527,0,0,0,3.148-2.015s.017-.036.02-.043A.444.444,0,0,0,26.326-68.539Z" transform="translate(1497.44 473.745)"/><g class="f" transform="translate(1503 398)"><path class="e" d="M-5-81.677H.323V-87H-5Z" transform="translate(3.475 85.475)"/></g><g class="g" transform="translate(1525.726 398)"><path class="e" d="M69.545-81.677h5.323V-87H69.545Z" transform="translate(-71.07 85.475)"/></g><g transform="translate(1504.137 399.137)"><g class="h"><path class="l" d="M0,0H22.727V22.727H0Z"/><path class="m" d="M 1 1 L 1 21.7268009185791 L 21.72654151916504 21.7268009185791 L 21.72654151916504 1 L 1 1 M 0 0 L 22.72654151916504 0 L 22.72654151916504 22.7268009185791 L 0 22.7268009185791 L 0 0 Z"/></g></g><g class="i" transform="translate(1503 420.727)"><path class="e" d="M-5-7.131H.323v-5.323H-5Z" transform="translate(3.475 10.93)"/></g><g class="j" transform="translate(1525.726 420.727)"><path class="e" d="M69.545-7.131h5.323v-5.323H69.545Z" transform="translate(-71.07 10.93)"/></g></g><g transform="translate(-1503 -367)"><path class="e" d="M26.326-68.539l-1.976-.8a1.676,1.676,0,0,0-1.229-1.308l-.107-1.233a.444.444,0,0,0-.3-.382.443.443,0,0,0-.47.123l-.517.571-.317-1.111A.444.444,0,0,0,21-73a.445.445,0,0,0-.432.292l-2.737,7.557a7.933,7.933,0,0,0-4.744,3.488,6.591,6.591,0,0,0-.846,5.07,4,4,0,0,0,1.193,2.075h-.387a4.545,4.545,0,0,1-4.2-2.58.443.443,0,0,0-.592-.209.444.444,0,0,0-.208.592,5.434,5.434,0,0,0,4.893,3.085H21.4a.444.444,0,0,0,.444-.444,2.038,2.038,0,0,0-1.793-1.939,3.366,3.366,0,0,0,.382-1.882l.116-.015,2.658,4.08a.443.443,0,0,0,.372.2H25.2a.443.443,0,0,0,.388-.229.444.444,0,0,0-.013-.451c-.017-.027-1.684-2.676-2.58-4.158v-7.459a3.737,3.737,0,0,0,.411.023,3.527,3.527,0,0,0,3.148-2.015s.017-.036.02-.043A.444.444,0,0,0,26.326-68.539Z" transform="translate(1497.44 473.745)"/><g class="f" transform="translate(1503 398)"><path class="e" d="M-5-81.677H.323V-87H-5Z" transform="translate(3.475 85.475)"/></g><g class="g" transform="translate(1525.726 398)"><path class="e" d="M69.545-81.677h5.323V-87H69.545Z" transform="translate(-71.07 85.475)"/></g><g transform="translate(1504.137 399.137)"><g class="h"><path class="l" d="M0,0H22.727V22.727H0Z"/><path class="m" d="M 1 1 L 1 21.7268009185791 L 21.72654151916504 21.7268009185791 L 21.72654151916504 1 L 1 1 M 0 0 L 22.72654151916504 0 L 22.72654151916504 22.7268009185791 L 0 22.7268009185791 L 0 0 Z"/></g></g><g class="i" transform="translate(1503 420.727)"><path class="e" d="M-5-7.131H.323v-5.323H-5Z" transform="translate(3.475 10.93)"/></g><g class="j" transform="translate(1525.726 420.727)"><path class="e" d="M69.545-7.131h5.323v-5.323H69.545Z" transform="translate(-71.07 10.93)"/></g></g><g transform="translate(-1472 -367)"><path class="e" d="M26.326-68.539l-1.976-.8a1.676,1.676,0,0,0-1.229-1.308l-.107-1.233a.444.444,0,0,0-.3-.382.443.443,0,0,0-.47.123l-.517.571-.317-1.111A.444.444,0,0,0,21-73a.445.445,0,0,0-.432.292l-2.737,7.557a7.933,7.933,0,0,0-4.744,3.488,6.591,6.591,0,0,0-.846,5.07,4,4,0,0,0,1.193,2.075h-.387a4.545,4.545,0,0,1-4.2-2.58.443.443,0,0,0-.592-.209.444.444,0,0,0-.208.592,5.434,5.434,0,0,0,4.893,3.085H21.4a.444.444,0,0,0,.444-.444,2.038,2.038,0,0,0-1.793-1.939,3.366,3.366,0,0,0,.382-1.882l.116-.015,2.658,4.08a.443.443,0,0,0,.372.2H25.2a.443.443,0,0,0,.388-.229.444.444,0,0,0-.013-.451c-.017-.027-1.684-2.676-2.58-4.158v-7.459a3.737,3.737,0,0,0,.411.023,3.527,3.527,0,0,0,3.148-2.015s.017-.036.02-.043A.444.444,0,0,0,26.326-68.539Z" transform="translate(1497.44 473.745)"/><g class="f" transform="translate(1503 398)"><path class="e" d="M-5-81.677H.323V-87H-5Z" transform="translate(3.475 85.475)"/></g><g class="g" transform="translate(1525.726 398)"><path class="e" d="M69.545-81.677h5.323V-87H69.545Z" transform="translate(-71.07 85.475)"/></g><g transform="translate(1504.137 399.137)"><g class="h"><path class="l" d="M0,0H22.727V22.727H0Z"/><path class="m" d="M 1 1 L 1 21.7268009185791 L 21.72654151916504 21.7268009185791 L 21.72654151916504 1 L 1 1 M 0 0 L 22.72654151916504 0 L 22.72654151916504 22.7268009185791 L 0 22.7268009185791 L 0 0 Z"/></g></g><g class="i" transform="translate(1503 420.727)"><path class="e" d="M-5-7.131H.323v-5.323H-5Z" transform="translate(3.475 10.93)"/></g><g class="j" transform="translate(1525.726 420.727)"><path class="e" d="M69.545-7.131h5.323v-5.323H69.545Z" transform="translate(-71.07 10.93)"/></g></g><g transform="translate(-1441 -367)"><path class="e" d="M26.326-68.539l-1.976-.8a1.676,1.676,0,0,0-1.229-1.308l-.107-1.233a.444.444,0,0,0-.3-.382.443.443,0,0,0-.47.123l-.517.571-.317-1.111A.444.444,0,0,0,21-73a.445.445,0,0,0-.432.292l-2.737,7.557a7.933,7.933,0,0,0-4.744,3.488,6.591,6.591,0,0,0-.846,5.07,4,4,0,0,0,1.193,2.075h-.387a4.545,4.545,0,0,1-4.2-2.58.443.443,0,0,0-.592-.209.444.444,0,0,0-.208.592,5.434,5.434,0,0,0,4.893,3.085H21.4a.444.444,0,0,0,.444-.444,2.038,2.038,0,0,0-1.793-1.939,3.366,3.366,0,0,0,.382-1.882l.116-.015,2.658,4.08a.443.443,0,0,0,.372.2H25.2a.443.443,0,0,0,.388-.229.444.444,0,0,0-.013-.451c-.017-.027-1.684-2.676-2.58-4.158v-7.459a3.737,3.737,0,0,0,.411.023,3.527,3.527,0,0,0,3.148-2.015s.017-.036.02-.043A.444.444,0,0,0,26.326-68.539Z" transform="translate(1497.44 473.745)"/><g class="f" transform="translate(1503 398)"><path class="e" d="M-5-81.677H.323V-87H-5Z" transform="translate(3.475 85.475)"/></g><g class="g" transform="translate(1525.726 398)"><path class="e" d="M69.545-81.677h5.323V-87H69.545Z" transform="translate(-71.07 85.475)"/></g><g transform="translate(1504.137 399.137)"><g class="h"><path class="l" d="M0,0H22.727V22.727H0Z"/><path class="m" d="M 1 1 L 1 21.7268009185791 L 21.72654151916504 21.7268009185791 L 21.72654151916504 1 L 1 1 M 0 0 L 22.72654151916504 0 L 22.72654151916504 22.7268009185791 L 0 22.7268009185791 L 0 0 Z"/></g></g><g class="i" transform="translate(1503 420.727)"><path class="e" d="M-5-7.131H.323v-5.323H-5Z" transform="translate(3.475 10.93)"/></g><g class="j" transform="translate(1525.726 420.727)"><path class="e" d="M69.545-7.131h5.323v-5.323H69.545Z" transform="translate(-71.07 10.93)"/></g></g><g transform="translate(-1503 -336)"><path class="e" d="M26.326-68.539l-1.976-.8a1.676,1.676,0,0,0-1.229-1.308l-.107-1.233a.444.444,0,0,0-.3-.382.443.443,0,0,0-.47.123l-.517.571-.317-1.111A.444.444,0,0,0,21-73a.445.445,0,0,0-.432.292l-2.737,7.557a7.933,7.933,0,0,0-4.744,3.488,6.591,6.591,0,0,0-.846,5.07,4,4,0,0,0,1.193,2.075h-.387a4.545,4.545,0,0,1-4.2-2.58.443.443,0,0,0-.592-.209.444.444,0,0,0-.208.592,5.434,5.434,0,0,0,4.893,3.085H21.4a.444.444,0,0,0,.444-.444,2.038,2.038,0,0,0-1.793-1.939,3.366,3.366,0,0,0,.382-1.882l.116-.015,2.658,4.08a.443.443,0,0,0,.372.2H25.2a.443.443,0,0,0,.388-.229.444.444,0,0,0-.013-.451c-.017-.027-1.684-2.676-2.58-4.158v-7.459a3.737,3.737,0,0,0,.411.023,3.527,3.527,0,0,0,3.148-2.015s.017-.036.02-.043A.444.444,0,0,0,26.326-68.539Z" transform="translate(1497.44 473.745)"/><g class="f" transform="translate(1503 398)"><path class="e" d="M-5-81.677H.323V-87H-5Z" transform="translate(3.475 85.475)"/></g><g class="g" transform="translate(1525.726 398)"><path class="e" d="M69.545-81.677h5.323V-87H69.545Z" transform="translate(-71.07 85.475)"/></g><g transform="translate(1504.137 399.137)"><g class="h"><path class="l" d="M0,0H22.727V22.727H0Z"/><path class="m" d="M 1 1 L 1 21.7268009185791 L 21.72654151916504 21.7268009185791 L 21.72654151916504 1 L 1 1 M 0 0 L 22.72654151916504 0 L 22.72654151916504 22.7268009185791 L 0 22.7268009185791 L 0 0 Z"/></g></g><g class="i" transform="translate(1503 420.727)"><path class="e" d="M-5-7.131H.323v-5.323H-5Z" transform="translate(3.475 10.93)"/></g><g class="j" transform="translate(1525.726 420.727)"><path class="e" d="M69.545-7.131h5.323v-5.323H69.545Z" transform="translate(-71.07 10.93)"/></g></g><g transform="translate(-1472 -336)"><path class="e" d="M26.326-68.539l-1.976-.8a1.676,1.676,0,0,0-1.229-1.308l-.107-1.233a.444.444,0,0,0-.3-.382.443.443,0,0,0-.47.123l-.517.571-.317-1.111A.444.444,0,0,0,21-73a.445.445,0,0,0-.432.292l-2.737,7.557a7.933,7.933,0,0,0-4.744,3.488,6.591,6.591,0,0,0-.846,5.07,4,4,0,0,0,1.193,2.075h-.387a4.545,4.545,0,0,1-4.2-2.58.443.443,0,0,0-.592-.209.444.444,0,0,0-.208.592,5.434,5.434,0,0,0,4.893,3.085H21.4a.444.444,0,0,0,.444-.444,2.038,2.038,0,0,0-1.793-1.939,3.366,3.366,0,0,0,.382-1.882l.116-.015,2.658,4.08a.443.443,0,0,0,.372.2H25.2a.443.443,0,0,0,.388-.229.444.444,0,0,0-.013-.451c-.017-.027-1.684-2.676-2.58-4.158v-7.459a3.737,3.737,0,0,0,.411.023,3.527,3.527,0,0,0,3.148-2.015s.017-.036.02-.043A.444.444,0,0,0,26.326-68.539Z" transform="translate(1497.44 473.745)"/><g class="f" transform="translate(1503 398)"><path class="e" d="M-5-81.677H.323V-87H-5Z" transform="translate(3.475 85.475)"/></g><g class="g" transform="translate(1525.726 398)"><path class="e" d="M69.545-81.677h5.323V-87H69.545Z" transform="translate(-71.07 85.475)"/></g><g transform="translate(1504.137 399.137)"><g class="h"><path class="l" d="M0,0H22.727V22.727H0Z"/><path class="m" d="M 1 1 L 1 21.7268009185791 L 21.72654151916504 21.7268009185791 L 21.72654151916504 1 L 1 1 M 0 0 L 22.72654151916504 0 L 22.72654151916504 22.7268009185791 L 0 22.7268009185791 L 0 0 Z"/></g></g><g class="i" transform="translate(1503 420.727)"><path class="e" d="M-5-7.131H.323v-5.323H-5Z" transform="translate(3.475 10.93)"/></g><g class="j" transform="translate(1525.726 420.727)"><path class="e" d="M69.545-7.131h5.323v-5.323H69.545Z" transform="translate(-71.07 10.93)"/></g></g><g transform="translate(-1441 -336)"><path class="e" d="M26.326-68.539l-1.976-.8a1.676,1.676,0,0,0-1.229-1.308l-.107-1.233a.444.444,0,0,0-.3-.382.443.443,0,0,0-.47.123l-.517.571-.317-1.111A.444.444,0,0,0,21-73a.445.445,0,0,0-.432.292l-2.737,7.557a7.933,7.933,0,0,0-4.744,3.488,6.591,6.591,0,0,0-.846,5.07,4,4,0,0,0,1.193,2.075h-.387a4.545,4.545,0,0,1-4.2-2.58.443.443,0,0,0-.592-.209.444.444,0,0,0-.208.592,5.434,5.434,0,0,0,4.893,3.085H21.4a.444.444,0,0,0,.444-.444,2.038,2.038,0,0,0-1.793-1.939,3.366,3.366,0,0,0,.382-1.882l.116-.015,2.658,4.08a.443.443,0,0,0,.372.2H25.2a.443.443,0,0,0,.388-.229.444.444,0,0,0-.013-.451c-.017-.027-1.684-2.676-2.58-4.158v-7.459a3.737,3.737,0,0,0,.411.023,3.527,3.527,0,0,0,3.148-2.015s.017-.036.02-.043A.444.444,0,0,0,26.326-68.539Z" transform="translate(1497.44 473.745)"/><g class="f" transform="translate(1503 398)"><path class="e" d="M-5-81.677H.323V-87H-5Z" transform="translate(3.475 85.475)"/></g><g class="g" transform="translate(1525.726 398)"><path class="e" d="M69.545-81.677h5.323V-87H69.545Z" transform="translate(-71.07 85.475)"/></g><g transform="translate(1504.137 399.137)"><g class="h"><path class="l" d="M0,0H22.727V22.727H0Z"/><path class="m" d="M 1 1 L 1 21.7268009185791 L 21.72654151916504 21.7268009185791 L 21.72654151916504 1 L 1 1 M 0 0 L 22.72654151916504 0 L 22.72654151916504 22.7268009185791 L 0 22.7268009185791 L 0 0 Z"/></g></g><g class="i" transform="translate(1503 420.727)"><path class="e" d="M-5-7.131H.323v-5.323H-5Z" transform="translate(3.475 10.93)"/></g><g class="j" transform="translate(1525.726 420.727)"><path class="e" d="M69.545-7.131h5.323v-5.323H69.545Z" transform="translate(-71.07 10.93)"/></g></g></g><circle class="k" cx="16" cy="16" r="16" transform="translate(1041 419)"/><g transform="translate(1023.334 394.011)"><path class="e" d="M33.832,23.609C15.148,23.609,0,41.466,0,41.466S15.148,59.323,33.832,59.323,67.663,41.466,67.663,41.466,52.516,23.609,33.832,23.609Zm0,32.893A15.037,15.037,0,1,1,48.868,41.465,15.054,15.054,0,0,1,33.832,56.5Z" transform="translate(0 0)"/><path class="e" d="M51.537,43.449a2.7,2.7,0,0,1-1.887-4.641,8.109,8.109,0,0,0-11.662,7.308,8.128,8.128,0,1,0,15.468-3.465,2.689,2.689,0,0,1-1.919.8Z" transform="translate(-12.284 -4.65)"/></g></g></svg>