<svg xmlns="http://www.w3.org/2000/svg" width="16" height="19.896" viewBox="0 0 16 19.896">
    <defs>
        <style>
            .cls-1{fill:#5a658e}
        </style>
    </defs>
    <g id="np_list_2041212_000000" transform="translate(-11.801 -2.5)">
        <path id="Path_607" d="M24.22 2.521L11.8 2.5v19.9h16V6.082zm2.723 19.016H12.659V3.359l10.618.021v3.644h3.644v14.513zM24.157 6.165V3.652l2.513 2.513z" class="cls-1" data-name="Path 607"/>
        <path id="Path_608" d="M41.2 57.1h6.073v.859H41.2z" class="cls-1" data-name="Path 608" transform="translate(-23.241 -43.167)"/>
        <path id="Path_609" d="M41.2 38.9h6.073v.859H41.2z" class="cls-1" data-name="Path 609" transform="translate(-23.241 -28.775)"/>
        <path id="Path_610" d="M41.2 75.2h6.073v.859H41.2z" class="cls-1" data-name="Path 610" transform="translate(-23.241 -57.474)"/>
        <path id="Path_611" d="M29.8 37.8h1.32v1.32H29.8z" class="cls-1" data-name="Path 611" transform="translate(-14.23 -27.908)"/>
        <path id="Path_612" d="M29.8 56h1.32v1.32H29.8z" class="cls-1" data-name="Path 612" transform="translate(-14.23 -42.295)"/>
        <path id="Path_613" d="M29.8 74.1h1.32v1.32H29.8z" class="cls-1" data-name="Path 613" transform="translate(-14.23 -56.606)"/>
    </g>
</svg>
