<svg xmlns="http://www.w3.org/2000/svg" width="20" height="20" viewBox="0 0 20 20">
    <g fill="none" fill-rule="evenodd" transform="translate(1 3)">
        <rect width="10" height="1" x="4" fill="#8492C2" rx=".5"/>
        <rect width="14" height="1" x="2" y="2" fill="#8492C2" rx=".5"/>
        <path fill="#8492C2" d="M2 4h14a2 2 0 0 1 2 2v7a2 2 0 0 1-2 2H2a2 2 0 0 1-2-2V6a2 2 0 0 1 2-2zm6.96 3.774L6.84 5.653a1 1 0 1 0-1.414 1.414l2.12 2.121-2.12 2.121a1 1 0 0 0 1.414 1.415l2.121-2.122 1.883 1.883a1 1 0 0 0 1.414-1.414l-1.883-1.883 2.122-2.121a1 1 0 0 0-1.415-1.414l-2.12 2.12z"/>
    </g>
</svg>
