<svg xmlns="http://www.w3.org/2000/svg" width="15" height="15" viewBox="0 0 15 15">
    <defs>
        <style>
            .cls-1{fill:#7480aa}
        </style>
    </defs>
    <path id="Path_631" d="M14.4-10.968l-1.578-1.577a1.976 1.976 0 0 0-2.8 0L.73-3.308.01 1.057a.7.7 0 0 0 .808.808l4.365-.72 9.238-9.3a1.978 1.978 0 0 0-.021-2.813zM3.534-4.277l4.989-4.956 2.585 2.585L6.152-1.66v-1.211H4.746v-1.406zM2.406.3l-.828-.831.356-2.156.539-.536h1.218v1.406H5.1V-.6l-.536.539zm11.1-9.361L12.1-7.645l-2.58-2.579 1.416-1.407a.687.687 0 0 1 .974 0l1.578 1.578a.689.689 0 0 1 .021.989z" class="cls-1" data-name="Path 631" transform="translate(0 13.125)"/>
</svg>
