<svg xmlns="http://www.w3.org/2000/svg" viewBox="0 0 14.375 14.375">
  <defs>
    <style>
      .cls-1{fill:#de3232}
    </style>
  </defs>
  <path id="Path_588"
        d="M9.344-8.625l4.806 4.852a.6.6 0 0 1 .225.494.6.6 0 0 1-.225.494l-1.123 1.123a.6.6 0 0 1-.494.225.6.6 0 0 1-.494-.225L7.187-6.469 2.336-1.662a.6.6 0 0 1-.494.225.6.6 0 0 1-.494-.225L.225-2.785A.6.6 0 0 1 0-3.279a.6.6 0 0 1 .225-.494l4.806-4.852-4.806-4.852A.6.6 0 0 1 0-13.971a.6.6 0 0 1 .225-.494l1.123-1.123a.6.6 0 0 1 .494-.225.6.6 0 0 1 .494.225l4.852 4.807 4.852-4.807a.6.6 0 0 1 .494-.225.6.6 0 0 1 .494.225l1.123 1.123a.6.6 0 0 1 .225.494.6.6 0 0 1-.225.494z"
        class="cls-1" data-name="Path 588" transform="translate(0 15.813)"/>
</svg>
