<svg xmlns="http://www.w3.org/2000/svg" width="20" height="20" viewBox="0 0 20 20">
    <path fill="#8492C2" fill-rule="nonzero" d="M16.19 17h-5.164v-4.997h2.004c.396 0 .63-.45.396-.773L10.39 7.263a.484.484 0 0 0-.787 0L6.57 11.23a.486.486 0 0 0 .396.773h2.017V17H4.239C1.88 16.87 0 15.664 0 13.273c0-1.649.895-3.087 2.22-3.864a3 3 0 0 1-.184-1.047c0-1.685 1.805-3.505 3.491-3.505.364 0 .715.063 1.043.184C7.545 2.974 8.206 2 10.652 2a6.112 6.112 0 0 1 6.069 5.513C19.153 7.931 20 9.182 20 11.73c0 2.722-1.121 5.081-3.81 5.27z"/>
</svg>
