<svg xmlns="http://www.w3.org/2000/svg" width="10.625" height="10.625" viewBox="0 0 10.625 10.625">
    <defs>
        <style>
            .cls-1{fill:#fff}
        </style>
    </defs>
    <path id="status-failed" d="M6.439-6.375L9.845-9.78l.7-.7a.266.266 0 0 0 0-.376l-.745-.753a.266.266 0 0 0-.376 0L5.312-7.5 1.2-11.61a.266.266 0 0 0-.376 0l-.752.751a.266.266 0 0 0 0 .376l4.114 4.108L.078-2.267a.266.266 0 0 0 0 .376l.751.751a.266.266 0 0 0 .376 0l4.107-4.108 3.406 3.405.7.7a.266.266 0 0 0 .376 0l.751-.751a.266.266 0 0 0 0-.376z" class="cls-1" transform="translate(0 11.688)"/>
</svg>
