<svg xmlns="http://www.w3.org/2000/svg" width="20" height="20" viewBox="0 0 20 20">
    <g fill="#8492C2" fill-rule="evenodd" transform="translate(-1 4)">
        <path d="M1.447 5.697c-.488.488-.618 1.15-.29 1.477l3.42 3.42c.327.328.988.197 1.476-.29.488-.489.619-1.15.29-1.478l-3.419-3.42c-.327-.327-.989-.197-1.477.291z"/>
        <path d="M6.053 2.06c.488.489.64 1.13.338 1.431l-3.15 3.15c-.302.301-.942.15-1.43-.338s-.64-1.128-.338-1.43l3.15-3.15c.302-.302.942-.15 1.43.338zM20.553 5.697c.488.488.618 1.15.29 1.477l-3.42 3.42c-.327.328-.988.197-1.476-.29-.488-.489-.619-1.15-.29-1.478l3.419-3.42c.327-.327.989-.197 1.477.291z"/>
        <path d="M15.947 2.06c-.488.489-.64 1.13-.338 1.431l3.15 3.15c.302.301.942.15 1.43-.338s.64-1.128.338-1.43l-3.15-3.15c-.302-.302-.942-.15-1.43.338z"/>
        <rect width="2.5" height="12" x="9.723" y=".126" rx="1.25" transform="rotate(10 10.973 6.126)"/>
    </g>
</svg>
