<svg xmlns="http://www.w3.org/2000/svg"
  xmlns:xlink="http://www.w3.org/1999/xlink" width="64px" height="64px" viewBox="0 0 64 64">

<style>

#t-dots #t-clipper-path rect,
#b-dots path,
#b-dots g,
.hourglass {
	animation-duration: 5s;
	animation-delay: 1s;
	animation-iteration-count: infinite;
}
.hourglass {
    transform-origin: center;
    animation-name: hourglass-rotation;
}
#t-dots #t-clipper-path rect {
	animation-name: t-clipper;
}
#b-dots path {
	transform: translateY(21px);
	animation-name: b-dots;
}
#b-dots g {
	animation-name: b-dots-g;
}


@keyframes t-clipper {
	0%{}
	50%{transform: translateY(22px);}
	100%{transform: translateY(22px);}
}
@keyframes b-dots {
	0%{}
	50%{transform: translateY(0);}
	100%{transform: translateY(0);}
}
@keyframes b-dots-g {
	0%{}
	85%{transform: translateY(0);}
	100%{transform: translateY(-6px);}
}
@keyframes hourglass-rotation {
	50%{transform: rotateZ(0);}
	100%{transform: rotateZ(180deg);}
}
</style>

    <polygon points="45 37.22 50 32.22 45 27.22 45 37.22" fill="#39405f"/>
    <polygon points="20 27.22 20 37.22 25 32.22 20 27.22" fill="#39405f"/>
    <polygon points="12 37.22 17 32.22 12 27.22 12 37.22" fill="#39405f"/>
    <g class="hourglass">

        <path d="M32,33.41l8,8V52H24V41.41ZM24,12V22.59l8,8,8-8V12Z" fill="#1a1e2c"/>

        <g id="t-dots">
            <clipPath id="t-clipper-path" fill="white">
                <rect x="22.05" y="19.95" width="19.9" height="11"/>
            </clipPath>

            <path fill="#39405f" clip-path="url(#t-clipper-path)" d="M41,19v3.18s-5,8.41-9,8.41-9-8.41-9-8.41V19Z"></path>

        </g>

        <g id="b-dots">
            <clipPath id="bottom-clip-path" fill="white">
                <rect x="22.05" y="37.76" width="19.9" height="15"/>
            </clipPath>

            <g clip-path="url(#bottom-clip-path)">
                <path fill="#39405f" d="M24,52H40V48.49S36,40,32,40s-8,8.51-8,8.51Z"></path>
            </g>
        </g>
        
        <path d="M24,12V22.59l8,8,8-8V12Zm14,9.76-6,6-6-6V14H38ZM24,41.41V52H40V41.41l-8-8ZM38,50H26V42.24l6-6,6,6Z" fill="#1a1e2c"/>

        <path d="M44,52H42V40.59L33.41,32,42,23.41V12h2a1,1,0,0,0,0-2H20a1,1,0,0,0,0,2h2V23.41L30.59,32,22,40.59V52H20a1,1,0,0,0,0,2H44a1,1,0,0,0,0-2ZM24,22.59V12H40V22.59l-8,8ZM40,52H24V41.41l8-8,8,8Z" fill="#39405f"/>
    </g>
</svg>