<?xml version="1.0" encoding="UTF-8"?>
<svg xmlns="http://www.w3.org/2000/svg" viewBox="0 0 18 18">
  <path d="M5.07,8.53c0,.22.02.4.07.53.05.13.11.28.19.43.03.05.04.1.04.14,0,.06-.04.12-.11.18l-.38.25c-.05.04-.11.05-.16.05-.06,0-.12-.03-.18-.08-.08-.09-.16-.19-.22-.28-.06-.1-.12-.22-.19-.35-.47.55-1.05.83-1.76.83-.5,0-.9-.14-1.2-.43-.29-.29-.44-.67-.44-1.15,0-.51.18-.92.54-1.23.37-.31.85-.47,1.47-.47.2,0,.41.02.63.05.22.03.45.08.69.13v-.44c0-.45-.1-.77-.28-.96-.19-.19-.51-.28-.98-.28-.21,0-.43.02-.65.08-.22.05-.44.12-.65.2-.1.04-.17.07-.21.08s-.07.02-.1.02c-.08,0-.13-.06-.13-.19v-.29c0-.1.01-.17.04-.21.03-.04.08-.08.17-.13.21-.11.46-.2.75-.27.29-.08.6-.11.93-.11.71,0,1.23.16,1.57.48.33.32.5.81.5,1.47v1.94h.01ZM2.64,9.44c.2,0,.4-.04.62-.11s.41-.2.57-.38c.1-.11.17-.24.2-.38s.06-.32.06-.52v-.25c-.17-.04-.36-.08-.55-.1s-.38-.04-.56-.04c-.4,0-.69.08-.89.24-.2.16-.29.39-.29.69,0,.28.07.49.22.63.14.15.35.22.63.22ZM7.45,10.08c-.11,0-.18-.02-.23-.06-.05-.04-.09-.12-.13-.23l-1.41-4.63c-.04-.12-.05-.2-.05-.24,0-.1.05-.15.14-.15h.59c.11,0,.19.02.23.06.05.04.08.12.12.23l1.01,3.96.93-3.96c.03-.12.07-.2.11-.23s.13-.06.24-.06h.48c.11,0,.19.02.24.06.05.04.09.12.11.23l.95,4.01,1.04-4.01c.04-.12.08-.2.12-.23.05-.04.13-.06.23-.06h.56c.1,0,.15.05.15.15,0,.03,0,.06-.01.1s-.02.08-.04.15l-1.44,4.63c-.04.12-.08.2-.13.23s-.13.06-.23.06h-.51c-.11,0-.19-.02-.24-.06s-.09-.12-.11-.24l-.93-3.86-.92,3.86c-.03.12-.07.2-.11.24s-.13.06-.24.06h-.51ZM15.14,10.25c-.31,0-.62-.04-.92-.11-.3-.07-.53-.15-.69-.24-.1-.05-.16-.11-.19-.17s-.04-.11-.04-.17v-.31c0-.13.05-.19.14-.19.04,0,.07,0,.11.02.04.01.09.04.15.06.2.09.43.16.66.21.24.05.47.07.71.07.38,0,.67-.07.87-.2s.31-.32.31-.57c0-.17-.05-.31-.16-.42-.11-.11-.31-.22-.6-.31l-.87-.27c-.44-.14-.76-.34-.96-.61-.2-.26-.3-.56-.3-.87,0-.25.05-.47.16-.66s.25-.36.43-.49c.18-.14.38-.24.62-.31.24-.07.49-.1.75-.1.13,0,.27,0,.4.02.14.02.26.04.39.07.12.03.23.06.34.1s.19.07.25.11c.08.05.14.1.18.15.04.05.05.11.05.2v.28c0,.13-.05.19-.14.19-.05,0-.13-.02-.23-.07-.34-.16-.72-.23-1.15-.23-.34,0-.61.05-.8.17s-.28.29-.28.53c0,.17.06.31.18.43s.34.23.66.33l.85.27c.43.14.74.33.93.57s.28.53.28.84c0,.26-.05.49-.16.69-.11.2-.25.38-.44.53-.19.15-.41.26-.66.34-.27.08-.55.13-.86.13h0Z" fill="#fff" />
  <path d="M16.27,13.15c-1.97,1.45-4.83,2.23-7.29,2.23-3.45,0-6.56-1.28-8.9-3.39-.19-.17-.02-.4.2-.26,2.54,1.47,5.67,2.36,8.91,2.36,2.19,0,4.59-.45,6.79-1.39.33-.15.61.22.29.45ZM17.09,12.22c-.25-.32-1.66-.16-2.3-.08-.19.02-.22-.14-.05-.27,1.13-.79,2.98-.56,3.19-.3.22.27-.06,2.12-1.11,3.01-.16.14-.32.07-.25-.11.24-.59.77-1.93.52-2.24Z" fill="#f90"/>
</svg>