<!-- Generated by IcoMoon.io -->
<svg version="1.1" xmlns="http://www.w3.org/2000/svg" width="24" height="24" viewBox="0 0 24 24">
<title>access-key</title>
<path fill="#4d66ff" d="M12 8c0.552 0 1 0.448 1 1s-0.448 1-1 1c-0.552 0-1-0.448-1-1v0 0c0-0.552 0.448-1 1-1v0zM21 11c0 0.011 0 0.024 0 0.038 0 5.647-3.759 10.416-8.912 11.94l-0.088 0.022c-5.241-1.547-9-6.316-9-11.962 0-0.013 0-0.026 0-0.040v0.002-6l9-4 9 4v6zM12 6c-0.001 0-0.003 0-0.004 0-1.657 0-3 1.343-3 3 0 1.3 0.827 2.407 1.984 2.823l0.021 0.007v6.17h2v-2h2v-2h-2v-2.17c1.178-0.423 2.004-1.53 2.004-2.83 0-1.657-1.343-3-3-3-0.002 0-0.003 0-0.005 0h0z"></path>
</svg>
