<svg xmlns="http://www.w3.org/2000/svg" viewBox="0 0 24 24">
  <path d="M18.61,2.22l5.17,8.96c.29.51.29,1.13,0,1.63l-5.17,8.98c-.3.51-.85.82-1.44.82H6.83c-.59,0-1.14-.31-1.44-.82L.22,12.82c-.29-.51-.29-1.13,0-1.63L5.41,2.2c.29-.5.83-.82,1.41-.82h10.35c.6,0,1.14.32,1.44.84Z" fill="#0078d7"/>
  <path d="M15.7,5.26H7.51c-.9,0-1.63.73-1.63,1.63v10.21c0,.9.73,1.63,1.63,1.63h8.98c.9,0,1.63-.73,1.63-1.63V7.71l-2.43-2.45ZM17.33,17.1c0,.45-.37.82-.82.82H7.51c-.45,0-.82-.37-.82-.82V6.9c0-.45.37-.82.82-.82h7.76v2.04h2.04l.02,8.98ZM10.04,8.64l-.86.25v-.67l1.66-.57h.08v3.77h-.87v-2.79ZM13.35,7.61c-.37-.02-.73.13-.97.41-.25.34-.37.76-.35,1.18v.69c-.03.42.1.84.35,1.18.52.54,1.37.55,1.91.04.01-.01.03-.03.04-.04.25-.34.37-.76.34-1.18v-.68c.03-.42-.1-.84-.35-1.18-.24-.28-.6-.44-.97-.42ZM13.8,10.02c0,.2-.03.41-.11.6-.06.12-.19.2-.33.19-.14,0-.28-.07-.34-.2-.08-.19-.12-.41-.11-.62v-.96c0-.2.03-.39.11-.57.06-.12.19-.19.33-.18.14,0,.28.07.34.2.08.19.12.4.11.61v.93ZM10.28,12.51c-.37-.02-.73.13-.97.41-.25.34-.37.76-.34,1.18v.69c-.03.42.09.84.34,1.18.24.28.6.43.98.41.37.02.73-.13.97-.41.25-.34.37-.75.34-1.17v-.69c.03-.42-.09-.84-.34-1.18-.24-.28-.6-.43-.97-.42ZM10.72,14.92c.01.2-.02.41-.11.6-.06.12-.19.2-.33.19-.14,0-.27-.07-.34-.2-.08-.19-.12-.41-.11-.62v-.96c0-.2.04-.39.12-.57.1-.18.33-.25.52-.15.06.03.12.09.15.15.08.19.12.4.11.61v.95ZM13.9,12.56h.08v3.77h-.87v-2.79l-.86.25v-.67l1.65-.57Z" fill="#fff"/>
</svg>