<svg xmlns="http://www.w3.org/2000/svg" viewBox="0 0 24 24">
  <defs>
    <linearGradient id="d" x1="-303.64" y1="174.77" x2="-303.64" y2="170.21"  gradientUnits="userSpaceOnUse">
      <stop offset="0" stop-color="#4387fd"/>
      <stop offset="1" stop-color="#4683ea"/>
    </linearGradient>
  </defs>
  <path d="M5.21,21.6L.29,13.08c-.39-.67-.39-1.49,0-2.16L5.21,2.4c.39-.67,1.1-1.08,1.87-1.08h9.84c.77,0,1.48.41,1.87,1.08l4.92,8.52c.39.67.39,1.49,0,2.16l-4.92,8.52c-.39.67-1.1,1.08-1.87,1.08H7.08c-.77,0-1.48-.41-1.87-1.08h0Z" fill="url(#d)" />
  <g clip-path="url(#e)">
    <path d="M9.25,10.1l-1.31,1.31,1.12,1.12-1.11,1.96,8.19,8.19,2.01-.02,4.13-7.08-6.24-6.1-6.78.62Z" fill="#000" isolation="isolate" opacity=".07" />
  </g>
  <path d="M15.88,9.43h-7.77c-.13,0-.23.1-.23.23v1.61c0,.12.1.23.23.23h7.77c.13,0,.23-.1.23-.23v-1.61c0-.12-.1-.23-.23-.23M14.68,10.92c-.26,0-.46-.21-.46-.46,0-.26.21-.46.46-.46h0c.26,0,.46.21.46.46s-.21.46-.46.46h0M15.88,12.51h-7.77c-.13,0-.23.1-.23.23v1.61c0,.12.1.23.23.23h7.77c.13,0,.23-.1.23-.23v-1.61c0-.12-.1-.23-.23-.23M14.68,14.01c-.26,0-.46-.21-.46-.46,0-.26.21-.46.46-.46h0c.26-.01.47.19.48.45.01.26-.19.47-.45.48-.01,0-.02,0-.04,0" fill="#fff" />
</svg>