<svg xmlns="http://www.w3.org/2000/svg" width="88" height="88" viewBox="0 0 88 88">
    <g>
        <path fill="none" d="M0 0H88V88H0z" transform="translate(10 5) translate(-10 -5)"/>
        <path fill="#2c3246" d="M30 40.37V30h3.05l3.05 3.813L39.15 30h3.05v10.37h-3.05v-5.947l-3.05 3.812-3.05-3.813v5.948zm19.063 0l-4.575-5.033h3.05V30h3.05v5.338h3.05z" transform="translate(10 5) translate(-21.187 -21.187)"/>
        <path d="M26.587 89.6a2.608 2.608 0 0 1-2.606-2.609v-6.4h-5.929a2.608 2.608 0 0 1-2.609-2.606v-6.173H9.279A2.61 2.61 0 0 1 6.67 69.2v-65a2.608 2.608 0 0 1 2.609-2.6h49.082a2.608 2.608 0 0 1 2.609 2.6v6.164h6.164a2.61 2.61 0 0 1 2.609 2.609v6.4h5.926a2.608 2.608 0 0 1 2.609 2.609v65a2.61 2.61 0 0 1-2.609 2.618H26.587zm2.613-5.223h43.863V24.593h-3.32v53.384a2.61 2.61 0 0 1-2.609 2.609H29.2zm-8.537-9.009h43.862V15.584H60.97V69.2a2.61 2.61 0 0 1-2.609 2.609h-37.7zm-8.771-8.773h43.86V16.88L45.682 6.81H11.888zm7.586-8.806a2.606 2.606 0 0 1-2.606-2.606 2.608 2.608 0 0 1 2.606-2.609h5.218a2.608 2.608 0 1 1 0 5.215h-5.223zm0-9.484a2.606 2.606 0 0 1-2.611-2.605 2.606 2.606 0 0 1 2.606-2.609h24.186a2.608 2.608 0 1 1 0 5.215H19.473zm0-9.484a2.608 2.608 0 0 1-2.606-2.609 2.606 2.606 0 0 1 2.601-2.612h14.7a2.608 2.608 0 1 1 0 5.215h-14.7z" transform="translate(10 5) translate(-8.474 -6.595)" style="isolation:isolate" fill="#2c3246"/>
    </g>
</svg>
