<svg xmlns="http://www.w3.org/2000/svg" viewBox="0 0 24 24">
  <path d="M3.61,4.16l-1.61.8v14.04l1.61.8h0V4.2h0" fill="#8c3123"/>
  <path d="M12.23,17.76l-8.62,2.04V4.16l8.62,2v11.6" fill="#e05243"/>
  <path d="M8.34,14.57l3.66.46.02-.05v-5.95l-.02-.05-3.66.46v5.14" fill="#8c3123"/>
  <path d="M12,17.78l8.39,2h0V4.18h0l-8.39,2v11.6" fill="#8c3123"/>
  <path d="M15.66,14.57l-3.66.46v-6.05l3.66.46v5.14" fill="#e05243"/>
  <path d="M15.66,6.95l-3.66.65-3.66-.66,3.66-.94,3.66.95" fill="#5e1f18"/>
  <path d="M15.66,17.05l-3.66-.65-3.66.67,3.66.99,3.66-1.01" fill="#f2b0a9"/>
  <path d="M8.34,6.95l3.66-.9h.03V.05l-.03-.05-3.66,1.82v5.14" fill="#8c3123"/>
  <path d="M15.66,6.95l-3.66-.9V0l3.66,1.82v5.14" fill="#e05243"/>
  <path d="M12,24l-3.66-1.82v-5.14l3.66.9.05.06v5.89l-.05.1" fill="#8c3123"/>
  <path d="M12,24l3.66-1.82v-5.14l-3.66.9v6.05" fill="#e05243"/>
  <path d="M20.39,4.16l1.61.8v14.04l-1.61.8V4.16" fill="#e05243"/>
</svg>