<svg xmlns="http://www.w3.org/2000/svg" width="18" height="18" viewBox="0 0 18 18">
    <g>
        <path fill="none" d="M0 0H18V18H0z" transform="translate(-415 -502) translate(415 502)"/>
        <path fill="#202432" d="M6.021-1.337c0-.083-.094-.142-.2-.131s-.189.058-.189.131.083.142.2.131.189-.059.189-.131zM4.892-1.5c-.025.073.047.156.156.178a.17.17 0 0 0 .225-.078c.022-.073-.047-.156-.156-.189a.186.186 0 0 0-.225.089zm1.6-.062c-.105.025-.178.094-.167.178s.105.12.214.094.178-.094.167-.167-.106-.116-.206-.105zm2.392-13.907A8.7 8.7 0 0 0 0-6.614a9.1 9.1 0 0 0 6.151 8.681c.465.083.628-.2.628-.439S6.768.162 6.768-.6c0 0-2.54.544-3.074-1.081 0 0-.414-1.056-1.009-1.328 0 0-.831-.57.058-.559a1.916 1.916 0 0 1 1.4.936 1.918 1.918 0 0 0 2.646.758A2.017 2.017 0 0 1 7.371-3.1C5.342-3.322 3.3-3.616 3.3-7.107a2.75 2.75 0 0 1 .856-2.138 3.429 3.429 0 0 1 .094-2.464c.758-.236 2.5.98 2.5.98a8.527 8.527 0 0 1 2.279-.308 8.527 8.527 0 0 1 2.279.308s1.746-1.219 2.5-.98a3.427 3.427 0 0 1 .094 2.464 2.821 2.821 0 0 1 .936 2.138c0 3.5-2.138 3.781-4.166 4.01a2.146 2.146 0 0 1 .617 1.684c0 1.223-.011 2.736-.011 3.034 0 .236.167.523.628.439A9.015 9.015 0 0 0 18-6.614a8.9 8.9 0 0 0-9.116-8.855zM3.527-2.952c-.047.036-.036.12.025.189s.142.083.189.036.036-.12-.025-.189-.141-.084-.189-.036zm-.392-.294c-.025.047.011.105.083.142a.108.108 0 0 0 .156-.025c.025-.047-.011-.105-.083-.142s-.13-.011-.156.025zm1.176 1.292c-.058.047-.036.156.047.225s.189.094.236.036.025-.156-.047-.225-.189-.094-.236-.036zM3.9-2.488c-.058.036-.058.131 0 .214s.156.12.2.083a.166.166 0 0 0 0-.225c-.05-.084-.144-.119-.2-.072z" transform="translate(-415 -502) translate(415 517.469)"/>
    </g>
</svg>
