<svg xmlns="http://www.w3.org/2000/svg"
  xmlns:xlink="http://www.w3.org/1999/xlink" width="64px" height="64px" viewBox="0 0 64 64">
  <path d="M55,32A23,23,0,1,1,11.93,20.76l-2.5.4a1,1,0,0,1-.31-2L14,18.41a1,1,0,0,1,1.14.81l.93,5a1,1,0,0,1-.8,1.17h-.18a1,1,0,0,1-1-.81l-.5-2.7A21,21,0,1,0,32,11a1,1,0,0,1,0-2A23,23,0,0,1,55,32ZM32,50a1,1,0,0,0,1-1V47.21a1,1,0,0,0-2,0V49A1,1,0,0,0,32,50Zm0-32.21a1,1,0,0,0,1-1V15a1,1,0,0,0-2,0v1.79A1,1,0,0,0,32,17.79ZM20.54,22A1,1,0,0,0,22,22a1,1,0,0,0,0-1.41l-1.26-1.27a1,1,0,0,0-1.42,1.42ZM20,45a1,1,0,0,0,.71-.29L22,43.46a1,1,0,1,0-1.41-1.41l-1.27,1.26a1,1,0,0,0,0,1.42A1,1,0,0,0,20,45ZM42.76,22.24a1,1,0,0,0,.7-.29l1.27-1.26a1,1,0,0,0-1.42-1.42l-1.26,1.27a1,1,0,0,0,0,1.41A1,1,0,0,0,42.76,22.24ZM14,32a1,1,0,0,0,1,1h1.79a1,1,0,0,0,0-2H15A1,1,0,0,0,14,32Zm35,1a1,1,0,0,0,0-2H47.21a1,1,0,0,0,0,2Zm-7,10.46,1.26,1.27a1,1,0,0,0,1.42,0,1,1,0,0,0,0-1.42l-1.27-1.26a1,1,0,1,0-1.41,1.41Z" fill="#39405f"/>
  <g id="seconds">
    <line fill="none" stroke="#39405f" stroke-width="2" stroke-miterlimit="10" x1="32" y1="32" x2="32" y2="20" stroke-linecap="round"/>
  </g>
  <circle cx="32" cy="32" r="2" fill="#39405f"/>
  <circle cx="32" cy="32" r="1" fill="#1a1e2c"/>

  <defs>
    <animateTransform type="rotate" fill="remove" restart="always" calcMode="linear" accumulate="none" additive="sum" xlink:href="#seconds" repeatCount="indefinite" dur="15s" to="360 32 32" from="0 32 32" attributeName="transform" attributeType="xml">
    </animateTransform>
  </defs>
</svg>