<svg xmlns="http://www.w3.org/2000/svg" width="16" height="13" viewBox="0 0 16 13">
    <g fill="none" fill-rule="evenodd">
        <rect width="16" height="13" fill="#38446E" rx="2"/>
        <path fill="#FDFDFF" d="M4 9.963V3h1.774v6.963H4zm7.424-6.533c.493.287.879.686 1.158 1.196.279.51.418 1.086.418 1.726v.264c0 .64-.139 1.215-.416 1.724a3.05 3.05 0 0 1-1.148 1.193 3.184 3.184 0 0 1-1.645.43H7.467V3h2.28c.626 0 1.185.143 1.677.43zm-.25 2.913c0-.625-.122-1.098-.364-1.418-.243-.32-.597-.48-1.062-.48H9.25v4.079h.54c.443 0 .784-.16 1.023-.479.24-.318.36-.795.36-1.43v-.272z"/>
    </g>
</svg>
