<svg xmlns="http://www.w3.org/2000/svg" width="400" height="400" viewBox="0 0 400 400">
    <text transform="translate(127 232)" font-size="16" fill="#5a658e" font-family="'Heebo', sans-serif" font-weight="500">Failed to load image</text>
    <path id="p1" d="M214.4,203.79H185.61a5.56,5.56,0,0,1-4.83-2.73,5.42,5.42,0,0,1-.07-5.49l14.4-24.94a5.55,5.55,0,0,1,4.89-2.84h0a5.57,5.57,0,0,1,4.9,2.85l14.38,24.91a5.43,5.43,0,0,1-.06,5.51A5.56,5.56,0,0,1,214.4,203.79Zm-14.4-32a1.59,1.59,0,0,0-1.4.81v0L184.2,197.51a1.53,1.53,0,0,0,0,1.55,1.58,1.58,0,0,0,1.38.78H214.4a1.58,1.58,0,0,0,1.37-.78,1.54,1.54,0,0,0,0-1.57l-14.38-24.91A1.59,1.59,0,0,0,200,171.75Zm-3.14-.15h0ZM200,194.06a2,2,0,1,0,2,2A2,2,0,0,0,200,194.06Zm1-5.13,1-9.07a2,2,0,0,0-2-2h0a2,2,0,0,0-2,2l1,9.07C199,190,201,190,201,188.93Z" fill="#5a658e"/>
</svg>
