<svg xmlns="http://www.w3.org/2000/svg" width="1000" height="1000" viewBox="0 0 1000 1000">
  <defs>
    <style>.a{fill:none;}.b{fill:#5a658e;opacity:0.505;}</style>
  </defs>
  <rect class="a" width="1000" height="1000"/>
  <path class="b"
        d="M105.547-112.5a2.344,2.344,0,0,0-2.344,2.422l2.93,76.562a2.334,2.334,0,0,0,2.344,2.266h8.008a2.362,2.362,0,0,0,2.344-2.266l2.93-76.562a2.344,2.344,0,0,0-2.344-2.422ZM112.5-23.437A10.92,10.92,0,0,0,101.562-12.5,10.92,10.92,0,0,0,112.5-1.562,10.92,10.92,0,0,0,123.437-12.5,10.92,10.92,0,0,0,112.5-23.437ZM222.46-3.125l-93.711-162.5a18.771,18.771,0,0,0-32.5,0L2.539-3.125A18.766,18.766,0,0,0,18.789,25H206.249A18.754,18.754,0,0,0,222.46-3.125ZM206.249,12.5H18.75a6.265,6.265,0,0,1-5.43-9.375l93.75-162.5a6.251,6.251,0,0,1,10.82,0l93.75,162.5A6.242,6.242,0,0,1,206.249,12.5Z"
        transform="translate(388 531)"/>
  <path class="b"
        d="M-187.021-29.025v12.139h14.566v2.277h-14.566V0h-2.643V-31.281h19.379v2.256Zm37.49,24.148a17.906,17.906,0,0,0,.183,2.557,7.9,7.9,0,0,0,.526,2.041V0h-2.75a11.849,11.849,0,0,1-.516-3.244,9.544,9.544,0,0,1-3.276,2.653A9.987,9.987,0,0,1-159.951.43a8.682,8.682,0,0,1-3.932-.849,6.373,6.373,0,0,1-2.632-2.353,6.3,6.3,0,0,1-.935-3.395,6.253,6.253,0,0,1,1.278-3.921,8.007,8.007,0,0,1,3.674-2.557,16.155,16.155,0,0,1,5.64-.892h4.748v-2.621a5.083,5.083,0,0,0-1.558-3.942,6.331,6.331,0,0,0-4.437-1.429,7.784,7.784,0,0,0-3.19.634,5.513,5.513,0,0,0-2.234,1.708,3.851,3.851,0,0,0-.806,2.363l-2.578-.021a5.588,5.588,0,0,1,1.139-3.319,8.08,8.08,0,0,1,3.18-2.546,10.61,10.61,0,0,1,4.6-.967,10.819,10.819,0,0,1,4.426.849,6.557,6.557,0,0,1,2.976,2.546,7.7,7.7,0,0,1,1.063,4.168Zm-10.141,3.029a8.5,8.5,0,0,0,4.684-1.278,7.373,7.373,0,0,0,2.879-3.3v-5.135h-4.4a14.38,14.38,0,0,0-4.5.623,6.316,6.316,0,0,0-2.879,1.783,4.107,4.107,0,0,0-1,2.771,4.249,4.249,0,0,0,.645,2.3,4.506,4.506,0,0,0,1.826,1.633A5.984,5.984,0,0,0-159.672-1.848Zm18.605-29.863a1.735,1.735,0,0,1,1.3.494,1.709,1.709,0,0,1,.483,1.246,1.646,1.646,0,0,1-.483,1.214,1.756,1.756,0,0,1-1.3.483,1.728,1.728,0,0,1-1.278-.483,1.646,1.646,0,0,1-.483-1.214,1.709,1.709,0,0,1,.483-1.246A1.707,1.707,0,0,1-141.066-31.711ZM-142.355,0V-23.246h2.557V0Zm9.883,0V-33h2.557V0Zm10.721-11.473v.494a10.711,10.711,0,0,0,1.01,4.673,8.214,8.214,0,0,0,2.814,3.341A7.173,7.173,0,0,0-113.8-1.74a8.4,8.4,0,0,0,3.674-.763,7.8,7.8,0,0,0,2.836-2.417L-105.66-3.7a9.486,9.486,0,0,1-3.3,3A10.065,10.065,0,0,1-113.91.43a10.02,10.02,0,0,1-5.36-1.461,10.1,10.1,0,0,1-3.717-4.061,12.639,12.639,0,0,1-1.343-5.887V-11.9a13.43,13.43,0,0,1,1.364-6.166,10.34,10.34,0,0,1,3.652-4.146,9.029,9.029,0,0,1,4.952-1.461,8.91,8.91,0,0,1,4.963,1.354,8.491,8.491,0,0,1,3.158,3.76,13.42,13.42,0,0,1,1.074,5.521v1.568Zm7.391-10.012a6.485,6.485,0,0,0-3.491.967,7.358,7.358,0,0,0-2.546,2.739,10.785,10.785,0,0,0-1.246,4.114h13.9v-.279a9.627,9.627,0,0,0-.806-3.738,6.548,6.548,0,0,0-2.245-2.761A6.043,6.043,0,0,0-114.361-21.484ZM-82.457-33V0h-2.406l-.129-3.115a8.056,8.056,0,0,1-3,2.621A9.289,9.289,0,0,1-92.254.43a7.7,7.7,0,0,1-4.705-1.493,9.514,9.514,0,0,1-3.115-4.179,16.157,16.157,0,0,1-1.1-6.145v-.451a16.593,16.593,0,0,1,1.085-6.263,9.125,9.125,0,0,1,3.115-4.125,7.973,7.973,0,0,1,4.759-1.45,8.8,8.8,0,0,1,4.2.956A8.182,8.182,0,0,1-85.035-20V-33Zm-9.3,31.2a7.208,7.208,0,0,0,4.136-1.128,7.533,7.533,0,0,0,2.589-3.062V-16.951A8.019,8.019,0,0,0-87.506-20.2a6.692,6.692,0,0,0-4.211-1.246A5.9,5.9,0,0,0-95.541-20.2a7.352,7.352,0,0,0-2.3,3.405,15.025,15.025,0,0,0-.752,4.952v.451a15.05,15.05,0,0,0,.752,4.941A7.351,7.351,0,0,0-95.562-3.04,5.847,5.847,0,0,0-91.76-1.8ZM-55.752.086a6.606,6.606,0,0,1-1.214.247A12.2,12.2,0,0,1-58.5.43a4.92,4.92,0,0,1-3.738-1.4q-1.332-1.4-1.332-4.705V-21.141h-4.254v-2.105h4.254v-5.973h2.6v5.973h4.791v2.105h-4.791V-5.672a4.322,4.322,0,0,0,.806,3.04,2.976,2.976,0,0,0,2.2.806,12.785,12.785,0,0,0,2.105-.236Zm2.986-12.053A13.687,13.687,0,0,1-51.477-18a9.985,9.985,0,0,1,3.642-4.168,9.852,9.852,0,0,1,5.425-1.5,9.944,9.944,0,0,1,5.457,1.5A9.96,9.96,0,0,1-33.3-18a13.687,13.687,0,0,1,1.289,6.037v.688A13.687,13.687,0,0,1-33.3-5.242a10.011,10.011,0,0,1-3.631,4.168A9.837,9.837,0,0,1-42.367.43a9.944,9.944,0,0,1-5.457-1.5,9.96,9.96,0,0,1-3.652-4.168,13.687,13.687,0,0,1-1.289-6.037Zm2.578.688a12.176,12.176,0,0,0,.913,4.77,8.015,8.015,0,0,0,2.686,3.459,6.983,6.983,0,0,0,4.222,1.289,6.9,6.9,0,0,0,4.189-1.289A8.047,8.047,0,0,0-35.5-6.51a12.176,12.176,0,0,0,.913-4.77v-.687a11.941,11.941,0,0,0-.924-4.727,8.243,8.243,0,0,0-2.7-3.48,6.869,6.869,0,0,0-4.2-1.311A6.823,6.823,0,0,0-46.6-20.174a8.2,8.2,0,0,0-2.675,3.48,12.063,12.063,0,0,0-.913,4.727ZM-15.662,0V-33h2.557V0ZM-7.5-11.967A13.687,13.687,0,0,1-6.209-18a9.985,9.985,0,0,1,3.642-4.168,9.852,9.852,0,0,1,5.425-1.5,9.944,9.944,0,0,1,5.457,1.5A9.96,9.96,0,0,1,11.967-18a13.687,13.687,0,0,1,1.289,6.037v.688a13.687,13.687,0,0,1-1.289,6.037A10.011,10.011,0,0,1,8.336-1.074,9.837,9.837,0,0,1,2.9.43a9.944,9.944,0,0,1-5.457-1.5A9.96,9.96,0,0,1-6.209-5.242,13.687,13.687,0,0,1-7.5-11.279Zm2.578.688a12.176,12.176,0,0,0,.913,4.77A8.015,8.015,0,0,0-1.321-3.051,6.983,6.983,0,0,0,2.9-1.762,6.9,6.9,0,0,0,7.09-3.051,8.047,8.047,0,0,0,9.765-6.51a12.176,12.176,0,0,0,.913-4.77v-.687a11.941,11.941,0,0,0-.924-4.727,8.243,8.243,0,0,0-2.7-3.48,6.869,6.869,0,0,0-4.2-1.311,6.823,6.823,0,0,0-4.189,1.311,8.2,8.2,0,0,0-2.675,3.48,12.063,12.063,0,0,0-.913,4.727ZM35.3-4.877a17.906,17.906,0,0,0,.183,2.557,7.9,7.9,0,0,0,.526,2.041V0h-2.75a11.85,11.85,0,0,1-.516-3.244A9.544,9.544,0,0,1,29.466-.591,9.987,9.987,0,0,1,24.879.43a8.682,8.682,0,0,1-3.932-.849,6.373,6.373,0,0,1-2.632-2.353,6.3,6.3,0,0,1-.935-3.395,6.253,6.253,0,0,1,1.278-3.921,8.006,8.006,0,0,1,3.674-2.557,16.156,16.156,0,0,1,5.64-.892h4.748v-2.621A5.083,5.083,0,0,0,31.163-20.1a6.331,6.331,0,0,0-4.437-1.429,7.784,7.784,0,0,0-3.19.634A5.513,5.513,0,0,0,21.3-19.186a3.851,3.851,0,0,0-.806,2.363l-2.578-.021a5.588,5.588,0,0,1,1.139-3.319,8.08,8.08,0,0,1,3.18-2.546,10.61,10.61,0,0,1,4.6-.967,10.819,10.819,0,0,1,4.426.849,6.557,6.557,0,0,1,2.976,2.546A7.7,7.7,0,0,1,35.3-16.113ZM25.158-1.848a8.5,8.5,0,0,0,4.684-1.278,7.373,7.373,0,0,0,2.879-3.3v-5.135h-4.4a14.38,14.38,0,0,0-4.5.623,6.316,6.316,0,0,0-2.879,1.783,4.107,4.107,0,0,0-1,2.771,4.249,4.249,0,0,0,.645,2.3,4.506,4.506,0,0,0,1.826,1.633A5.984,5.984,0,0,0,25.158-1.848ZM59.855-33V0H57.449L57.32-3.115a8.056,8.056,0,0,1-3,2.621A9.289,9.289,0,0,1,50.059.43a7.7,7.7,0,0,1-4.705-1.493,9.514,9.514,0,0,1-3.115-4.179,16.157,16.157,0,0,1-1.1-6.145v-.451A16.592,16.592,0,0,1,42.228-18.1a9.125,9.125,0,0,1,3.115-4.125,7.973,7.973,0,0,1,4.759-1.45,8.8,8.8,0,0,1,4.2.956A8.182,8.182,0,0,1,57.277-20V-33Zm-9.3,31.2a7.208,7.208,0,0,0,4.136-1.128,7.533,7.533,0,0,0,2.589-3.062V-16.951A8.019,8.019,0,0,0,54.807-20.2,6.692,6.692,0,0,0,50.6-21.441,5.9,5.9,0,0,0,46.771-20.2a7.352,7.352,0,0,0-2.3,3.405,15.025,15.025,0,0,0-.752,4.952v.451a15.05,15.05,0,0,0,.752,4.941A7.351,7.351,0,0,0,46.75-3.04,5.847,5.847,0,0,0,50.553-1.8ZM78.934-31.711a1.735,1.735,0,0,1,1.3.494,1.709,1.709,0,0,1,.483,1.246,1.646,1.646,0,0,1-.483,1.214,1.756,1.756,0,0,1-1.3.483,1.728,1.728,0,0,1-1.278-.483,1.646,1.646,0,0,1-.483-1.214,1.709,1.709,0,0,1,.483-1.246A1.707,1.707,0,0,1,78.934-31.711ZM77.645,0V-23.246H80.2V0Zm34.439-23.676a7.4,7.4,0,0,1,5.672,2.063q1.934,2.063,1.934,6.467V0h-2.557V-15.168q0-3.459-1.45-4.877a5.671,5.671,0,0,0-4.136-1.418,6.8,6.8,0,0,0-3.577.913,6.734,6.734,0,0,0-2.353,2.31,6.654,6.654,0,0,0-.967,2.857V0h-2.578V-15.383q0-3.287-1.472-4.684a5.835,5.835,0,0,0-4.179-1.4,6.167,6.167,0,0,0-4.372,1.547,8.737,8.737,0,0,0-2.4,3.932V0H87.076V-23.246h2.492l.064,3.76a8.708,8.708,0,0,1,3.126-3.083,8.692,8.692,0,0,1,4.415-1.106,8.311,8.311,0,0,1,4.426,1.1,5.989,5.989,0,0,1,2.535,3.395,8.834,8.834,0,0,1,3.212-3.266A9.065,9.065,0,0,1,112.084-23.676Zm30.873,18.8a17.906,17.906,0,0,0,.183,2.557,7.9,7.9,0,0,0,.526,2.041V0h-2.75a11.849,11.849,0,0,1-.516-3.244,9.544,9.544,0,0,1-3.276,2.653A9.987,9.987,0,0,1,132.537.43a8.682,8.682,0,0,1-3.932-.849,6.373,6.373,0,0,1-2.632-2.353,6.3,6.3,0,0,1-.935-3.395,6.253,6.253,0,0,1,1.278-3.921,8.007,8.007,0,0,1,3.674-2.557,16.155,16.155,0,0,1,5.64-.892h4.748v-2.621a5.083,5.083,0,0,0-1.558-3.942,6.331,6.331,0,0,0-4.437-1.429,7.784,7.784,0,0,0-3.19.634,5.513,5.513,0,0,0-2.234,1.708,3.851,3.851,0,0,0-.806,2.363l-2.578-.021a5.588,5.588,0,0,1,1.139-3.319,8.08,8.08,0,0,1,3.18-2.546,10.61,10.61,0,0,1,4.6-.967,10.819,10.819,0,0,1,4.426.849,6.557,6.557,0,0,1,2.976,2.546,7.7,7.7,0,0,1,1.063,4.168ZM132.816-1.848A8.5,8.5,0,0,0,137.5-3.126a7.373,7.373,0,0,0,2.879-3.3v-5.135h-4.4a14.38,14.38,0,0,0-4.5.623,6.316,6.316,0,0,0-2.879,1.783,4.107,4.107,0,0,0-1,2.771,4.249,4.249,0,0,0,.645,2.3,4.506,4.506,0,0,0,1.826,1.633A5.984,5.984,0,0,0,132.816-1.848Zm34.7-21.4V-.408a11,11,0,0,1-1.149,5.178,7.947,7.947,0,0,1-3.255,3.352,10.034,10.034,0,0,1-4.92,1.16,10.65,10.65,0,0,1-4.522-1.031,8.855,8.855,0,0,1-3.577-2.943l1.439-1.568a9.206,9.206,0,0,0,2.986,2.535,7.683,7.683,0,0,0,3.523.816,6.584,6.584,0,0,0,5.092-1.955,7.743,7.743,0,0,0,1.8-5.457V-3.029a8.215,8.215,0,0,1-3.008,2.557,9.3,9.3,0,0,1-4.211.9,7.733,7.733,0,0,1-4.727-1.493,9.442,9.442,0,0,1-3.1-4.179,16.3,16.3,0,0,1-1.085-6.145v-.451a16.741,16.741,0,0,1,1.074-6.263,9.088,9.088,0,0,1,3.094-4.125,8,8,0,0,1,4.791-1.45,8.8,8.8,0,0,1,4.254.978,8.156,8.156,0,0,1,2.986,2.8l.107-3.352ZM158.211-1.8a7.136,7.136,0,0,0,4.168-1.149A7.485,7.485,0,0,0,164.936-6.1V-16.844a7.841,7.841,0,0,0-2.438-3.319,6.656,6.656,0,0,0-4.243-1.278A5.9,5.9,0,0,0,154.43-20.2a7.352,7.352,0,0,0-2.3,3.405,15.026,15.026,0,0,0-.752,4.952v.451a15.05,15.05,0,0,0,.752,4.941,7.351,7.351,0,0,0,2.277,3.405A5.847,5.847,0,0,0,158.211-1.8ZM175.4-11.473v.494a10.711,10.711,0,0,0,1.01,4.673,8.214,8.214,0,0,0,2.814,3.341,7.173,7.173,0,0,0,4.125,1.225,8.4,8.4,0,0,0,3.674-.763,7.8,7.8,0,0,0,2.836-2.417L191.49-3.7a9.486,9.486,0,0,1-3.3,3A10.065,10.065,0,0,1,183.24.43a10.02,10.02,0,0,1-5.36-1.461,10.1,10.1,0,0,1-3.717-4.061,12.639,12.639,0,0,1-1.343-5.887V-11.9a13.43,13.43,0,0,1,1.364-6.166,10.34,10.34,0,0,1,3.652-4.146,9.029,9.029,0,0,1,4.952-1.461,8.91,8.91,0,0,1,4.963,1.354,8.491,8.491,0,0,1,3.158,3.76,13.42,13.42,0,0,1,1.074,5.521v1.568Zm7.391-10.012a6.485,6.485,0,0,0-3.491.967,7.358,7.358,0,0,0-2.546,2.739,10.785,10.785,0,0,0-1.246,4.114h13.9v-.279a9.626,9.626,0,0,0-.806-3.738,6.548,6.548,0,0,0-2.245-2.761A6.043,6.043,0,0,0,182.789-21.484Z"
        transform="translate(500 629)"/>
</svg>
