<svg xmlns="http://www.w3.org/2000/svg" viewBox="0 0 7.289 17.228">
  <defs>
    <style>
      .cls-1{fill:#0080ff}
    </style>
  </defs>
  <path id="Path_590"
        d="M6.626-15.161a1.979 1.979 0 0 1-.612 1.488 2.025 2.025 0 0 1-1.454.59 2 2 0 0 1-1.466-.617 2 2 0 0 1-.612-1.466 1.987 1.987 0 0 1 .612-1.454 2 2 0 0 1 1.466-.612 1.987 1.987 0 0 1 1.454.612 1.987 1.987 0 0 1 .612 1.459zM8.142-2.718V0H.854v-2.718h1.8v-6.323h-1.8V-11.8H6.39v9.085z"
        class="cls-1" data-name="Path 590" transform="translate(-.854 17.228)"/>
</svg>
