<svg xmlns="http://www.w3.org/2000/svg" width="25" height="29" viewBox="0 0 25 29">
    <g fill="none" fill-rule="evenodd">
        <path d="M-19-16h64v64h-64z"/>
        <path fill="#D3FF00" d="M22.539 29h-10.63l-.499-4.058a1 1 0 0 0-1.058-.876l-5.377.355a1 1 0 0 1-1.062-.905l-.397-4.256a1 1 0 0 0-.995-.907H1.002a1 1 0 0 1-.897-1.442l2.896-5.878c0-3.793 1.05-6.593 3.148-8.4 3.149-2.712 10.832-4.017 15.688 0 4.855 4.015 2.505 11.469 1.115 13.89-.986 1.716-1.995 3.168-1.495 5.597.333 1.619.694 3.912 1.082 6.88zM10.296 9.536l6.943 3.238c1.12.522 2.458.026 2.987-1.108a2.268 2.268 0 0 0-.363-2.478c.273-.2.502-.469.655-.797a2.057 2.057 0 0 0-.99-2.735 2.037 2.037 0 0 0-1.026-.186 2.055 2.055 0 0 0-1.157-2.196 2.055 2.055 0 0 0-2.44.544 1.895 1.895 0 0 0-.788-.685c-1.027-.48-2.289.052-2.818 1.187a2.44 2.44 0 0 0-.23 1.148 2.06 2.06 0 0 0-2.09 1.18c-.4.855-.288 2.14 1.317 2.888z" opacity=".8"/>
    </g>
</svg>
