<svg xmlns="http://www.w3.org/2000/svg" width="66.47" height="10" viewBox="0 0 66.47 10">
    <path d="M21.56.17h3.72v9.66h-3.72V.17ZM17.05.3l-7.56,4.05c-.11.06-.24.06-.35,0L1.59.3c-.17-.09-.35-.13-.54-.13h0C.5.14.04.54,0,1.08v8.74h3.72v-4.16c.02-.21.21-.35.42-.33.05,0,.1.02.15.05l4.24,2.28c.43.22.93.23,1.36.01l4.47-2.3c.18-.1.41-.04.51.14.03.04.04.09.05.15v4.17h3.72V1.08c-.04-.54-.5-.94-1.03-.91h0c-.19,0-.37.05-.54.13ZM43.85.17h-3.78v4.4c-.02.2-.21.35-.41.33-.05,0-.09-.02-.14-.04L29.74.28c-.15-.07-.32-.11-.49-.11h0c-.54-.03-1,.37-1.04.91v8.74h3.75v-4.39c.02-.21.21-.35.41-.33.05,0,.09.02.13.04l9.82,4.58c.15.07.32.11.49.11.54.03,1-.37,1.04-.91V.17ZM46.78,9.83V.17h1.71v9.66h-1.71ZM58.57,10c-4.61,0-7.88-1.92-7.88-5,0-3.06,3.29-5,7.88-5s7.9,1.92,7.9,5-3.23,5-7.9,5h0ZM58.57,1.28c-3.43,0-6.07,1.31-6.07,3.72s2.64,3.72,6.07,3.72,6.09-1.3,6.09-3.72-2.66-3.72-6.09-3.72Z" fill="#c72c48" />
</svg>