<svg xmlns="http://www.w3.org/2000/svg" id="no-artifacts" width="200" height="160" viewBox="0 0 200 160">
    <path id="no-artifacts-files" stroke="rgba(0,0,0,0)" d="M-998.667-447.388a3.667 3.667 0 0 1-3.667-3.667v-9h-8.333a3.667 3.667 0 0 1-3.667-3.667v-8.667H-1023a3.667 3.667 0 0 1-3.667-3.667v-91.378A3.667 3.667 0 0 1-1023-571.1h69a3.667 3.667 0 0 1 3.667 3.667v8.666h8.667A3.667 3.667 0 0 1-938-555.1v9h8.333a3.667 3.667 0 0 1 3.667 3.666v91.379a3.667 3.667 0 0 1-3.667 3.667zm3.667-7.333h61.667v-84.046H-938v75.046a3.667 3.667 0 0 1-3.667 3.667H-995zm-12-12.667h61.667v-84.046h-5v75.379a3.667 3.667 0 0 1-3.667 3.667h-53zm-12.334-12.334h61.667v-69.887l-14.158-14.158h-47.509zm10.667-12.379a3.667 3.667 0 0 1-3.667-3.667 3.667 3.667 0 0 1 3.667-3.667h7.334a3.667 3.667 0 0 1 3.667 3.667 3.667 3.667 0 0 1-3.667 3.667zm0-13.333a3.667 3.667 0 0 1-3.667-3.667 3.667 3.667 0 0 1 3.667-3.667h34A3.667 3.667 0 0 1-971-509.1a3.667 3.667 0 0 1-3.667 3.667zm0-13.333a3.667 3.667 0 0 1-3.667-3.667 3.667 3.667 0 0 1 3.667-3.667H-988a3.667 3.667 0 0 1 3.667 3.667 3.667 3.667 0 0 1-3.667 3.667zm0-13.333a3.667 3.667 0 0 1-3.667-3.667 3.667 3.667 0 0 1 3.667-3.667h27.334a3.667 3.667 0 0 1 3.667 3.667 3.667 3.667 0 0 1-3.667 3.667zm0-13.333a3.667 3.667 0 0 1-3.667-3.667 3.667 3.667 0 0 1 3.667-3.667h14A3.667 3.667 0 0 1-991-549.1a3.667 3.667 0 0 1-3.667 3.667z" opacity="0.1" transform="translate(1076.333 590.2)"/>
    <path id="no-artifacts-area" fill="none" d="M0 0H200V160H0z"/>
</svg>
