<svg xmlns="http://www.w3.org/2000/svg" viewBox="0 0 300 242.15">
  <path fill="#5a658e"
  d="M20.82,242.15H279.18A20.84,20.84,0,0,0,300,221.33V20.82A20.84,20.84,0,0,0,279.18,0H20.82A20.84,20.84,0,0,0,0,20.82V221.33A20.84,20.84,0,0,0,20.82,242.15Zm258.36-10.72H20.82a10.2,10.2,0,0,1-10.11-10.1V68.88H289.29V221.63a9.93,9.93,0,0,1-10.06,9.8h-.05ZM20.82,11H279.18a10.2,10.2,0,0,1,10.11,10.1V58.18H10.71V20.82a9.93,9.93,0,0,1,10-9.82Zm9.79,27.24a5.67,5.67,0,0,1-1.53-3.68,5.65,5.65,0,0,1,1.53-3.67,6,6,0,0,1,7.66,0,5.65,5.65,0,0,1,1.53,3.67,5.22,5.22,0,0,1-5.21,5.21,6.42,6.42,0,0,1-4-1.5Zm28.77,0a5.67,5.67,0,0,1-1.53-3.68,5.65,5.65,0,0,1,1.53-3.67,6,6,0,0,1,7.66,0,5.65,5.65,0,0,1,1.53,3.67,5.22,5.22,0,0,1-5.2,5.21,7.28,7.28,0,0,1-4-1.5Zm29.08,0a5.67,5.67,0,0,1-1.53-3.68,5.65,5.65,0,0,1,1.53-3.67c1.85-1.84,5.52-1.84,7.66,0a5.65,5.65,0,0,1,1.53,3.67,5.22,5.22,0,0,1-5.2,5.21,6.59,6.59,0,0,1-4-1.5ZM208.87,146.8l-8.33,8.34-18.75,18.75-8.33-8.34,18.73-18.75L173.45,128l8.34-8.33,18.75,18.75Zm-90.68-27.08L99.45,138.47l-8.33,8.33,8.33,8.34,18.74,18.75,8.33-8.34L107.79,146.8,126.54,128Zm16.5,69,11.5,2.51,19.05-86.32-11.52-2.54Z"/>
</svg>
