<svg xmlns="http://www.w3.org/2000/svg" viewBox="0 0 300 251.22">
  <defs>
    <style>.cls-1{opacity:0.1;}</style>
  </defs>
  <title>no-debug</title>
  <g id="Layer_2" data-name="Layer 2">
    <g id="Layer_1-2" data-name="Layer 1">
      <path class="cls-1"
            d="M289.18,46.2h-34.8V11.4A11.36,11.36,0,0,0,243,0H11.4A11.56,11.56,0,0,0,0,11.4V194a11.36,11.36,0,0,0,11.4,11.4H45.88v34.48a11.34,11.34,0,0,0,11.39,11.39H288.56A11.35,11.35,0,0,0,300,239.83V57.58c.63-6.33-4.44-11.38-10.77-11.38Zm-31.32,61.7a18.35,18.35,0,1,1-18.35-18.36C249.63,89.22,257.86,97.45,257.86,107.9ZM46.2,57.58v125H23.1V23.1H231.29V46.2H57.58A11.34,11.34,0,0,0,46.2,57.58ZM69.29,228.76V208.82l63.28-72.77a13.52,13.52,0,0,1,20.56,0l44.62,51.26L218,164.84a12.1,12.1,0,0,1,18,0l41.45,45.55v18.36Z"/>
    </g>
  </g>
</svg>
