<svg xmlns="http://www.w3.org/2000/svg" viewBox="0 0 300 300">
<path
d="M24,272H276v4H24Z M276,197H250V103h24V97H250V40h-4V98.43l-52.42,33.9L166,100.58V40h-4v63.21L134.44,152H106V40h-4V152H82.62L52,77.41V40H48V75H24v6H47l1,2.46V152H24v6H48v91h4V158H78.59L102,215v34h4V214.56L138,158H162v91h4V157.3l26.46-17.11L246,201.84V249h4V203h26ZM52,152V93.21L76.13,152Zm33.08,6H102v41.23ZM106,202.36V158h25.05ZM141.33,152,162,115.41V152ZM166,150.16V109.73l22.49,25.89Zm31.55-13.26L246,105.57v87.12Z M40,24H60v4H40Z M86,24h35v4H86Z M156,24h14v4H156Z M258,24v4H238V24Z" fill="#e5e5e5"/>
  </svg>
