<svg xmlns="http://www.w3.org/2000/svg" width="185.598" height="155.423" viewBox="0 0 185.598 155.423">
  <defs>
    <style>
      .cls-1{fill:#fff;opacity:.702}
    </style>
  </defs>
  <g id="Group_459" data-name="Group 459" transform="translate(-921.578 -417.391)">
    <path id="Path_252"
          d="M1100.482 445.972h-21.532v-21.531a7.023 7.023 0 0 0-7.049-7.05H928.628a7.147 7.147 0 0 0-7.05 7.05v112.941a7.023 7.023 0 0 0 7.05 7.05h21.332v21.332a7.022 7.022 0 0 0 7.05 7.05h143.09a7.022 7.022 0 0 0 7.05-7.05l-.007-112.751a6.474 6.474 0 0 0-6.66-7.042zm-19.376 38.17a11.355 11.355 0 1 1-11.354-11.355 11.119 11.119 0 0 1 11.355 11.355zm-130.947-31.127v77.318h-14.29v-98.65h128.8v14.291H957.2a7.01 7.01 0 0 0-7.042 7.042zm14.283 105.9v-12.333l39.149-45.02a8.36 8.36 0 0 1 12.723 0l27.6 31.708 12.524-13.9a7.483 7.483 0 0 1 11.156 0l25.647 28.183v11.355z"
          class="cls-1" data-name="Path 252"/>
  </g>
</svg>
