<svg xmlns="http://www.w3.org/2000/svg" width="300" height="251.22" viewBox="0 0 300 251.22">
	<path opacity="0.1" d="M72.18,137.43a5.39,5.39,0,0,1-1.45,4.32,1.17,1.17,0,0,1-.6.34,1.12,1.12,0,0,1-1.31-.88,1.1,1.1,0,0,1,.28-1,3.21,3.21,0,0,0,.89-2.36c-.22-1.09-1.66-1.73-1.68-1.74a1.12,1.12,0,0,1,.85-2.07C69.27,134.11,71.73,135.14,72.18,137.43ZM45.7,136.17a1.37,1.37,0,0,0-1.06,1.61l2.17,10.67a1.37,1.37,0,0,0,1.61,1.06l4-.82L49.7,135.36Zm30.87.39c-.91-4.54-5.23-7.07-5.41-7.18A1.12,1.12,0,0,0,70,131.32s3.63,2.13,4.34,5.68-1.8,7-1.82,7a1.12,1.12,0,0,0,1.11,1.76,1.13,1.13,0,0,0,.68-.43C74.48,145.16,77.47,141.1,76.57,136.56ZM73,124.6a1.13,1.13,0,0,0-1.5.51A1.12,1.12,0,0,0,72,126.6a12.69,12.69,0,0,1,2.91,2.24,13.94,13.94,0,0,1,3.88,7.28,14.27,14.27,0,0,1-.78,8.27,13.33,13.33,0,0,1-1.83,3.22,1.09,1.09,0,0,0-.25.95,1.11,1.11,0,0,0,1.31.87,1,1,0,0,0,.63-.36A16.5,16.5,0,0,0,81,135.69,16.22,16.22,0,0,0,73,124.6Zm-9.28,1a1.36,1.36,0,0,0-1.61-1.06,1.4,1.4,0,0,0-.71.4L51.71,135l2.7,13.24,12.82,5.52a1.36,1.36,0,0,0,1.79-.7,1.41,1.41,0,0,0,.09-.81Zm197.19,9.13-3.77,21.62-8.28-8.4-.47,2.7a4.13,4.13,0,0,1-4.76,3.35l-25.67-4.48a4.13,4.13,0,0,1-3.35-4.76l2.36-13.51a3.59,3.59,0,0,1,.08-.35,6.17,6.17,0,1,1,10-3.71,6.12,6.12,0,0,1-.5,1.55l4.49.79a6,6,0,0,1,.06-1.63A6.17,6.17,0,0,1,243.22,130a6.52,6.52,0,0,1-.49,1.55l4.63.81a4,4,0,0,1,3.35,4.76l-.48,2.7Zm-36.12-8.56a3.7,3.7,0,0,0-3.71-3.87,3.79,3.79,0,1,0,3.71,3.87Zm16.29,3a3.7,3.7,0,0,0-3.72-3.86,3.79,3.79,0,1,0,3.72,3.86Zm52.8-20.56-13.76,78.06a17.2,17.2,0,0,1-19.92,13.94l-78.05-13.77a17,17,0,0,1-11.1-7.06,17.44,17.44,0,0,1-1-1.69H130a17.44,17.44,0,0,1-1,1.69,17,17,0,0,1-11.1,7.06l-78,13.77a17.2,17.2,0,0,1-19.92-13.94L6.16,108.56a17.2,17.2,0,0,1,14-19.92L94.29,75.56A17.2,17.2,0,0,1,110.37,64.4h79.26a17.2,17.2,0,0,1,16.08,11.16l74.18,13.08a17.2,17.2,0,0,1,13.95,19.92ZM119.84,178h-9.47a17.21,17.21,0,0,1-17.19-17.19V83.52L21.43,96.17a9.55,9.55,0,0,0-7.74,11.06l13.76,78.06A9.57,9.57,0,0,0,38.51,193l78.06-13.77A9.5,9.5,0,0,0,119.84,178Zm69.79-7.64a9.56,9.56,0,0,0,9.55-9.55V81.59A9.56,9.56,0,0,0,189.63,72H110.37a9.56,9.56,0,0,0-9.55,9.55v79.26a9.56,9.56,0,0,0,9.55,9.55Zm95.1-70.3a9.47,9.47,0,0,0-6.16-3.93L206.82,83.52v77.33A17.21,17.21,0,0,1,189.63,178h-9.47a9.5,9.5,0,0,0,3.27,1.23L261.49,193a9.57,9.57,0,0,0,11.06-7.75l13.76-78.06A9.41,9.41,0,0,0,284.73,100.1Zm-108.14.08a3,3,0,0,1,.73,2.34l-.13,37.6a3.33,3.33,0,0,1-3.34,3.32h0l-47.8-.16a3.37,3.37,0,0,1-3.35-3.37l.2-37.68A3.33,3.33,0,0,1,125,99.14l.18-.08h49.06A3.33,3.33,0,0,1,176.59,100.18ZM160,111.76a3.8,3.8,0,0,0,7.59,0A3.72,3.72,0,0,0,163.8,108,3.79,3.79,0,0,0,160,111.76ZM171.55,133,163,123.54a1.7,1.7,0,0,0-.19-.19,2.49,2.49,0,0,0-3.53.18l-4.2,4.63-9.19-10.63a3,3,0,0,0-.31-.31,2.79,2.79,0,0,0-3.94.3l-13.13,15,0,4.13,43,.14Z"/>
</svg>
