<svg xmlns="http://www.w3.org/2000/svg" width="300" height="244" viewBox="0 0 300 244">
  <path d="M20.82,243.07H279.18c11.49-.01,20.81-9.33,20.82-20.82V21.74c-.01-11.49-9.33-20.81-20.82-20.82H20.82C9.33,.94,.01,10.25,0,21.74V222.25c.01,11.49,9.33,20.81,20.82,20.82Zm258.36-10.72H20.82c-5.56-.05-10.06-4.54-10.11-10.1V69.8H289.29V222.55c-.07,5.48-4.57,9.87-10.06,9.8h-.05ZM20.82,11.92H279.18c5.56,.05,10.06,4.54,10.11,10.1V59.1H10.71V21.74c.06-5.48,4.55-9.88,10.04-9.82h.07Zm9.79,27.24c-.94-1-1.48-2.31-1.53-3.68,.05-1.37,.59-2.67,1.53-3.67,2.22-1.84,5.44-1.84,7.66,0,.94,1,1.48,2.3,1.53,3.67,0,2.88-2.33,5.2-5.21,5.21-1.46-.03-2.86-.56-3.98-1.5v-.03Zm28.77,0c-.94-1-1.48-2.31-1.53-3.68,.05-1.37,.59-2.67,1.53-3.67,2.22-1.84,5.44-1.84,7.66,0,.94,1,1.48,2.3,1.53,3.67,0,2.87-2.33,5.2-5.2,5.21-1.45-.09-2.84-.61-3.99-1.5v-.03Zm29.08,0c-.94-1-1.48-2.31-1.53-3.68,.05-1.37,.59-2.67,1.53-3.67,1.85-1.84,5.52-1.84,7.66,0,.94,1,1.48,2.3,1.53,3.67,0,2.87-2.33,5.2-5.2,5.21-1.46-.04-2.87-.57-3.99-1.5v-.03Zm175.12,60.34c.01,3.03-2.44,5.5-5.47,5.51-.02,0-.03,0-.05,0H41.64c-3.04-.18-5.35-2.79-5.17-5.83,.17-2.78,2.39-5,5.17-5.17h216.42c3.07,.28,5.52,2.43,5.52,5.49ZM36.42,134.08c0-3.04,2.45-5.5,5.49-5.51,.01,0,.02,0,.03,0H201.43c3.04-.26,5.71,1.99,5.97,5.03,.26,3.04-1.99,5.71-5.03,5.97-.31,.03-.63,.03-.94,0H41.64c-2.95-.12-5.26-2.57-5.21-5.52v.03Zm227.15,34.91c.01,3.03-2.44,5.5-5.47,5.51-.02,0-.03,0-.05,0H41.64c-3.04,.18-5.65-2.13-5.83-5.17-.18-3.04,2.13-5.65,5.17-5.83,.22-.01,.44-.01,.66,0h216.42c3.03-.02,5.5,2.43,5.52,5.46v.03h0Zm-108.07,34.59c.01,3.04-2.44,5.51-5.48,5.52-.01,0-.02,0-.03,0H41.64c-3.04,.18-5.65-2.13-5.83-5.17-.18-3.04,2.13-5.65,5.17-5.83,.22-.01,.44-.01,.66,0h108.36c3.03-.01,5.5,2.44,5.51,5.47h0Z" fill="#5a658e"/>
</svg>