<svg xmlns="http://www.w3.org/2000/svg" viewBox="0 0 300 242.15">
  <defs>
    <style>.cls-1{opacity:0.1;}</style>
  </defs>
  <title>no-log</title>
  <g id="Layer_2" data-name="Layer 2">
    <g id="Layer_1-2" data-name="Layer 1">
      <path class="cls-1"
            d="M20.82,242.15H279.18A20.84,20.84,0,0,0,300,221.33V20.82A20.84,20.84,0,0,0,279.18,0H20.82A20.84,20.84,0,0,0,0,20.82V221.33A20.84,20.84,0,0,0,20.82,242.15Zm258.36-10.72H20.82a10.2,10.2,0,0,1-10.11-10.1V68.88H289.29V221.63a9.93,9.93,0,0,1-10.11,9.8ZM20.82,11H279.18a10.2,10.2,0,0,1,10.11,10.1V58.18H10.71V20.82A9.93,9.93,0,0,1,20.82,11Zm9.79,27.24a5.69,5.69,0,0,1-1.53-3.68,5.64,5.64,0,0,1,1.53-3.67,6,6,0,0,1,7.66,0,5.64,5.64,0,0,1,1.53,3.67,5.22,5.22,0,0,1-5.21,5.21A6.43,6.43,0,0,1,30.61,38.27Zm28.77,0a5.69,5.69,0,0,1-1.53-3.68,5.64,5.64,0,0,1,1.53-3.67,6,6,0,0,1,7.66,0,5.64,5.64,0,0,1,1.53,3.67,5.22,5.22,0,0,1-5.2,5.21A7.25,7.25,0,0,1,59.38,38.27Zm29.08,0a5.69,5.69,0,0,1-1.53-3.68,5.64,5.64,0,0,1,1.53-3.67c1.85-1.84,5.52-1.84,7.66,0a5.64,5.64,0,0,1,1.53,3.67,5.22,5.22,0,0,1-5.2,5.21A6.5,6.5,0,0,1,88.46,38.27ZM263.58,98.58a5.49,5.49,0,0,1-5.52,5.51H41.64a5.51,5.51,0,0,1,0-11H258.06C261.13,93.37,263.58,95.52,263.58,98.58ZM36.42,133.16a5.5,5.5,0,0,1,5.52-5.51H201.43a5.52,5.52,0,1,1,0,11H41.64a5.44,5.44,0,0,1-5.21-5.52Zm227.16,34.91a5.49,5.49,0,0,1-5.52,5.51H41.64a5.51,5.51,0,1,1,0-11H258.06A5.49,5.49,0,0,1,263.58,168.07ZM155.51,202.66a5.5,5.5,0,0,1-5.51,5.52l-108.36,0a5.51,5.51,0,1,1,0-11H150A5.49,5.49,0,0,1,155.51,202.66Z"/>
    </g>
  </g>
</svg>
