<svg xmlns="http://www.w3.org/2000/svg" width="300" height="280" viewBox="0 0 300 280">
  <path d="M292.17,261.38h-72.46V12.69h72.46v248.69ZM197.39,104.8H124.93v156.58h72.46V104.8Zm-95.66,73.68H29.28v82.89H101.73v-82.89ZM0,270.6v8.44H300v-8.44H0Zm10.72-18.63H0v9.46H10.72v-9.46Zm0-27.93H0v9.46H10.72v-9.46Zm0-27.88H0v9.46H10.72v-9.46Zm0-27.88H0v9.46H10.72v-9.46Zm0-27.89H0v9.46H10.72v-9.46Zm0-27.89H0v9.47H10.72v-9.47Zm0-27.88H0v9.47H10.72v-9.47Zm0-27.88H0v9.46H10.72v-9.46Zm0-27.88H0v9.46H10.72v-9.46ZM10.72,.96H0V10.42H10.72V.96Z" fill="#5a658e"/>
</svg>