<svg xmlns="http://www.w3.org/2000/svg" viewBox="0 0 300 278.07">
  <defs>
    <style>.cls-1{opacity:0.1;}</style>
  </defs>
  <title>no-plots</title>
  <g id="Layer_2" data-name="Layer 2">
    <g id="Layer_1-2" data-name="Layer 1">
      <g class="cls-1">
        <path d="M219.71,11.73h72.46V260.42H219.71Z"/>
        <path d="M124.93,103.84h72.46V260.42H124.93Z"/>
        <path d="M29.28,177.52h72.45v82.89H29.28Z"/>
        <path d="M0,269.63H300v8.44H0Z"/>
        <path d="M0,251H10.72v9.46H0Z"/>
        <path d="M0,223.07H10.72v9.46H0Z"/>
        <path d="M0,195.19H10.72v9.46H0Z"/>
        <path d="M0,167.31H10.72v9.46H0Z"/>
        <path d="M0,139.42H10.72v9.46H0Z"/>
        <path d="M0,111.53H10.72V121H0Z"/>
        <path d="M0,83.65H10.72v9.47H0Z"/>
        <path d="M0,55.77H10.72v9.46H0Z"/>
        <path d="M0,27.89H10.72v9.46H0Z"/>
        <path d="M0,0H10.72V9.46H0Z"/>
      </g>
    </g>
  </g>
</svg>
