<svg xmlns="http://www.w3.org/2000/svg" viewBox="0 0 300 216.46">
  <defs>
    <style>.cls-1{opacity:0.1;}</style>
  </defs>
  <title>no-scalar</title>
  <g id="Layer_2" data-name="Layer 2">
    <g id="Layer_1-2" data-name="Layer 1">
      <g class="cls-1">
        <path
          d="M276.08,0A25.16,25.16,0,0,0,251,25.09a26.31,26.31,0,0,0,4.38,14.44L203.93,84.08c-8.16-3.14-17.57-3.14-24.47,2.51L126.75,47.06a28.59,28.59,0,0,0,3.14-12.55,25.09,25.09,0,1,0-50.18,0c0,6.9,2.5,13.17,7.52,17.56L32,101.65C16.32,97.88.62,107.29,0,126.12a25.1,25.1,0,0,0,50.19,0c0-6.91-2.51-13.18-7.53-17.57L96.62,59a27.14,27.14,0,0,0,20.08-2.51l52.71,40.15c-1.88,3.15-10,32.63,22.59,36.39a25.16,25.16,0,0,0,25.09-25.09,25.5,25.5,0,0,0-5-15.06L263.51,49c3.15,1.89,6.91,2.51,11.3,2.51a25.17,25.17,0,0,0,25.09-25.1C301.17,11.29,289.88,0,276.08,0Zm-251,139.29a12.55,12.55,0,1,1,12.56-12.55A12.2,12.2,0,0,1,25.09,139.29Zm79.06-91.61A12.55,12.55,0,1,1,116.7,35.13,12.2,12.2,0,0,1,104.15,47.68Zm89.11,72.15a12.55,12.55,0,1,1,12.55-12.55A12.59,12.59,0,0,1,193.26,119.83Zm82.82-81.56a12.56,12.56,0,1,1,12.55-12.55A12.58,12.58,0,0,1,276.08,38.27Z"/>
        <path
          d="M25.09,165.65a5.92,5.92,0,0,0-6.27,6.27v37.64a5.92,5.92,0,0,0,6.27,6.27,5.92,5.92,0,0,0,6.27-6.27V171.92A5.91,5.91,0,0,0,25.09,165.65Z"/>
        <path
          d="M192.62,165.65a5.92,5.92,0,0,0-6.27,6.27v37.64a6.27,6.27,0,1,0,12.54,0V171.92A6.27,6.27,0,0,0,192.62,165.65Z"/>
        <path
          d="M67.14,112.94a5.93,5.93,0,0,0-6.27,6.27v90.35a5.92,5.92,0,0,0,6.27,6.27,5.92,5.92,0,0,0,6.27-6.27V119.21A6.74,6.74,0,0,0,67.14,112.94Z"/>
        <path
          d="M150.59,112.94a5.92,5.92,0,0,0-6.27,6.27v90.35a6.27,6.27,0,0,0,12.54,0V119.21A6.28,6.28,0,0,0,150.59,112.94Z"/>
        <path
          d="M108.55,82.19a5.92,5.92,0,0,0-6.27,6.27V210.19a6.27,6.27,0,0,0,12.54,0V88.47a5.92,5.92,0,0,0-6.27-6.28Z"/>
        <path
          d="M234,112.94a5.93,5.93,0,0,0-6.27,6.27v90.35a6.27,6.27,0,0,0,12.54,0V119.21A6.28,6.28,0,0,0,234,112.94Z"/>
        <path
          d="M276.08,82.19a5.92,5.92,0,0,0-6.27,6.27V210.19a6.27,6.27,0,0,0,12.54,0V88.47a6.29,6.29,0,0,0-6.27-6.28Z"/>
      </g>
    </g>
  </g>
</svg>
