<svg xmlns="http://www.w3.org/2000/svg" width="300" height="242" viewBox="0 0 300 242">
  <path d="m279.18,0H20.82C9.33.01.01,9.33,0,20.82v200.01c.01,11.49,9.33,20.81,20.82,20.82h258.36c11.49-.01,20.81-9.33,20.82-20.82V20.82C299.99,9.33,290.67.01,279.18,0ZM103.29,230.93v-26.35h89.77v26.35h-89.77Zm0-37.35v-26.55h89.77v26.55h-89.77Zm-11-139.21v26.55H10.71v-26.55h81.58Zm111.77,26.55v-26.55h85.23v14.51h0v12.04h-85.23Zm85.23,11v26.55h-85.23v-26.55h85.23Zm-96.23-37.55v9.62s0,0,0,.01c0,0,0,0,0,0v16.91h-89.77v-26.55h89.77Zm0,37.55v26.55h-89.77v-26.55h89.77Zm-100.77,26.55H10.71v-26.55h81.58v26.55Zm-81.58,11h81.58v26.55H10.71v-26.55Zm92.58,0h89.77v26.55h-89.77v-26.55Zm100.77,0h85.23v26.55h-85.23v-26.55ZM10.71,167.03h81.58v26.55H10.71v-26.55Zm193.35,0h85.23v26.55h-85.23v-26.55ZM10.71,220.83v-16.25h81.58v26.35H20.82c-5.56-.05-10.06-4.54-10.11-10.1Zm268.52,10.1s-.03,0-.05,0h0s-75.12,0-75.12,0v-26.35h85.23v16.55c-.07,5.48-4.57,9.87-10.06,9.8Z" opacity="0.1" />
</svg>