<svg xmlns="http://www.w3.org/2000/svg" viewBox="0 0 16.088 16"><defs><style>.a{fill:#2a2f42;}</style></defs><g transform="translate(-1204 -423)"><path class="a" d="M25.656,28.439a.376.376,0,0,0-.35.35v5.42H12.367V21.532h5.508a.35.35,0,1,0,0-.7H12.017a.376.376,0,0,0-.349.35V34.559a.376.376,0,0,0,.35.35H25.657a.376.376,0,0,0,.35-.35v-5.77A.322.322,0,0,0,25.656,28.439Z" transform="translate(1192.332 404.091)"/><path class="a" d="M45.018,11.668H39.16a.35.35,0,0,0,0,.7h4.984L34.089,22.422a.328.328,0,0,0,0,.525.436.436,0,0,0,.525,0l10.055-9.967v4.984a.35.35,0,0,0,.7,0V12.1A.4.4,0,0,0,45.018,11.668Z" transform="translate(1174.719 411.332)"/></g></svg>