<svg xmlns="http://www.w3.org/2000/svg" width="11.25" height="15" viewBox="0 0 11.25 15">
    <defs>
        <style>
            .cls-1{fill:#7480aa}
        </style>
    </defs>
    <path id="status-pending" d="M10.781-11.719h.119a.352.352 0 0 0 .352-.352v-.7a.352.352 0 0 0-.352-.352H.352a.352.352 0 0 0-.352.35v.7a.352.352 0 0 0 .352.352h.117a7.261 7.261 0 0 0 2.847 6.096A7.263 7.263 0 0 0 .469.469H.352A.352.352 0 0 0 0 .82v.7a.352.352 0 0 0 .352.352H10.9a.352.352 0 0 0 .352-.352v-.7A.352.352 0 0 0 10.9.469h-.117a7.261 7.261 0 0 0-2.849-6.094 7.263 7.263 0 0 0 2.847-6.094zm-8.906 0h7.5c0 2.977-1.679 5.391-3.75 5.391s-3.75-2.414-3.75-5.391zM9.375.469h-7.5c0-2.977 1.679-5.391 3.75-5.391s3.75 2.414 3.75 5.391z" class="cls-1" transform="translate(0 13.125)"/>
</svg>
