<svg xmlns="http://www.w3.org/2000/svg" width="20.502" height="15.958" viewBox="0 0 20.502 15.958">
    <g>
        <path fill="#5a658e" d="M18 7v8a2 2 0 0 1-2 2H4a2 2 0 0 1-2-2V5a2 2 0 0 1 2-2h3c2 0 2 2 4 2h5a2 2 0 0 1 2 2z" transform="translate(-1137 -635) translate(1135 632)"/>
        <g fill="#d3ff00">
            <path d="M7.91 11.458h-.001c-.266 0-.517-.115-.708-.325l-.005-.005-.004-.005-.984-1.14-.122-.14v-2.17l-2.4-2.668-.022-.024-.019-.028c-.212-.31-.247-.654-.094-.943.176-.335.567-.51.862-.51H10.5c.295 0 .685.175.862.51.152.289.118.633-.095.943l-.018.028-.023.024-2.4 2.668v2.848c.005.247-.087.48-.259.658-.173.178-.412.28-.658.28z" transform="translate(-1137 -635) translate(1145.544 639)"/>
            <path fill="#5a658e" d="M4.413 4c-.2 0-.66.225-.355.671l2.528 2.81v2.176l.984 1.14c.104.113.225.161.339.161.225 0 .425-.187.418-.431V7.48l2.528-2.81C11.16 4.225 10.7 4 10.5 4H4.413m0-1H10.5c.445 0 1.021.24 1.304.777.242.458.197.99-.124 1.459l-.038.055-.044.049-2.271 2.525v2.652c.006.38-.136.738-.401 1.01-.267.274-.637.431-1.017.431-.408 0-.791-.173-1.078-.489l-.009-.01-.008-.01-.985-1.139-.243-.281V7.865L3.315 5.34l-.045-.05-.037-.054c-.321-.469-.366-1-.125-1.46C3.391 3.24 3.968 3 4.413 3z" transform="translate(-1137 -635) translate(1145.544 639)"/>
        </g>
    </g>
</svg>
