<svg xmlns="http://www.w3.org/2000/svg" width="20" height="20" viewBox="0 0 20 20">
    <path fill="#8492C2" fill-rule="nonzero" d="M16.19 17h-5.164v-3.99h2.004c.396 0 .63-.664.396-.988L10.39 8.005a.483.483 0 0 0-.787 0L6.57 12.022c-.234.324-.005.988.396.988h2.017V17H4.239C1.88 16.87 0 15.459 0 13.066c0-1.65.895-3.09 2.22-3.867a3.004 3.004 0 0 1-.184-1.048c0-1.686.993-3.508 3.491-3.508.364 0 .715.063 1.043.184.975-2.068 3.502-3.275 5.862-2.672 2.36.604 3.228 2.488 3.758 5.146 2.432.418 3.81 1.67 3.81 4.22 0 2.726-1.121 5.29-3.81 5.479z"/>
</svg>
