<svg xmlns="http://www.w3.org/2000/svg" viewBox="0 0 17.5 12.25">
    <defs>
        <style>
            .cls-1{fill:#d3ff00}
        </style>
    </defs>
    <path id="status-published" d="M14.867-6.779a3.061 3.061 0 0 0-3.054-2.846 3.043 3.043 0 0 0-.613.063 4.806 4.806 0 0 0-3.762-1.813 4.815 4.815 0 0 0-4.712 3.823A4.374 4.374 0 0 0 0-3.5 4.374 4.374 0 0 0 4.375.875h9.187A3.939 3.939 0 0 0 17.5-3.062a3.939 3.939 0 0 0-2.633-3.717zm-1.3 6.341H4.375A3.061 3.061 0 0 1 1.312-3.5a3.065 3.065 0 0 1 2.625-3.032v-.03a3.5 3.5 0 0 1 3.5-3.5 3.5 3.5 0 0 1 3.238 2.171 1.74 1.74 0 0 1 1.137-.421 1.752 1.752 0 0 1 1.75 1.75 1.741 1.741 0 0 1-.241.886 2.355 2.355 0 0 1 .241-.011 2.626 2.626 0 0 1 2.625 2.625 2.626 2.626 0 0 1-2.625 2.625z" class="cls-1" transform="translate(0 11.375)"/>
</svg>
