<svg xmlns="http://www.w3.org/2000/svg" width="100" height="100" viewBox="0 0 100 100">
    <path fill="#2A2F42" fill-rule="nonzero" d="M80.952 85h-25.82V60.014H65.15c1.978 0 3.147-2.247 1.978-3.864L51.956 36.317a2.419 2.419 0 0 0-3.934 0L32.85 56.15c-1.17 1.617-.023 3.864 1.978 3.864h10.086V85H21.196C9.396 84.348 0 78.318 0 66.366c0-8.245 4.473-15.434 11.104-19.32a14.997 14.997 0 0 1-.922-5.235c0-8.424 4.964-17.526 17.453-17.526 1.82 0 3.574.315 5.215.921C37.727 14.872 50.362 8.847 62.16 11.86c11.798 3.012 16.14 12.425 18.792 25.705C93.112 39.655 100 45.91 100 58.648 100 72.262 94.393 84.056 80.952 85z"/>
</svg>
