<svg xmlns="http://www.w3.org/2000/svg" width="64" height="64" viewBox="0 0 64 64">
  <rect width="64" height="64" fill="none"/>
  <circle cx="31.55" cy="39.56" r="1.39" fill="#8592c1"/>
  <path d="M31.4,44c-3.34,0-6.17-2.25-7.77-6.18a9.89,9.89,0,0,1,.77-8.53l.77-1,.11,1.27a4.23,4.23,0,0,0,1.84,3.11.73.73,0,0,0,.38.08A10.07,10.07,0,0,1,27.16,26,10.52,10.52,0,0,1,32,20.35l.73-.35,0,.81a12.42,12.42,0,0,0,1,6.05,30,30,0,0,0,2,3.29c.18.28.37.54.54.8a6.19,6.19,0,0,1,.9,5.23,6.55,6.55,0,0,1-1.06,1.94,4.44,4.44,0,0,1-2,1.49l-.33-.93a4.65,4.65,0,0,0,2.41-2.82,5.16,5.16,0,0,0-.79-4.37l-.54-.79a31,31,0,0,1-2.1-3.4,12.25,12.25,0,0,1-1.1-5.63,9.85,9.85,0,0,0-3.56,4.66,9,9,0,0,0,.51,6.45l.19.38-.34.25a1.7,1.7,0,0,1-1.75.15A4.61,4.61,0,0,1,24.62,31a9.18,9.18,0,0,0-.07,6.47C26,41,28.48,43,31.4,43s5.63-2,7.06-5.49a9.8,9.8,0,0,0,.27-5.87,14.56,14.56,0,0,0-1.95-4,3.27,3.27,0,0,1-.94,1.3l-.55-.82a3.89,3.89,0,0,0,.88-1.68l.24-1.18.66,1a17.84,17.84,0,0,1,2.61,5.1,10.8,10.8,0,0,1-.3,6.53,10.94,10.94,0,0,1-3.17,4.34A7.64,7.64,0,0,1,31.4,44Z" fill="#8592c1"/>
</svg>
