<svg xmlns="http://www.w3.org/2000/svg" width="100" height="100" viewBox="0 0 100 100">
    <g fill="#2A2F42" fill-rule="evenodd">
        <circle cx="50" cy="83" r="8"/>
        <path d="M24 30.685c0-3.437 1.098-6.92 3.294-10.447 2.196-3.528 5.4-6.45 9.612-8.765C41.118 9.158 46.032 8 51.648 8c5.22 0 9.828.968 13.824 2.903 3.996 1.936 7.083 4.568 9.261 7.897C76.911 22.128 78 25.746 78 29.654c0 3.075-.621 5.77-1.863 8.086-1.242 2.316-2.718 4.315-4.428 5.997-1.71 1.682-4.779 4.514-9.207 8.493-1.224 1.122-2.205 2.108-2.943 2.958-.738.85-1.287 1.628-1.647 2.334-.36.705-.639 1.41-.837 2.116-.198.706-.495 1.945-.891 3.718C55.5 67.119 53.358 69 49.758 69c-1.872 0-3.447-.615-4.725-1.845-1.278-1.23-1.917-3.057-1.917-5.482 0-3.039.468-5.67 1.404-7.896.936-2.225 2.178-4.179 3.726-5.861 1.548-1.682 3.636-3.681 6.264-5.997 2.304-2.026 3.969-3.555 4.995-4.586a15.56 15.56 0 0 0 2.592-3.446 8.368 8.368 0 0 0 1.053-4.125c0-2.894-1.071-5.336-3.213-7.326-2.142-1.99-4.905-2.985-8.289-2.985-3.96 0-6.876 1.004-8.748 3.012-1.872 2.008-3.456 4.966-4.752 8.873-1.224 4.089-3.546 6.133-6.966 6.133-2.016 0-3.717-.715-5.103-2.144C24.693 33.896 24 32.35 24 30.685z"/>
    </g>
</svg>
