<svg xmlns="http://www.w3.org/2000/svg" width="13" height="13" viewBox="0 0 13 13">
  <path id="np_vector-path-square_1158609_000000"
        d="M17.567,7.6A.434.434,0,0,0,18,7.167V5.433A.426.426,0,0,0,17.567,5H15.833a.426.426,0,0,0-.433.433v.433H7.6V5.433A.426.426,0,0,0,7.167,5H5.433A.426.426,0,0,0,5,5.433V7.167a.434.434,0,0,0,.433.433h.433v7.8H5.433A.426.426,0,0,0,5,15.833v1.733A.434.434,0,0,0,5.433,18H7.167a.434.434,0,0,0,.433-.433v-.433h7.8v.433a.434.434,0,0,0,.433.433h1.733A.434.434,0,0,0,18,17.567V15.833a.426.426,0,0,0-.433-.433h-.433V7.6Zm-1.3,7.8h-.433a.426.426,0,0,0-.433.433v.433H7.6v-.433a.426.426,0,0,0-.433-.433H6.733V7.6h.433A.434.434,0,0,0,7.6,7.167V6.733h7.8v.433a.434.434,0,0,0,.433.433h.433Z"
        transform="translate(-5 -5)" fill="#8f9dc9"/>
</svg>
