<svg xmlns="http://www.w3.org/2000/svg" width="85" height="36"><defs><clipPath id="a"><path data-name="mask layer" d="M0 0h85v36H4a4 4 0 0 1-4-4V0Z" transform="translate(1 858.045)" fill="#fff"/></clipPath></defs><g data-name="Mask Group 2" transform="translate(-1 -858.045)" clip-path="url(#a)"><g fill="#d4d6e0"><path d="M29 891.955s.8-1.494 5.308-1.047 3.087.994 8.9.577 2.936-9.52 8.849-9.52 3.364 7.022 8.961 9.52 9.411.308 13.428.47c4.087.164 4.461.357 11.266 2.091H29Z" opacity=".243"/><path data-name="rocket-smoke-1" d="M1 888.886s1.1-3.685 7.3-2.582 4.246 2.453 12.24 1.423 4.328-23.682 12.461-23.682 4.338 17.52 12.038 23.682 12.945.761 18.471 1.159c5.621.405 6.137.88 15.5 5.159H1Z"/><path data-name="rocket-smoke-1" d="M2.999 888.951s8.757-9.81 13.824-9.81 8.815 4.431 13.615 8.958 8.065.559 11.508.852c3.5.3 3.823.646 9.655 3.789H2.999Z" opacity=".257"/></g></g></svg>