<svg xmlns="http://www.w3.org/2000/svg" width="13.12" height="15" viewBox="0 0 13.12 15">
  <path d="m8.57,13.04c.16.16.24.36.24.59s-.08.43-.24.59-.37.24-.64.24-.48-.08-.64-.24-.24-.36-.24-.59.08-.43.24-.59.37-.24.64-.24.48.08.64.24Zm.2-6.03h-1.68l.19,5.06h1.3l.19-5.06Zm4.16-.22c-.12-.21-.3-.38-.51-.51L2.12.19C1.46-.21.6,0,.2.67c-.13.22-.2.48-.2.74v12.19c0,.77.62,1.4,1.39,1.41.26,0,.51-.07.73-.2l3.88-2.29v-1.63l-4.33,2.56c-.09.05-.19.02-.24-.07-.02-.03-.02-.06-.02-.09V1.71c0-.1.08-.18.18-.18.03,0,.06,0,.09.02l9.79,5.79c.08.05.11.16.06.24-.01.02-.03.04-.06.06l-1.46.87v1.63l2.43-1.44c.67-.39.89-1.25.51-1.91Z" fill="#50e3c3"/>
</svg>