<svg xmlns="http://www.w3.org/2000/svg" width="24" height="24" viewBox="0 0 24 24">
    <path fill="#8492C2" fill-rule="nonzero" d="M20.71 8.953l-.409-.989c1.4-3.228 1.307-3.324 1.036-3.604l-1.789-1.783-.177-.153h-.207c-.11 0-.436 0-3.154 1.258l-1-.411C13.717 0 13.584 0 13.205 0h-2.522c-.378 0-.525 0-1.724 3.283l-.997.412c-1.836-.791-2.914-1.192-3.205-1.192l-.238.008-1.923 1.924c-.292.28-.394.379 1.086 3.557l-.407.986C0 10.27 0 10.395 0 10.79v2.524c0 .396 0 .536 3.286 1.737l.407.984c-1.4 3.226-1.306 3.323-1.034 3.6l1.788 1.786.178.156h.208c.108 0 .43 0 3.152-1.261l.999.414C10.277 24 10.41 24 10.789 24h2.523c.386 0 .523 0 1.726-3.281l1-.413c1.836.791 2.91 1.193 3.2 1.193l.24-.007 1.938-1.936c.275-.284.372-.382-1.1-3.547l.405-.987C24 13.73 24 13.594 24 13.207v-2.521c0-.397 0-.536-3.29-1.733zM12 16.2a4.204 4.204 0 0 1-4.198-4.201A4.203 4.203 0 0 1 12 7.801a4.2 4.2 0 0 1 0 8.398z" opacity=".8"/>
</svg>
