<svg xmlns="http://www.w3.org/2000/svg" width="21" height="21" viewBox="0 0 21 21">
    <path fill="#D3FF00" fill-rule="nonzero" d="M18.121 7.834l-.357-.865c1.225-2.825 1.143-2.91.905-3.154l-1.564-1.56-.155-.134h-.182c-.095 0-.38 0-2.76 1.101l-.875-.36C12.003 0 11.886 0 11.555 0H9.348c-.331 0-.46 0-1.51 2.872l-.87.361C5.36 2.541 4.417 2.19 4.162 2.19l-.209.007L2.271 3.88c-.255.245-.344.331.95 3.112l-.356.863C0 8.986 0 9.096 0 9.44v2.209c0 .346 0 .469 2.875 1.52l.356.86c-1.224 2.824-1.142 2.908-.904 3.151l1.565 1.562.155.137h.182c.094 0 .376 0 2.758-1.104l.874.363C8.992 21.001 9.109 21 9.44 21h2.207c.338 0 .458 0 1.51-2.871l.876-.362c1.605.693 2.546 1.045 2.799 1.045l.21-.006 1.696-1.694c.24-.249.325-.335-.962-3.104l.353-.863C21 12.013 21 11.895 21 11.556V9.35c0-.347 0-.469-2.879-1.516zm-7.622 6.34a3.679 3.679 0 0 1-3.672-3.676A3.677 3.677 0 0 1 10.5 6.826a3.674 3.674 0 0 1 0 7.348z" opacity=".8"/>
</svg>
