<svg xmlns="http://www.w3.org/2000/svg" viewBox="0 0 26 26.004">
  <defs>
    <style>
      .cls-1 {
        fill: #636e97;
        fill-rule: evenodd;
      }
    </style>
  </defs>
  <path id="np_settings_1215011_000000" class="cls-1" d="M17.509,5.992a.614.614,0,0,0-.157.028l-3.416.914a.561.561,0,0,0-.2.1.6.6,0,0,0-.157.166.606.606,0,0,0-.074.222.559.559,0,0,0,.018.231l.776,2.9a9.626,9.626,0,0,0-2.234,1.717l-2.6-1.5a.583.583,0,0,0-.212-.074.6.6,0,0,0-.434.12.616.616,0,0,0-.157.175L6.891,14.043a.606.606,0,0,0-.074.222.6.6,0,0,0,.009.231.561.561,0,0,0,.1.2.6.6,0,0,0,.175.148l2.6,1.5a9.642,9.642,0,0,0-.369,2.788l-2.9.785a.6.6,0,0,0-.212.1.55.55,0,0,0-.148.166A.628.628,0,0,0,6,20.414a.559.559,0,0,0,.018.231l.914,3.416a.561.561,0,0,0,.1.2.616.616,0,0,0,.175.157.562.562,0,0,0,.212.074.625.625,0,0,0,.231-.018l2.9-.776a9.553,9.553,0,0,0,1.717,2.225l-1.5,2.6a.606.606,0,0,0-.074.222.6.6,0,0,0,.12.434.566.566,0,0,0,.166.148l3.065,1.773a.583.583,0,0,0,.452.055.561.561,0,0,0,.2-.1.616.616,0,0,0,.157-.175l1.5-2.594a9.592,9.592,0,0,0,2.788.369l.776,2.9a.561.561,0,0,0,.1.2.616.616,0,0,0,.175.157.583.583,0,0,0,.452.055l3.416-.914a.561.561,0,0,0,.2-.1.584.584,0,0,0,.148-.175.555.555,0,0,0,.074-.212.6.6,0,0,0-.009-.231l-.785-2.9a9.57,9.57,0,0,0,2.234-1.717l2.6,1.5a.606.606,0,0,0,.222.074.625.625,0,0,0,.231-.018.561.561,0,0,0,.2-.1.633.633,0,0,0,.157-.175l1.764-3.056a.628.628,0,0,0,.074-.222.6.6,0,0,0-.12-.434.6.6,0,0,0-.166-.157l-2.6-1.5a9.5,9.5,0,0,0,.36-2.77l2.908-.794a.59.59,0,0,0,.2-.1.616.616,0,0,0,.157-.175A.583.583,0,0,0,32,17.579a.559.559,0,0,0-.018-.231l-.914-3.416a.561.561,0,0,0-.1-.2.616.616,0,0,0-.175-.157.628.628,0,0,0-.222-.074.559.559,0,0,0-.231.018l-2.9.776a9.609,9.609,0,0,0-1.708-2.234l1.5-2.6a.583.583,0,0,0,.074-.212.56.56,0,0,0-.286-.591L23.953,6.888a.606.606,0,0,0-.222-.074.6.6,0,0,0-.231.009.561.561,0,0,0-.2.1.616.616,0,0,0-.157.175l-1.5,2.6a9.659,9.659,0,0,0-2.8-.369l-.776-2.9a.586.586,0,0,0-.2-.314.612.612,0,0,0-.36-.129Zm1.5,7.035a5.966,5.966,0,1,1-5.189,2.982,5.943,5.943,0,0,1,5.189-2.982Z" transform="translate(-6 -5.992)"/>
</svg>
