<svg xmlns="http://www.w3.org/2000/svg" viewBox="0 0 24 24">
  <path d="M5.06,15.17c0,1.39-1.13,2.52-2.52,2.52S.02,16.56,.02,15.17s1.13-2.52,2.52-2.52h2.52v2.52Zm1.26,0c0-1.39,1.13-2.52,2.52-2.52s2.52,1.13,2.52,2.52v6.3c0,1.39-1.13,2.52-2.52,2.52s-2.52-1.13-2.52-2.52v-6.3Z" fill="#e01e5a"/>
  <path d="M8.84,5.05c-1.39,0-2.52-1.13-2.52-2.52S7.45,0,8.84,0s2.52,1.13,2.52,2.52v2.52h-2.52Zm0,1.28c1.39,0,2.52,1.13,2.52,2.52s-1.13,2.52-2.52,2.52H2.52c-1.39,0-2.52-1.13-2.52-2.52s1.13-2.52,2.52-2.52h6.32Z" fill="#36c5f0"/>
  <path d="M18.94,8.85c0-1.39,1.13-2.52,2.52-2.52s2.52,1.13,2.52,2.52-1.13,2.52-2.52,2.52h-2.52v-2.52Zm-1.26,0c0,1.39-1.13,2.52-2.52,2.52s-2.52-1.13-2.52-2.52V2.53c0-1.39,1.13-2.52,2.52-2.52s2.52,1.13,2.52,2.52c0,0,0,6.32,0,6.32Z" fill="#2eb67d"/>
  <path d="M15.16,18.95c1.39,0,2.52,1.13,2.52,2.52s-1.13,2.52-2.52,2.52-2.52-1.13-2.52-2.52v-2.52h2.52Zm0-1.26c-1.39,0-2.52-1.13-2.52-2.52s1.13-2.52,2.52-2.52h6.32c1.39,0,2.52,1.13,2.52,2.52s-1.13,2.52-2.52,2.52h-6.32Z" fill="#ecb22e"/>
</svg>