<svg xmlns="http://www.w3.org/2000/svg" width="16" height="16" viewBox="0 0 16 16">
    <g fill="none" fill-rule="evenodd">
        <path d="M0 0h16v16H0z"/>
        <path fill="#C3CDF0" d="M8.193 12.83l-2.028-2.592c-.198-.253-.221-.697-.051-.992.09-.156.22-.246.358-.246h4.056c.26 0 .472.315.472.704 0 .205-.06.4-.165.534l-2.028 2.593c-.177.225-.437.225-.614 0z"/>
        <path fill="#A7B2D8" d="M8.807 2.17l2.028 2.592c.198.253.221.697.051.992-.09.156-.22.246-.358.246H6.472C6.212 6 6 5.685 6 5.296c0-.205.06-.4.165-.534l2.028-2.593c.177-.225.437-.225.614 0z" opacity=".5"/>
    </g>
</svg>
