<svg class="lds-spinner" width="46px"  height="46px"  viewBox="24 24 52 52" xmlns="http://www.w3.org/2000/svg" xmlns:xlink="http://www.w3.org/1999/xlink" preserveAspectRatio="xMidYMid" style="background: none;"><g transform="rotate(0 50 50)">
  <rect x="47" y="24" rx="9.4" ry="4.8" width="6" height="12" fill="#8492c2">
    <animate attributeName="opacity" values="1;0" keyTimes="0;1" dur="1.8s" begin="-1.6500000000000001s" repeatCount="indefinite"></animate>
  </rect>
</g><g transform="rotate(30 50 50)">
  <rect x="47" y="24" rx="9.4" ry="4.8" width="6" height="12" fill="#8492c2">
    <animate attributeName="opacity" values="1;0" keyTimes="0;1" dur="1.8s" begin="-1.5s" repeatCount="indefinite"></animate>
  </rect>
</g><g transform="rotate(60 50 50)">
  <rect x="47" y="24" rx="9.4" ry="4.8" width="6" height="12" fill="#8492c2">
    <animate attributeName="opacity" values="1;0" keyTimes="0;1" dur="1.8s" begin="-1.3499999999999999s" repeatCount="indefinite"></animate>
  </rect>
</g><g transform="rotate(90 50 50)">
  <rect x="47" y="24" rx="9.4" ry="4.8" width="6" height="12" fill="#8492c2">
    <animate attributeName="opacity" values="1;0" keyTimes="0;1" dur="1.8s" begin="-1.2s" repeatCount="indefinite"></animate>
  </rect>
</g><g transform="rotate(120 50 50)">
  <rect x="47" y="24" rx="9.4" ry="4.8" width="6" height="12" fill="#8492c2">
    <animate attributeName="opacity" values="1;0" keyTimes="0;1" dur="1.8s" begin="-1.05s" repeatCount="indefinite"></animate>
  </rect>
</g><g transform="rotate(150 50 50)">
  <rect x="47" y="24" rx="9.4" ry="4.8" width="6" height="12" fill="#8492c2">
    <animate attributeName="opacity" values="1;0" keyTimes="0;1" dur="1.8s" begin="-0.9s" repeatCount="indefinite"></animate>
  </rect>
</g><g transform="rotate(180 50 50)">
  <rect x="47" y="24" rx="9.4" ry="4.8" width="6" height="12" fill="#8492c2">
    <animate attributeName="opacity" values="1;0" keyTimes="0;1" dur="1.8s" begin="-0.75s" repeatCount="indefinite"></animate>
  </rect>
</g><g transform="rotate(210 50 50)">
  <rect x="47" y="24" rx="9.4" ry="4.8" width="6" height="12" fill="#8492c2">
    <animate attributeName="opacity" values="1;0" keyTimes="0;1" dur="1.8s" begin="-0.6s" repeatCount="indefinite"></animate>
  </rect>
</g><g transform="rotate(240 50 50)">
  <rect x="47" y="24" rx="9.4" ry="4.8" width="6" height="12" fill="#8492c2">
    <animate attributeName="opacity" values="1;0" keyTimes="0;1" dur="1.8s" begin="-0.45s" repeatCount="indefinite"></animate>
  </rect>
</g><g transform="rotate(270 50 50)">
  <rect x="47" y="24" rx="9.4" ry="4.8" width="6" height="12" fill="#8492c2">
    <animate attributeName="opacity" values="1;0" keyTimes="0;1" dur="1.8s" begin="-0.3s" repeatCount="indefinite"></animate>
  </rect>
</g><g transform="rotate(300 50 50)">
  <rect x="47" y="24" rx="9.4" ry="4.8" width="6" height="12" fill="#8492c2">
    <animate attributeName="opacity" values="1;0" keyTimes="0;1" dur="1.8s" begin="-0.15s" repeatCount="indefinite"></animate>
  </rect>
</g><g transform="rotate(330 50 50)">
  <rect x="47" y="24" rx="9.4" ry="4.8" width="6" height="12" fill="#8492c2">
    <animate attributeName="opacity" values="1;0" keyTimes="0;1" dur="1.8s" begin="0s" repeatCount="indefinite"></animate>
  </rect>
</g></svg>
