<svg xmlns="http://www.w3.org/2000/svg" width="12" height="12" viewBox="0 0 19 13">
  <defs>
    <style>.a{fill:#1f73e5;}</style>
  </defs>
  <path class="a"
        d="M11.719-12.187H1.406A1.407,1.407,0,0,0,0-10.781V-.469A1.407,1.407,0,0,0,1.406.937H11.719A1.407,1.407,0,0,0,13.125-.469V-10.781A1.407,1.407,0,0,0,11.719-12.187ZM11.543-.469H1.582a.176.176,0,0,1-.176-.176v-9.961a.176.176,0,0,1,.176-.176h9.961a.176.176,0,0,1,.176.176V-.645A.176.176,0,0,1,11.543-.469Z"
        transform="translate(3 12.188)"/>
</svg>
