<svg xmlns="http://www.w3.org/2000/svg" viewBox="0 0 17.891 13.75">
  <defs>
    <style>
      .cls-1{fill:#00e309}
    </style>
  </defs>
  <path id="Path_591"
        d="M17.031-14.258a.422.422 0 0 1 .312-.117.571.571 0 0 1 .352.117l1.094 1.133a.371.371 0 0 1 .156.313.486.486 0 0 1-.156.352L7.07-.742a.422.422 0 0 1-.312.117.571.571 0 0 1-.352-.117l-5.2-5.234a.371.371 0 0 1-.156-.312.486.486 0 0 1 .156-.352L2.3-7.734a.486.486 0 0 1 .352-.156.371.371 0 0 1 .312.156l3.794 3.789z"
        class="cls-1" data-name="Path 591" transform="translate(-1.055 14.375)"/>
</svg>
