<svg xmlns="http://www.w3.org/2000/svg" width="140" height="18" viewBox="0 0 140 18">
    <g transform="translate(99)">
        <path data-name="tag" d="M3.961-1H34l7 9-7 9H3.961A3.981 3.981 0 0 1 0 13V3a3.981 3.981 0 0 1 3.961-4z" transform="translate(0 1)" style="fill:#384161"/>
        <rect width="23" height="6" rx="3" transform="translate(6 6)" style="fill:#515985"/>
    </g>
    <g data-name="Tag" transform="translate(51)">
        <path data-name="tag" d="M3.961-1H35l7 9-7 9H3.961A3.981 3.981 0 0 1 0 13V3a3.981 3.981 0 0 1 3.961-4z" transform="translate(0 1)" style="fill:#384161"/>
        <rect data-name="tag-txt" width="24" height="6" rx="3" transform="translate(6 6)" style="fill:#515985"/>
    </g>
    <g data-name="Tag">
        <path data-name="tag" d="M3.961-1H38l7 9-7 9H3.961A3.981 3.981 0 0 1 0 13V3a3.981 3.981 0 0 1 3.961-4z" transform="translate(0 1)" style="fill:#384161"/>
        <rect data-name="tag-txt" width="27" height="6" rx="3" transform="translate(6 6)" style="fill:#515985"/>
    </g>
</svg>
