<svg xmlns="http://www.w3.org/2000/svg" viewBox="0 0 81.271 90"><defs><style>.a{fill:#5A658E;}.b{fill:#fff;}</style></defs><g transform="translate(-919 -311)"><path class="a" d="M71.146,43.1V15.511L55.635,0H0V89.721H51.734A21.436,21.436,0,0,0,55.17,90,26.211,26.211,0,0,0,71.146,43.1Z" transform="translate(919 311)"/><path class="a" d="M5.7,85.012V5.6H50.189V21.761H66.35V40.337a25.647,25.647,0,0,0-10.681-2.322A26.341,26.341,0,0,0,29.477,64.207a25.774,25.774,0,0,0,10.31,20.712H5.7Z" transform="translate(918.594 310.601)"/><path class="b" d="M15.2,26.7H39.534v5.666H15.2Z" transform="translate(917.918 309.099)"/><path class="b" d="M15,73.7H26.7v5.666H15Z" transform="translate(917.932 305.752)"/><path class="b" d="M15,58.1H26.517v5.573H15Z" transform="translate(917.932 306.863)"/><path class="b" d="M15.1,43.2H32.468v5.294H15.1Z" transform="translate(917.925 307.924)"/><path class="b" d="M58.1,4.9,70.639,17.439H58.1Z" transform="translate(914.863 310.651)"/><circle class="b" cx="21.269" cy="21.269" r="21.269" transform="translate(952.994 353.632)"/><path class="a" d="M66.5,60.352,55.816,71.033l-5.108-5.108a2.3,2.3,0,0,0-3.158,0A2.175,2.175,0,0,0,46.9,67.5a2.423,2.423,0,0,0,.65,1.579l6.687,6.687a2.175,2.175,0,0,0,1.579.65,2.037,2.037,0,0,0,1.579-.65l12.26-12.26a2.175,2.175,0,0,0,.65-1.579,2.423,2.423,0,0,0-.65-1.579,2.3,2.3,0,0,0-3.158,0Z" transform="translate(915.66 306.747)"/></g></svg>
