<svg xmlns="http://www.w3.org/2000/svg" width="20" height="20" viewBox="0 0 20 20">
    <g fill="none" fill-rule="evenodd">
        <path fill="#8492C2" fill-rule="nonzero" d="M16.19 17H4.24C1.88 16.87 0 15.664 0 13.273c0-1.649.895-3.087 2.22-3.864a3 3 0 0 1-.184-1.047c0-1.685.993-3.505 3.491-3.505.364 0 .715.063 1.043.184.975-2.067 3.502-3.272 5.862-2.67 2.36.603 3.228 2.486 3.758 5.142C18.622 7.931 20 9.182 20 11.73c0 2.722-1.121 5.081-3.81 5.27zM9.96 9.774L7.84 7.653a1 1 0 1 0-1.414 1.414l2.12 2.121-2.12 2.121a1 1 0 0 0 1.414 1.415l2.121-2.122 1.883 1.883a1 1 0 0 0 1.414-1.414l-1.883-1.883 2.122-2.121a1 1 0 0 0-1.415-1.414l-2.12 2.12z"/>
    </g>
</svg>
