<svg xmlns="http://www.w3.org/2000/svg" viewBox="0 0 4.564 17.993">
  <defs>
    <style>
      .cls-1{fill:#ffa301}
    </style>
  </defs>
  <path id="Path_589"
        d="M5.237-5.627H1.9l-.521-12.146h4.383zm-3.98 3.784a1.894 1.894 0 0 1 .653-1.483 2.365 2.365 0 0 1 1.63-.58 2.365 2.365 0 0 1 1.63.58 1.894 1.894 0 0 1 .653 1.483A1.894 1.894 0 0 1 5.17-.36a2.365 2.365 0 0 1-1.63.58 2.365 2.365 0 0 1-1.63-.58 1.894 1.894 0 0 1-.653-1.483z"
        class="cls-1" data-name="Path 589" transform="translate(-1.258 17.773)"/>
</svg>
