<svg xmlns="http://www.w3.org/2000/svg" width="64" height="64" viewBox="0 0 64 64">
  <circle cx="47.43" cy="34.51" r="1.5" fill="#4d66ff" opacity="0.56"/>
  <circle cx="45.15" cy="30.22" r="2.5" fill="#4d66ff" opacity="0.58"/>
  <circle cx="48.87" cy="25.9" r="1.5" fill="#4d66ff" opacity="0.91"/>
  <path d="M7.91,60.5a1,1,0,0,1-1-1c0-10.68,6.45-20.2,16.07-23.71,1.78-.66,3.43.72,4.87,1.92,1,.87,2.12,1.77,3,1.77s1.94-.9,3-1.77c1.45-1.2,3.08-2.58,4.87-1.92A22.83,22.83,0,0,1,43.18,38a1,1,0,0,1,.31,1.38h0a1,1,0,0,1-1.38.31h0a13.94,13.94,0,0,0-3.35-1.6l-7,12.41a1,1,0,0,1-1.74,0L22.87,38A23.06,23.06,0,0,0,8.93,58.5H40.41a1,1,0,0,1,0,2ZM30.84,48l5.53-9.75c-.41.29-.84.65-1.26,1-1.32,1.1-2.67,2.23-4.27,2.23s-3-1.13-4.27-2.23c-.42-.35-.85-.71-1.26-1ZM20.46,23.06A8.61,8.61,0,0,0,19.77,22c-2.41-2.5-1.22-5.05-.36-6.59-2.1-.6-2.11-2.44-2.11-3.52,0-.34,0-1.23,2.63-3.12C22.36,7,27.33,4.37,30.64,5.49a3.17,3.17,0,0,0,3.68-.72,2,2,0,0,1,1.34-.69c.44,0,1.79,0,6,4.31a1.72,1.72,0,0,1,.23.32l1.34,2.71a1,1,0,0,1,0,.89,9.11,9.11,0,0,1-1.49,2.19c1.25,1.59,2.44,5.25.77,7l-.33.31L42,22c-.08,7-6.3,13.45-11.13,13.45-5.8,0-10.31-6.62-10.38-12.38ZM30.84,33.44c3.5,0,8.07-4.63,9-9.82a2,2,0,0,1-1,.28H33.86a2,2,0,0,1-2-2h0V20.5H30.15v1.36a2,2,0,0,1-2,2H23.17a2,2,0,0,1-.67-.13c.42,5.43,4.73,9.67,8.34,9.67Zm2-14.8v3.23a1,1,0,0,0,1,1h4.93a1,1,0,0,0,1-1V19.51a1,1,0,0,0-1-1H33a.17.17,0,0,0-.16.17Zm-10.68.87v2.36l0,.14a3,3,0,0,1,.23.52,1,1,0,0,0,.78.37h4.93a1,1,0,0,0,1-1h0V18.64a.17.17,0,0,0-.16-.17H23.18a1,1,0,0,0-1,1ZM21.34,16c-1,1.68-1.54,3-.2,4.46v-1a2,2,0,0,1,2-2H29a1.18,1.18,0,0,1,1.16,1.17v.87h1.67v-.87A1.16,1.16,0,0,1,33,17.47h5.81a2.06,2.06,0,0,1,2,2v.82l0,0,.19-.17a2.29,2.29,0,0,0,.19-1.81A5.88,5.88,0,0,0,40,15.55a2.07,2.07,0,0,1-.35,0c-1.44,0-4.42,0-6-1.65a3.89,3.89,0,0,0-3.29-1.06c-.23,0-.25.06-.29.14a2.93,2.93,0,0,1-1.36,1.5l-1.5.76a2.84,2.84,0,0,1-1.3.32H21.6l-.26.45ZM35,12.52c1,1,3.17,1.06,4.39,1.06a1.6,1.6,0,0,1,.48-.11,5.8,5.8,0,0,0,1.3-1.62l-1-2.11C37.7,7.22,36.33,6.31,35.8,6.12l-.16.15A5.15,5.15,0,0,1,30,7.39C26.74,6.29,20,10.66,19.3,12c0,1.25.05,1.6,1.67,1.6h4.89a1,1,0,0,0,.39-.1l1.5-.76a.94.94,0,0,0,.43-.49,2.2,2.2,0,0,1,2.13-1.37A5.81,5.81,0,0,1,35,12.52Z" fill="#5a658e"/>
  <path d="M54.48,47.1V40.68h.72a1,1,0,0,0,1-1v-1.6a1,1,0,0,0-1-1H46.66a1,1,0,0,0-1,1v1.6a1,1,0,0,0,1,1h.73v6.37l0,.09C44.81,49.33,42.7,53.31,42.7,56a3.81,3.81,0,0,0,3.07,3.83,40.51,40.51,0,0,0,10.32,0A3.8,3.8,0,0,0,59.16,56c0-2.67-2.15-6.71-4.68-8.87M48.8,48.53a.93.93,0,0,0,.28-.37l.22-.49a1,1,0,0,0,.09-.4V40.68h3.09v6.58a1.64,1.64,0,0,0,0,.23l.09.39a1.05,1.05,0,0,0,.36.56,12.08,12.08,0,0,1,2.61,3.09A9.76,9.76,0,0,0,51,52.92c-1.55,1-2.18.8-3.72.35-.48-.14-1-.29-1.7-.43a13.19,13.19,0,0,1,3.2-4.31m6.72,9.36a17.45,17.45,0,0,1-4.5.37h-.17a17.52,17.52,0,0,1-4.51-.37C45.18,57.54,44.7,57,44.7,56a5.34,5.34,0,0,1,.2-1.24c.71.14,1.31.31,1.85.46a8.15,8.15,0,0,0,2.3.44,5.68,5.68,0,0,0,3.05-1,8.16,8.16,0,0,1,4-1.13l.41,0A6.87,6.87,0,0,1,57.16,56c0,1-.47,1.57-1.64,1.91" fill="#4d66ff"/>
</svg>
