<svg xmlns="http://www.w3.org/2000/svg" xmlns:xlink="http://www.w3.org/1999/xlink" viewBox="0 0 26.93 26.93">
  <defs>
    <style>
      .a{fill:none;}.b{clip-path:url(#a);}.c{fill:#32394F;}.d{clip-path:url(#b);}.neon{fill:#D3FF00;}.e{clip-path:url(#c);}.f{clip-path:url(#d);}}
    </style>
    <clipPath id="a">
      <rect class="a" x="1.46" y="1.46" width="2.18" height="2.18"/>
    </clipPath>
    <clipPath id="b">
      <rect class="a" x="23.28" y="1.46" width="2.18" height="2.18"/>
    </clipPath>
    <clipPath id="c">
      <rect class="a" x="1.46" y="23.28" width="2.18" height="2.18"/>
    </clipPath>
    <clipPath id="d">
      <rect class="a" x="23.28" y="23.28" width="2.18" height="2.18"/>
    </clipPath>
  </defs>
  <title>sidebar-annotator-icon</title>
  <g class="b">
    <path class="neon" d="M0,5.11H5.11V0H0Z"/>
  </g>
  <g class="d">
    <path class="neon" d="M21.82,5.11h5.11V0H21.82Z"/>
  </g>
  <path class="a" d="M2.55,2.55H24.37V24.37H2.55Z"/>
  <path class="neon" d="M3.55,3.55V23.37H23.37V3.55H3.55m-1-1H24.37V24.37H2.55Z"/>
  <g class="e">
    <path class="neon" d="M0,26.93H5.11V21.82H0Z"/>
  </g>
  <g class="f">
    <path class="neon" d="M21.82,26.93h5.11V21.82H21.82Z"/>
  </g>
  <path class="c"
        d="M21.39,8.38l-1.9-.77a1.61,1.61,0,0,0-1.18-1.25l-.1-1.19a.42.42,0,0,0-.29-.36.41.41,0,0,0-.45.12l-.5.54-.3-1.06a.41.41,0,0,0-.39-.31.42.42,0,0,0-.42.28l-2.62,7.25A7.65,7.65,0,0,0,8.68,15a6.37,6.37,0,0,0-.81,4.87,3.83,3.83,0,0,0,1.15,2H8.65a4.36,4.36,0,0,1-4-2.48.42.42,0,0,0-.56-.2h0a.42.42,0,0,0-.2.57,5.2,5.2,0,0,0,4.7,3h8.12a.42.42,0,0,0,.43-.42,2,2,0,0,0-1.72-1.86,3.26,3.26,0,0,0,.36-1.81l.12,0L18.4,22.5a.44.44,0,0,0,.36.19H20.3a.43.43,0,0,0,.38-.22.42.42,0,0,0,0-.43s-1.61-2.57-2.47-4V10.88l.39,0A3.39,3.39,0,0,0,21.6,9l0-.05A.42.42,0,0,0,21.39,8.38Z"/>
</svg>
