<svg xmlns="http://www.w3.org/2000/svg" viewBox="0 0 89.305 77.266">
  <defs>
    <style>
      .cls-1 {
        fill: #323950;
      }

      .cls-2 {
        fill: #d3ff02;
      }
    </style>
  </defs>
  <g id="Group_162" data-name="Group 162" transform="translate(-924.836 -250.87)">
    <path id="np_filter_1007040_000000" class="cls-1" d="M4.356,0,33.064,47.028v17.03l12.2,12.2V47.028L73.973,0Z" transform="translate(920.48 250.87)"/>
    <g id="np_add_1907791_000000" transform="translate(970.29 284.303)">
      <path id="Path_131" data-name="Path 131" class="cls-1" d="M49.519,44.472V28.446c0-.739.008-1.477,0-2.214V26.2A2.195,2.195,0,0,0,48.9,24.7a2.119,2.119,0,0,0-2.987,0A2.188,2.188,0,0,0,45.3,26.2V42.224c0,.739-.008,1.477,0,2.214v.034a2.195,2.195,0,0,0,.616,1.494,2.119,2.119,0,0,0,2.987,0A2.215,2.215,0,0,0,49.519,44.472Z" transform="translate(-23.051 -11.013)"/>
      <path id="Path_132" data-name="Path 132" class="cls-1" d="M44.53,45.229H28.5c-.739,0-1.477-.008-2.214,0h-.034a2.195,2.195,0,0,0-1.494.616,2.119,2.119,0,0,0,0,2.987,2.188,2.188,0,0,0,1.494.616H42.282c.739,0,1.477.008,2.214,0h.034a2.195,2.195,0,0,0,1.494-.616,2.119,2.119,0,0,0,0-2.987A2.173,2.173,0,0,0,44.53,45.229Z" transform="translate(-11.038 -23.019)"/>
      <path id="Path_133" data-name="Path 133" class="cls-2" d="M39.626,24.27a18.193,18.193,0,0,1-.155,2.346c.025-.186.051-.375.076-.56a17.6,17.6,0,0,1-1.212,4.438c.071-.169.143-.338.211-.5a17.58,17.58,0,0,1-2.27,3.882c.11-.143.219-.284.329-.425a17.735,17.735,0,0,1-3.161,3.161c.143-.11.284-.219.425-.329a17.83,17.83,0,0,1-3.882,2.27c.169-.071.338-.143.5-.211a17.642,17.642,0,0,1-4.438,1.212l.56-.076a17.75,17.75,0,0,1-4.692,0l.56.076a17.6,17.6,0,0,1-4.438-1.212c.169.071.338.143.5.211a17.58,17.58,0,0,1-3.882-2.27c.143.11.284.219.425.329a17.735,17.735,0,0,1-3.161-3.161c.11.143.219.284.329.425a17.83,17.83,0,0,1-2.27-3.882c.071.169.143.338.211.5a17.642,17.642,0,0,1-1.212-4.438c.025.186.051.375.076.56a17.75,17.75,0,0,1,0-4.692c-.025.186-.051.375-.076.56A17.6,17.6,0,0,1,10.2,18.046c-.071.169-.143.338-.211.5a17.58,17.58,0,0,1,2.27-3.882c-.11.143-.219.284-.329.425a17.735,17.735,0,0,1,3.161-3.161c-.143.11-.284.219-.425.329a17.83,17.83,0,0,1,3.882-2.27c-.169.071-.338.143-.5.211A17.642,17.642,0,0,1,22.482,8.99l-.56.076a17.75,17.75,0,0,1,4.692,0l-.56-.076A17.6,17.6,0,0,1,30.491,10.2c-.169-.071-.338-.143-.5-.211a17.58,17.58,0,0,1,3.882,2.27c-.143-.11-.284-.219-.425-.329a17.735,17.735,0,0,1,3.161,3.161c-.11-.143-.219-.284-.329-.425a17.83,17.83,0,0,1,2.27,3.882c-.071-.169-.143-.338-.211-.5a17.642,17.642,0,0,1,1.212,4.438c-.025-.186-.051-.375-.076-.56a18.5,18.5,0,0,1,.155,2.346,2.195,2.195,0,0,0,.616,1.494,2.119,2.119,0,0,0,2.987,0,2.165,2.165,0,0,0,.616-1.494,19.5,19.5,0,0,0-3.527-11.2,21.588,21.588,0,0,0-1.991-2.427,20.919,20.919,0,0,0-2.363-2.059,19.183,19.183,0,0,0-5.127-2.754A19.5,19.5,0,0,0,9.307,11.68a21.379,21.379,0,0,0-1.831,2.552,21.136,21.136,0,0,0-1.387,2.849,19.061,19.061,0,0,0-1.325,5.831A19.526,19.526,0,0,0,16.021,42a21.049,21.049,0,0,0,2.992,1.117,20.479,20.479,0,0,0,3.21.594A19.526,19.526,0,0,0,43.572,27.488a21.673,21.673,0,0,0,.278-3.22,2.195,2.195,0,0,0-.616-1.494,2.119,2.119,0,0,0-2.987,0,2.178,2.178,0,0,0-.621,1.5Z" transform="translate(0)"/>
    </g>
  </g>
</svg>
