<svg xmlns="http://www.w3.org/2000/svg" width="88" height="88" viewBox="0 0 88 88">
    <g fill="none" fill-rule="evenodd">
        <path fill="#D3FF00" fill-rule="nonzero" d="M61.723 84c-3.879 0-7.757-1-11.151-3.5L20.514 64c-2.424-2-4.363-3-6.303-5C8.394 53 5 44.5 5 36s3.394-16.5 9.211-22.5C20.03 7.5 27.786 4 36.028 4c8.241 0 15.998 3.5 22.3 9.5 1.94 2 2.91 3.5 4.849 6l16.968 32c4.848 8.5 3.394 19-3.393 26C72.388 82 67.54 84 61.722 84zM36.028 9c-6.788 0-13.575 3-18.423 8-4.848 5-7.757 12-7.757 19 0 7.5 2.909 14 7.757 19 1.454 1.5 2.909 2.5 5.333 4L53.48 76c2.909 2 5.818 2.5 8.726 2.5 4.364 0 8.242-1.5 11.15-5 5.334-5.5 6.303-13.5 2.425-20l-16.968-32c-1.455-2-2.424-3.5-3.879-5C49.602 12 43.3 9 36.028 9z"/>
        <path fill="#32394F" d="M69 63c0 3.315-2.685 6-6 6s-6-2.685-6-6 2.685-6 6-6 6 2.685 6 6zM59 38.444v-4.888l-6.844-2.445c-.49-.978-.49-1.467-.978-2.444l2.933-6.356-3.422-3.422-6.356 2.933c-.977-.489-1.466-.489-2.444-.978L39.444 14h-4.888l-2.445 6.844c-.978.49-1.467.49-2.444.978L23.31 18.89 19.89 22.31l2.933 6.356c-.489.977-.489 1.466-.978 2.444L15 33.556v4.888l6.844 2.445c.49.978.49 1.467.978 2.444L19.89 49.69l3.422 3.422 6.356-2.933c.977.489 1.466.978 2.444.978L34.556 58h4.888l2.445-6.844c.978-.49 1.467-.49 2.444-.978l6.356 2.933 3.422-3.422-2.933-6.356c.489-.977.978-1.466.978-2.444L59 38.444z"/>
        <path fill="#FFF" d="M36.707 44c-3.902 0-7.317-3.5-7.317-7.5s3.415-7.5 7.317-7.5c3.903 0 7.317 3.5 7.317 7.5S40.61 44 36.707 44z"/>
    </g>
</svg>
