<svg xmlns="http://www.w3.org/2000/svg" width="88" height="81" viewBox="0 0 88 81">
    <g fill="none" fill-rule="nonzero">
        <path fill="#000" d="M21.856 45.174l7.802-8.276c1.062-1.126 1.187-2.926.29-4.188l-.82-1.154c-.547-.771-1.386-1.214-2.3-1.214-.771 0-1.5.319-2.052.895L13.48 43.033c-1.13 1.18-1.13 3.102 0 4.284L24.776 59.11a2.827 2.827 0 0 0 2.052.895c.914 0 1.753-.442 2.3-1.213l.82-1.155c.897-1.261.772-3.062-.29-4.187l-7.802-8.277z"/>
        <path fill="#D3FF00" d="M49.586 29.536H48.07c-1.458 0-2.863 1.018-3.342 2.395L35.946 57.19c-.301.866-.188 1.832.312 2.534a2.742 2.742 0 0 0 2.23 1.171h1.514c1.458 0 2.863-1.06 3.342-2.437l8.782-25.28c.302-.866.188-1.8-.311-2.503a2.713 2.713 0 0 0-2.229-1.14z"/>
        <path fill="#000" d="M63.298 31.238a2.827 2.827 0 0 0-2.053-.896c-.914 0-1.752.443-2.3 1.214l-.82 1.154c-.896 1.262-.771 3.062.29 4.188l7.803 8.276-7.803 8.276c-1.061 1.126-1.186 2.926-.29 4.188l.82 1.155c.548.77 1.386 1.213 2.3 1.213.771 0 1.5-.318 2.053-.895l11.295-11.795c1.13-1.18 1.13-3.102 0-4.283L63.298 31.238z"/>
        <path fill="#000" d="M80.707.122H7.293C3.272.122 0 3.393 0 7.414v65.393c0 4.02 3.272 7.292 7.293 7.292h73.414c4.021 0 7.293-3.271 7.293-7.292V7.414c0-4.02-3.272-7.292-7.293-7.292zM28.645 7.265a2.498 2.498 0 1 1 0 4.997 2.498 2.498 0 0 1 0-4.997zm-8.864 0a2.498 2.498 0 1 1 0 4.997 2.498 2.498 0 0 1 0-4.997zm-8.865 0a2.498 2.498 0 1 1 0 4.997 2.498 2.498 0 0 1 0-4.997zm69.791 65.542H7.293V17.38h73.415l.004 55.426h-.005z"/>
    </g>
</svg>
