<svg xmlns="http://www.w3.org/2000/svg" width="15" height="20" viewBox="0 0 15 20">
    <path fill="#F57E23" fill-rule="nonzero" d="M10.527 10.112c0-.115-.019-.226-.032-.337V6.202a1.01 1.01 0 0 0-.218-1.996H7.45c-.11-.573-.589-1.013-1.194-1.013s-1.085.44-1.194 1.013h-.338a1.01 1.01 0 0 0-.218 1.996v3.573c-.014.11-.034.22-.034.337L0 17.444A2.555 2.555 0 0 0 2.556 20h9.888A2.556 2.556 0 0 0 15 17.444l-4.473-7.332zm-6.173 5.904a1.063 1.063 0 1 1 0-2.126 1.063 1.063 0 0 1 0 2.126zm3.066 1.932a.938.938 0 1 1 0-1.877.938.938 0 0 1 0 1.877zm.584-4.035a1.566 1.566 0 1 1 0-3.133 1.566 1.566 0 0 1 0 3.133zm1.14-12.385a.842.842 0 1 1 0 1.685.842.842 0 0 1 0-1.685zM6.718 0a.742.742 0 1 1 0 1.483.742.742 0 0 1 0-1.483z"/>
</svg>
