<svg width="88" height="88" viewBox="0 0 88 88" fill="none" xmlns="http://www.w3.org/2000/svg">
<rect width="88" height="88" rx="2" fill="#0A0E14"/>
<rect x="28.5" y="35.5" width="57" height="50" rx="1.5" fill="#0A0E14" stroke="#31363A"/>
<path d="M43 41C44.6063 41 46.1638 41.5525 47.4111 42.5647C48.6584 43.577 49.5195 44.9874 49.8501 46.5593L43 48L43 41Z" fill="#94F68E"/>
<path d="M49.8501 46.5593C50.2127 48.2833 49.9119 50.0807 49.0077 51.5927C48.1035 53.1047 46.6625 54.2201 44.9721 54.7165L43 48L49.8501 46.5593Z" fill="#9455AE"/>
<path d="M44.9721 54.7165C43.7056 55.0883 42.3597 55.0945 41.0898 54.7343C39.8199 54.3741 38.6778 53.6622 37.7951 52.6807L43 48L44.9721 54.7165Z" fill="#C8E050"/>
<path d="M37.7951 52.6807C37.1605 51.975 36.676 51.1476 36.3711 50.2488C36.0661 49.35 35.9472 48.3986 36.0215 47.4524L43 48L37.7951 52.6807Z" fill="#C53932"/>
<path d="M36.0215 47.4524C36.1368 45.9831 36.7129 44.5876 37.6677 43.4649L43 48L36.0215 47.4524Z" fill="#928F45"/>
<path d="M37.6677 43.4649C38.6226 42.3422 39.9075 41.5495 41.3392 41.1999L43 48L37.6677 43.4649Z" fill="#775D35"/>
<path d="M41.3392 41.1999C41.8829 41.0671 42.4404 41 43 41L43 48L41.3392 41.1999Z" fill="#6FE259"/>
<circle cx="43" cy="48" r="3.64583" fill="#0A0E14"/>
<path d="M56.5 85V61H29V60H56.5V36H57.5V60H85V61H57.5V85H56.5Z" fill="#31363A"/>
<path d="M60 38V58H83V57H61V38H60Z" fill="#31363A"/>
<path d="M31 63V83H54V82H32V63H31Z" fill="#31363A"/>
<path d="M61 63H60V83H83V82H61V63Z" fill="#31363A"/>
<path d="M62 54.4564V56L62.3882 54.2391L62.5748 53.4801L62.7689 54.2391L62.963 54.4564H63.1571L63.3512 54.2999L63.5379 54.4564L63.732 53.1974L64.3143 54.4564L64.5084 53.9453L64.8891 54.4564L65.0832 53.015L65.2773 52.922L65.4714 52.0332L65.658 53.0611L65.8521 52.3592L66.0462 51.6353L66.4344 52.9017L66.621 51.7633L67.2033 49.5731L67.3974 52.3749L67.5841 51.5911L67.7782 52.6807L68.4235 45.5573L68.7412 52.5029L69.1294 52.0332V50.4121L69.5176 51.5266L69.7042 52.0719L69.8 44.1661L70.2865 52.2745L70.6673 50.2242L71.1765 51.5266V45.7314L71.6303 49.8982L71.8244 49.4331L72.2126 52.829L72.4067 50.9215L72.5933 51.5441L72.7874 47.9124L73.1756 43.8212V50.8754L73.7504 47.6195L73.9445 49.41L74.1386 52.3399L74.3327 49.4957L74.5268 49.247L74.9076 49.317L75.1017 47.1314L75.2958 49.3778L76.0647 46.0667L76.2588 49.5362L76.8336 42.1145V49.0518L77.0277 48.1731L77.2218 50.0069L77.4159 48.5314L77.6026 46.1542L77.7967 47.2005L77.9908 45.5573L78.1849 43.0613L78.9538 49.2618L79.1479 44.6897L79.5361 49.9857L79.7227 47.9953L79.9168 47.5661L80.1109 47.3174L80.305 48.9514L80.4991 42.9802L80.8798 48.3168L81.0739 46.3421L81.268 44.6464L81.4621 47.2438L81.6488 46.3328L82.037 42.1145L82.2311 48.5406L82.4252 48.5065L82.6118 47.2005L82.8059 41L83 45.0148" stroke="#6FE259" stroke-miterlimit="2"/>
<path d="M54 79.4564L54 81L53.6118 79.2391L53.4252 78.4801L53.2311 79.2391L53.037 79.4564L52.8429 79.4564L52.6488 79.2999L52.4621 79.4564L52.268 78.1974L51.6857 79.4564L51.4916 78.9453L51.1109 79.4564L50.9168 78.015L50.7227 77.922L50.5286 77.0332L50.342 78.0611L50.1479 77.3592L49.9538 76.6353L49.5656 77.9017L49.379 76.7633L48.7967 74.5731L48.6026 77.3749L48.4159 76.5911L48.2218 77.6807L47.5765 70.5573L47.2588 77.5029L46.8706 77.0332L46.8706 75.4121L46.4824 76.5266L46.2958 77.0719L46.2 69.1661L45.7135 77.2745L45.3327 75.2242L44.8235 76.5266L44.8235 70.7314L44.3697 74.8982L44.1756 74.4331L43.7874 77.829L43.5933 75.9215L43.4067 76.5441L43.2126 72.9124L42.8244 68.8212L42.8244 75.8754L42.2496 72.6195L42.0555 74.41L41.8614 77.3399L41.6673 74.4957L41.4732 74.247L41.0924 74.317L40.8983 72.1314L40.7042 74.3778L39.9353 71.0667L39.7412 74.5362L39.1664 67.1145L39.1664 74.0518L38.9723 73.1731L38.7782 75.0069L38.5841 73.5314L38.3974 71.1542L38.2033 72.2005L38.0092 70.5573L37.8151 68.0613L37.0462 74.2618L36.8521 69.6897L36.4639 74.9857L36.2773 72.9953L36.0832 72.5661L35.8891 72.3174L35.695 73.9514L35.5009 67.9802L35.1202 73.3168L34.9261 71.342L34.732 69.6464L34.5379 72.2438L34.3512 71.3328L33.963 67.1145L33.7689 73.5406L33.5748 73.5065L33.3882 72.2005L33.1941 66L33 70.0148" stroke="#775D35" stroke-miterlimit="2"/>
<path d="M62 76.4138L62.7374 75.5533L63.4506 76.2677L64.1643 74.9353L64.8775 77.2153L65.5912 78.4212L66.3044 72.2804L67.0176 74.462L67.7313 70.7562L68.4445 68L69.1582 76.0768L69.8715 76.7454L70.5852 80L71.2984 78.9894L72.0121 78.6499L72.7253 76.1899L73.439 70.9865L74.1522 75.2989L74.8654 68.6431L75.5791 77.2635L76.2923 79.7151L77.006 77.2069L77.7193 70.1009L78.4329 78.5038L79.1462 79.0445L79.8599 76.4369L80.5731 74.4694L81.2868 78.522L82 76.2381" stroke="#9455AE" stroke-miterlimit="2"/>
<rect x="28.5" y="16.5" width="57" height="16" rx="1.5" fill="#0A0E14" stroke="#31363A"/>
<rect x="31" y="19" width="34" height="2" rx="1" fill="#A1C9FF"/>
<rect x="31" y="22" width="48" height="2" rx="1" fill="#A1C9FF"/>
<rect x="31" y="25" width="19" height="2" rx="1" fill="#A1C9FF"/>
<rect x="31" y="28" width="28" height="2" rx="1" fill="#A1C9FF"/>
<rect x="10" y="16" width="16" height="70" rx="2" fill="#31363A"/>
<rect x="11" y="17" width="14" height="4" rx="1" fill="#A1C9FF"/>
<rect x="11" y="22" width="14" height="4" rx="1" fill="#0A0E14"/>
<rect x="11" y="27" width="14" height="4" rx="1" fill="#0A0E14"/>
<rect x="11" y="32" width="14" height="4" rx="1" fill="#0A0E14"/>
<rect x="11" y="37" width="14" height="4" rx="1" fill="#0A0E14"/>
<rect x="10" y="10" width="76" height="4" rx="2" fill="#31363A"/>
<rect x="82" y="11" width="2" height="2" rx="1" fill="#A1C9FF"/>
<rect x="79" y="11" width="2" height="2" rx="1" fill="#A1C9FF"/>
<rect x="11" y="11" width="9" height="2" rx="1" fill="#A1C9FF"/>
<rect x="21" y="11" width="9" height="2" rx="1" fill="white" fill-opacity="0.3"/>
<rect x="2" y="2" width="84" height="6" rx="2" fill="#31363A"/>
<rect x="3" y="3" width="4" height="4" rx="2" fill="#A1C9FF"/>
<rect x="82" y="4" width="2" height="2" rx="1" fill="#A1C9FF"/>
<rect x="10" y="4" width="14" height="2" rx="1" fill="#A1C9FF"/>
<rect x="2" y="10" width="6" height="76" rx="2" fill="#31363A"/>
<rect x="4" y="13" width="2" height="2" rx="1" fill="#A1C9FF"/>
<rect x="4" y="23" width="2" height="2" rx="1" fill="#A1C9FF"/>
<rect x="4" y="28" width="2" height="2" rx="1" fill="#A1C9FF"/>
<rect x="4" y="33" width="2" height="2" rx="1" fill="#A1C9FF"/>
<rect x="4" y="38" width="2" height="2" rx="1" fill="#A1C9FF"/>
<rect x="4" y="43" width="2" height="2" rx="1" fill="#A1C9FF"/>
<rect x="3" y="17" width="4" height="4" rx="1" fill="#A1C9FF"/>
<rect x="4" y="18" width="2" height="2" rx="1" fill="#0049B2"/>
</svg>
