<svg width="24" height="24" viewBox="0 0 24 24" fill="none" xmlns="http://www.w3.org/2000/svg">
<path d="M9.31805 0C6.93581 0 4.99805 1.93824 4.99805 4.32C4.99805 6.53956 6.68091 8.37232 8.83805 8.61188V21.6H15.078V23.04H18.918V19.2H15.078V19.68V20.64H9.79805V16.32H15.078V17.76H18.918V13.92H15.078V14.4V15.36H9.79805V11.04H15.078V12.48H18.918V8.64H15.078V9.12V10.08H9.79805V8.61188C11.9552 8.37232 13.638 6.53956 13.638 4.32C13.638 1.93824 11.7003 0 9.31805 0ZM8.83805 2.4H9.79805V3.84H11.238V4.8H9.79805V6.24H8.83805V4.8H7.39805V3.84H8.83805V2.4ZM17.9992 11.5714L16.998 9.6L16.7134 10.7143L17.958 11.52L17.142 10.2857L16.038 11.04L16.7134 11.1429L17.9992 11.5714ZM16.038 14.88H17.958V16.8H16.038V14.88ZM16.038 20.16H17.958V22.08H16.038V20.16Z" fill="#A4ADCD"/>
</svg>
