<svg width="96" height="96" viewBox="0 0 96 96" fill="none" xmlns="http://www.w3.org/2000/svg">
<g clip-path="url(#clip0_5019_174)">
<path d="M84 39V24C83.9982 22.4093 83.3654 20.8842 82.2406 19.7594C81.1158 18.6346 79.5907 18.0018 78 18H69V24H78V39C78.0057 40.7097 78.379 42.3982 79.0945 43.9511C79.81 45.5039 80.851 46.8847 82.1469 48C80.851 49.1153 79.81 50.4961 79.0945 52.0489C78.379 53.6018 78.0057 55.2903 78 57V72H69V78H78C79.5907 77.9982 81.1158 77.3654 82.2406 76.2406C83.3654 75.1158 83.9982 73.5907 84 72V57C84.0018 55.4093 84.6346 53.8842 85.7594 52.7594C86.8842 51.6346 88.4093 51.0018 90 51V45C88.4093 44.9982 86.8842 44.3654 85.7594 43.2406C84.6346 42.1158 84.0018 40.5907 84 39Z" fill="#C3CDF0"/>
<path fill-rule="evenodd" clip-rule="evenodd" d="M51 27L48.429 36H54.429L57 27H63L60.429 36H66V42H58.716L55.287 54H63V60H53.571L51 69H45L47.571 60H41.571L39 69H33L35.571 60H30V54H37.287L40.716 42H33V36H42.429L45 27H51ZM52.716 42H46.716L43.287 54H49.287L52.716 42Z" fill="#C3CDF0"/>
<path d="M18 39V24H27V18H18C16.4093 18.0018 14.8842 18.6346 13.7594 19.7594C12.6346 20.8842 12.0018 22.4093 12 24V39C11.9982 40.5907 11.3654 42.1158 10.2406 43.2406C9.1158 44.3654 7.59074 44.9982 6 45V51C7.59074 51.0018 9.1158 51.6346 10.2406 52.7594C11.3654 53.8842 11.9982 55.4093 12 57V72C12.0018 73.5907 12.6346 75.1158 13.7594 76.2406C14.8842 77.3654 16.4093 77.9982 18 78H27V72H18V57C17.9943 55.2903 17.621 53.6018 16.9055 52.0489C16.19 50.4961 15.149 49.1153 13.8531 48C15.149 46.8847 16.19 45.5039 16.9055 43.9511C17.621 42.3982 17.9943 40.7097 18 39Z" fill="#C3CDF0"/>
</g>
<defs>
<clipPath id="clip0_5019_174">
<rect width="96" height="96" fill="white"/>
</clipPath>
</defs>
</svg>
