<svg width="24" height="24" viewBox="0 0 24 24" fill="none" xmlns="http://www.w3.org/2000/svg">
<path fill-rule="evenodd" clip-rule="evenodd" d="M6 2C5.46957 2 4.96086 2.21071 4.58579 2.58579C4.21071 2.96086 4 3.46957 4 4V20C4 20.5304 4.21071 21.0391 4.58579 21.4142C4.96086 21.7893 5.46957 22 6 22H18C18.5304 22 19.0391 21.7893 19.4142 21.4142C19.7893 21.0391 20 20.5304 20 20V6.414C19.9999 5.88361 19.7891 5.37499 19.414 5L17 2.586C16.625 2.2109 16.1164 2.00011 15.586 2H6ZM16.238 10.793C16.3335 10.7008 16.4097 10.5904 16.4621 10.4684C16.5145 10.3464 16.5421 10.2152 16.5433 10.0824C16.5444 9.94962 16.5191 9.81794 16.4688 9.69505C16.4185 9.57215 16.3443 9.4605 16.2504 9.3666C16.1565 9.27271 16.0449 9.19846 15.922 9.14818C15.7991 9.0979 15.6674 9.0726 15.5346 9.07375C15.4018 9.0749 15.2706 9.10249 15.1486 9.1549C15.0266 9.20731 14.9162 9.28349 14.824 9.379L10.582 13.622L9.167 12.207C8.9784 12.0248 8.7258 11.924 8.4636 11.9263C8.2014 11.9286 7.95059 12.0338 7.76518 12.2192C7.57977 12.4046 7.4746 12.6554 7.47233 12.9176C7.47005 13.1798 7.57084 13.4324 7.753 13.621L9.803 15.672C9.90515 15.7742 10.0264 15.8553 10.1599 15.9106C10.2934 15.9659 10.4365 15.9944 10.581 15.9944C10.7255 15.9944 10.8686 15.9659 11.0021 15.9106C11.1356 15.8553 11.2568 15.7742 11.359 15.672L16.238 10.793Z" fill="#A4ADCD"/>
</svg>
