<svg version="1.1" xmlns="http://www.w3.org/2000/svg" xmlns:xlink="http://www.w3.org/1999/xlink" x="0px" y="0px"
	 viewBox="0 0 64 64" enable-background="new 0 0 64 64" xml:space="preserve">
<path fill="#FFFFFF" d="M44.32037,40.86316c-2.68707,2.70361-6.40759,4.36542-10.51672,4.36542s-7.82971-1.6618-10.52502-4.35712
	l2.33978-2.33984c-2.09174-2.09174-3.38983-4.98553-3.38983-8.18518c0-6.39105,5.18402-11.57501,11.57507-11.57501
	c3.19965,0,6.09338,1.29803,8.18518,3.38977l2.33984-2.33978l2.33978-2.33978L49,15.15009
	c-3.88593-3.89417-9.26001-6.30017-15.19635-6.30017c-11.87268,0-21.49652,9.62384-21.49652,21.49652H9
	c0,13.69989,11.10376,24.80365,24.80365,24.80365V51.8429c5.93634,0,11.31042-2.40594,15.19635-6.30011L46.66022,43.203
	L44.32037,40.86316z"/>
<g>
	<path fill="#82DD22" d="M33.80364,51.84291c-11.87267,0-21.49649-9.62381-21.49649-21.49649H9
		C9,44.0463,20.10376,55.15006,33.80364,55.15006V51.84291z"/>
	<path fill="#AFE61E" d="M33.80364,48.53576c-10.04547,0-18.18933-8.14386-18.18933-18.18933h-3.30715
		c0,11.87268,9.62381,21.49649,21.49649,21.49649V48.53576z"/>
	<path fill="#14AA8C" d="M49,15.15006c-3.8859-3.89417-9.26003-6.30012-15.19636-6.30012
		c-11.87267,0-21.49649,9.62381-21.49649,21.49649h3.30715c0-10.04547,8.14386-18.18933,18.18933-18.18933
		c5.02687,0,9.5742,2.0339,12.86482,5.32452L49,15.15006z"/>
	<path fill="#50BEFF" d="M23.27863,40.87143c-2.69533-2.69533-4.35717-6.41587-4.35717-10.52501
		c0-8.21827,6.66391-14.88218,14.88218-14.88218c4.10913,0,7.82968,1.66184,10.52501,4.35717l2.33981-2.33981
		c-3.29062-3.29062-7.83795-5.32452-12.86482-5.32452c-10.04547,0-18.18933,8.14386-18.18933,18.18933
		c0,5.02687,2.0339,9.57421,5.32451,12.86482L23.27863,40.87143z"/>
	<path fill="#0096FF" d="M25.61844,38.53163c-2.09177-2.09178-3.38983-4.98553-3.38983-8.1852
		c0-6.39107,5.18396-11.57503,11.57503-11.57503c3.19967,0,6.09343,1.29806,8.1852,3.38983l2.33981-2.33981
		c-2.69533-2.69533-6.41588-4.35717-10.52501-4.35717c-8.21827,0-14.88218,6.66391-14.88218,14.88218
		c0,4.10913,1.66184,7.82968,4.35717,10.52501L25.61844,38.53163z"/>
	<path fill="#14AA8C" d="M49,45.54279l-2.33981-2.33981l0,0l-2.33981-2.33981c-2.68706,2.7036-6.40761,4.36544-10.51674,4.36544
		s-7.82968-1.66184-10.52501-4.35717l-2.33981,2.33981c3.29062,3.29062,7.83795,5.32452,12.86482,5.32452v3.30715
		C39.73997,51.84291,45.1141,49.43696,49,45.54279z"/>
</g>
<path fill="#FFFFFF" d="M27.84291,31.61968v-0.03307c0-3.47251,2.67052-6.20091,6.28359-6.20091
	c2.43902,0,4.00166,1.02522,5.05994,2.48863l-2.48863,1.92642c-0.67797-0.85159-1.46342-1.39727-2.60438-1.39727
	c-1.67011,0-2.84415,1.41381-2.84415,3.15006v0.03307c0,1.78586,1.17404,3.18313,2.84415,3.18313
	c1.24018,0,1.97602-0.57875,2.69533-1.44688l2.48863,1.76933c-1.12443,1.55436-2.64572,2.69533-5.28318,2.69533
	C30.58784,37.78751,27.84291,35.18313,27.84291,31.61968z"/>
</svg>
