<svg xmlns="http://www.w3.org/2000/svg" width="100" height="48" viewBox="0 0 100 48">
    <defs>
        <style>
            .cls-1{fill:#ee4c2c}
        </style>
    </defs>
    <g id="ignite-logo" transform="translate(-50.632 -30.47)">
        <path id="Path_615" d="M241.281 71.53H240V60.789h3.458a5.823 5.823 0 0 1 1.427.164 3.586 3.586 0 0 1 1.135.512 2.229 2.229 0 0 1 .769.9 3.005 3.005 0 0 1 .272 1.319 4.916 4.916 0 0 1-.113 1.117 2.885 2.885 0 0 1-.4.922 2.306 2.306 0 0 1-.73.715 3.76 3.76 0 0 1-1.16.446 7.429 7.429 0 0 1-1.639.161q-.74 0-1.752-.092zm1.873-5.587a4.718 4.718 0 0 0 1.207-.136 2.306 2.306 0 0 0 .769-.338 1.378 1.378 0 0 0 .425-.512 2.016 2.016 0 0 0 .19-.592 5.22 5.22 0 0 0 .036-.651 1.537 1.537 0 0 0-.615-1.342 2.856 2.856 0 0 0-1.668-.43h-2.216v3.989z" class="cls-1" transform="translate(-140.857 -22.552)"/>
        <path id="Path_616" d="M270.46 72h1.281l2.485 6.555 2.2-6.555h1.281q-3.184 8.774-3.294 9.045a4.437 4.437 0 0 1-1.2 1.821 2.818 2.818 0 0 1-1.852.576 4.83 4.83 0 0 1-.725-.056l-.072-1.025c.256.02.469.028.6.028a2.139 2.139 0 0 0 1.232-.3 2.472 2.472 0 0 0 .748-1.117q.295-.753.438-1.163z" class="cls-1" transform="translate(-163.515 -30.891)"/>
        <path id="Path_617" d="M301.734 71.888h-1.24v-9.522h-3.274v-1.1H305v1.1h-3.266z" class="cls-1" transform="translate(-183.42 -22.91)"/>
        <path id="Path_618" d="M330.452 75.429a4.405 4.405 0 0 1-.976 2.969 3.358 3.358 0 0 1-2.7 1.137 3.287 3.287 0 0 1-2.636-1.148 4.954 4.954 0 0 1 0-5.923 3.386 3.386 0 0 1 2.7-1.135 3.286 3.286 0 0 1 2.649 1.137 4.415 4.415 0 0 1 .963 2.963zm-6.056.02a3.689 3.689 0 0 0 .622 2.244 2.1 2.1 0 0 0 1.811.845 2.049 2.049 0 0 0 1.778-.84 4.613 4.613 0 0 0 .008-4.534 2.35 2.35 0 0 0-3.6.018 3.776 3.776 0 0 0-.615 2.267z" class="cls-1" transform="translate(-202.711 -30.393)"/>
        <path id="Path_619" d="M361.869 71.69a3.758 3.758 0 0 1 .589.044l-.044 1.107a3.429 3.429 0 0 0-.574-.059 2.09 2.09 0 0 0-1.634.7 2.5 2.5 0 0 0-.628 1.732v4.424h-1.2v-7.876h1l.115 1.414a3.343 3.343 0 0 1 1.04-1.076 2.416 2.416 0 0 1 1.336-.41z" class="cls-1" transform="translate(-228.912 -30.661)"/>
        <path id="Path_620" d="M378.867 79.535a3.406 3.406 0 0 1-2.715-1.127 4.934 4.934 0 0 1 .02-5.933 3.432 3.432 0 0 1 2.723-1.145 4.511 4.511 0 0 1 1.181.151 2.618 2.618 0 0 1 .9.395l-.33.932a3.671 3.671 0 0 0-1.773-.451 2.185 2.185 0 0 0-1.806.833 3.557 3.557 0 0 0-.661 2.275 3.477 3.477 0 0 0 .656 2.229 2.2 2.2 0 0 0 1.821.822 4.1 4.1 0 0 0 1.9-.512l.149.956a3.435 3.435 0 0 1-2.065.575z" class="cls-1" transform="translate(-241.401 -30.393)"/>
        <path id="Path_621" d="M409.073 70.735v-4.76a3.043 3.043 0 0 0-.379-1.724 1.5 1.5 0 0 0-1.317-.538 2.528 2.528 0 0 0-1.524.451 2.049 2.049 0 0 0-.809 1.171 10.6 10.6 0 0 0-.064 1.2v4.2h-1.2V59.792l1.2-.072v3.2c0 .274 0 .61-.028 1.025a3.281 3.281 0 0 1 2.685-1.248q2.636 0 2.636 3.095v4.948z" class="cls-1" transform="translate(-262.682 -21.757)"/>
        <path id="Path_622" d="M220.93 130.9h-2.09V113h2.09z" class="cls-1" transform="translate(-125.118 -61.388)"/>
        <path id="Path_623" d="M238.011 149.618l-.179-1.826h2.468a9.651 9.651 0 0 0 1.793-.146 3.509 3.509 0 0 0 1.281-.479 3.35 3.35 0 0 0 .822-.735 2.818 2.818 0 0 0 .476-1.053 7.858 7.858 0 0 0 .218-1.281c.038-.423.054-.94.054-1.555v-1.173a5.38 5.38 0 0 1-1.68 1.6 4.749 4.749 0 0 1-2.431.564 5.454 5.454 0 0 1-2.1-.395 4.867 4.867 0 0 1-1.622-1.045 6.36 6.36 0 0 1-1.125-1.514 6.932 6.932 0 0 1-.679-1.778 8.226 8.226 0 0 1-.21-1.85 9.642 9.642 0 0 1 .356-2.687 7.04 7.04 0 0 1 1.058-2.2 4.841 4.841 0 0 1 1.844-1.519 5.979 5.979 0 0 1 2.608-.551 4.936 4.936 0 0 1 2.28.512 5.137 5.137 0 0 1 1.747 1.537v-1.768h1.972v12.314q0 .849-.044 1.483a9.986 9.986 0 0 1-.2 1.409 5.541 5.541 0 0 1-.441 1.33 5.169 5.169 0 0 1-.781 1.119 3.924 3.924 0 0 1-1.2.907 7.332 7.332 0 0 1-1.721.564 11.217 11.217 0 0 1-2.323.218zm3.11-7.8a4.19 4.19 0 0 0 1.793-.364 2.928 2.928 0 0 0 1.209-1 4.662 4.662 0 0 0 .646-1.427 6.589 6.589 0 0 0 .213-1.716v-.981a6.854 6.854 0 0 0-.218-1.793 4.611 4.611 0 0 0-.671-1.465 3.074 3.074 0 0 0-1.209-1.009 4.045 4.045 0 0 0-1.76-.364 3.586 3.586 0 0 0-1.519.315 3.268 3.268 0 0 0-1.125.827 5.064 5.064 0 0 0-.751 1.2 6.088 6.088 0 0 0-.441 1.386 7.491 7.491 0 0 0-.133 1.414 6.858 6.858 0 0 0 .143 1.391 5.865 5.865 0 0 0 .461 1.342 4.793 4.793 0 0 0 .769 1.145 3.425 3.425 0 0 0 1.119.792 3.527 3.527 0 0 0 1.473.313z" class="cls-1" transform="translate(-137.212 -74.031)"/>
        <path id="Path_624" d="M292.55 143.538v-13.27h1.693l.256 1.9a5.892 5.892 0 0 1 1.965-1.578 5.572 5.572 0 0 1 2.546-.6 4.229 4.229 0 0 1 3.4 1.281 6.03 6.03 0 0 1 1.1 3.96v8.3h-2.02q0-7.98-.013-8.551a4.108 4.108 0 0 0-.681-2.48 2.59 2.59 0 0 0-2.124-.786 4.314 4.314 0 0 0-2.6.751 3.4 3.4 0 0 0-1.355 1.947 12.55 12.55 0 0 0-.12 1.862v7.257z" class="cls-1" transform="translate(-179.946 -74.026)"/>
        <path id="Path_625" d="M347.854 112.24v2.4h-2.034v-2.4zm0 4.826v13.27h-2.034v-13.27z" class="cls-1" transform="translate(-219.57 -60.823)"/>
        <path id="Path_626" d="M368.783 135.637a3.5 3.5 0 0 1-2.782-.956 4.85 4.85 0 0 1-.871-3.074v-7.982h-1.97l.085-1.332 1.875-.169.689-3.036 1.329-.049v3.074h3.689v1.5h-3.689v7.608a3.674 3.674 0 0 0 .461 2.129 1.829 1.829 0 0 0 1.57.617 15.559 15.559 0 0 0 1.732-.195l.085 1.6a13.75 13.75 0 0 1-2.2.264z" class="cls-1" transform="translate(-232.468 -65.881)"/>
        <path id="Path_627" d="M403.447 143.832a5.827 5.827 0 0 1-4.552-1.839 7.234 7.234 0 0 1-1.665-5.031 7.55 7.55 0 0 1 1.609-5 5.38 5.38 0 0 1 4.224-1.96 4.89 4.89 0 0 1 3.914 1.688 6.752 6.752 0 0 1 1.465 4.5v1.089h-9.132a5.248 5.248 0 0 0 1.168 3.527 3.879 3.879 0 0 0 3.043 1.263 9.022 9.022 0 0 0 4.222-1.112l.315 1.632a8.674 8.674 0 0 1-4.611 1.243zm2.049-11.1a3.012 3.012 0 0 0-2.436-1.058 3.238 3.238 0 0 0-2.528 1.1 5.046 5.046 0 0 0-1.15 2.992h7a4.648 4.648 0 0 0-.9-3.038z" class="cls-1" transform="translate(-257.81 -74.032)"/>
        <circle id="Ellipse_66" cx="2.751" cy="2.751" r="2.751" fill="#eaa700" transform="translate(64.857 66.523)"/>
        <path id="Path_628" d="M67.293 78.087c-6.622 0-12.235-4.468-15.4-12.255-2.785-6.843-.349-14.532 1.507-16.938l1.538-1.994.223 2.508c.215 2.464 1.952 5.408 3.643 6.176a1.742 1.742 0 0 0 .769.172 19.859 19.859 0 0 1-.673-13.338 20.791 20.791 0 0 1 9.5-11.243l1.447-.7-.036 1.609c-.1 4.642.192 8.454 1.962 12a56.35 56.35 0 0 0 4.04 6.532c.371.546.733 1.076 1.076 1.588a12.215 12.215 0 0 1 1.793 10.367 13.065 13.065 0 0 1-2.1 3.858A8.991 8.991 0 0 1 72.7 69.39l-.671-1.847c2.285-.827 4.083-3.481 4.79-5.6a10.216 10.216 0 0 0-1.565-8.653c-.338-.512-.694-1.025-1.063-1.57a61.014 61.014 0 0 1-4.176-6.763c-1.714-3.428-2.175-7-2.185-11.159a19.416 19.416 0 0 0-7.063 9.243 17.875 17.875 0 0 0 1.007 12.808l.366.74-.669.489a3.33 3.33 0 0 1-3.474.3c-1.793-.817-3.33-2.951-4.147-5.123a18.18 18.18 0 0 0-.129 12.845c2.849 7.009 7.8 11.015 13.577 11.015 5.92 0 11.161-4.071 14.02-10.887a19.607 19.607 0 0 0 .512-11.658 29.093 29.093 0 0 0-3.858-7.926 6.761 6.761 0 0 1-1.862 2.577l-1.091-1.634a8.01 8.01 0 0 0 1.742-3.33l.466-2.354 1.319 2.006c2.682 4.081 4.217 6.765 5.175 10.114a21.465 21.465 0 0 1-.6 12.957 21.793 21.793 0 0 1-6.3 8.635 15.165 15.165 0 0 1-9.532 3.471z" class="cls-1"/>
        <path id="area" fill="none" d="M0 0H100V48H0z" transform="translate(50.633 30.47)"/>
    </g>
</svg>
