<svg xmlns="http://www.w3.org/2000/svg" width="100" height="50" viewBox="0 0 100 50">
  <path d="M38.84,31.22H37.15V29.43h1.69V26.78h2.33v2.65h3.56v1.79H41.17v4c0,1.49.68,2,1.63,2a4.36,4.36,0,0,0,2-.44l.37,1.8a6.54,6.54,0,0,1-2.92.63c-2,0-3.34-1.06-3.34-3.45Zm7.57-1.79h2.33v1.79a3.77,3.77,0,0,1,3.14-2,3,3,0,0,1,.94.12l-.33,2a2.7,2.7,0,0,0-.85-.13c-1.19,0-2.26,1-2.9,2.69v5.15H46.41Zm20.91-4.3a1.39,1.39,0,1,1-.1,2.78,1.39,1.39,0,0,1,0-2.78Zm-1.17,4.3h2.34v9.65H66.15Zm4.78,0h2.33v1.82a4.21,4.21,0,0,1,3.6-2.06c2,0,3.51,1,3.51,4.16v5.72H78.06V33.51c0-1.65-.62-2.35-1.77-2.35-1.33,0-2.28.87-3,2.73v5.18H70.93Zm11.19,9,.4-1.89a6.56,6.56,0,0,0,3.25,1c1.17,0,1.9-.35,1.9-1.14,0-1.91-5.42-.23-5.42-4.11,0-1.89,1.48-3.12,4-3.12a7.49,7.49,0,0,1,3.41.82l-.42,1.88A5.87,5.87,0,0,0,86.37,31c-1.05,0-1.8.42-1.8,1.11,0,2.06,5.41.4,5.41,4,0,1.9-1.8,3.16-4.28,3.16A8,8,0,0,1,82.12,38.45ZM61.58,30.57a4,4,0,0,0-3.19-1.45c-2.8,0-4.68,2-4.68,5a4.56,4.56,0,0,0,4.68,5,3.8,3.8,0,0,0,3.19-1.55V38.9h2.14V29.34H61.58Zm.25,3.71h0l-.06.09h0l-.93,1.25A2.61,2.61,0,0,1,58.56,37a2.91,2.91,0,0,1,0-5.8,2.61,2.61,0,0,1,2.2,1.25l1,1.36a.36.36,0,0,1,.06.46ZM45.05,12.76a4,4,0,0,0-3.17-1.45c-2.79,0-4.66,2-4.66,5a4.55,4.55,0,0,0,4.66,4.94,3.78,3.78,0,0,0,3.17-1.54v1.35h2.13V11.54H45.05Zm.25,3.68h0l-.06.08h0l-.92,1.22a2.61,2.61,0,0,1-2.27,1.38,2.77,2.77,0,0,1-2.66-2.88,2.79,2.79,0,0,1,2.66-2.89,2.62,2.62,0,0,1,2.19,1.24l1,1.36A.38.38,0,0,1,45.3,16.44Zm4.56-7.86h2.32V21.34H49.86Zm4.75,0h2.33V21.34H54.61ZM68,20.59a7.86,7.86,0,0,1-4.05,1c-3.34,0-5.17-1.89-5.17-5a4.78,4.78,0,0,1,4.94-5.1c2.65,0,4.73,1.59,4.73,5a3.78,3.78,0,0,1,0,.75h-7.2c.23,1.63,1.26,2.45,3.12,2.45a6.5,6.5,0,0,0,3.28-.82Zm-6.8-4.77H66.1c-.16-1.67-1-2.5-2.38-2.5S61.44,14.17,61.24,15.82ZM74.5,11.5A4,4,0,0,1,78,13.26V11.74h2.3v9.58c0,2.37-2.19,4.08-5.26,4.08a8.83,8.83,0,0,1-4.55-1.18l.32-2A8.65,8.65,0,0,0,75,23.33c1.62,0,3-.74,3-2.36V19.38a3.89,3.89,0,0,1-3.45,1.8,4.46,4.46,0,0,1-4.7-4.8A4.5,4.5,0,0,1,74.5,11.5Zm.37,7.73c1.48,0,2.63-1,3.09-2.78v-.07c-.48-1.82-1.67-2.92-3.11-2.92a2.57,2.57,0,0,0-2.63,2.9,2.57,2.57,0,0,0,2.64,2.85Zm7.81-7.49H85v1.78a3.75,3.75,0,0,1,3.12-2,3.28,3.28,0,0,1,.94.13l-.32,2a2.8,2.8,0,0,0-.86-.13c-1.18,0-2.24,1-2.88,2.67v5.14H82.68Zm12-.27c2.74,0,5.32,1.75,5.32,5s-2.49,5.06-5.35,5.06-5.2-1.74-5.2-5A4.94,4.94,0,0,1,94.68,11.47Zm0,8.16a2.79,2.79,0,0,0,2.89-3.09,2.84,2.84,0,0,0-2.85-3.12,2.77,2.77,0,0,0-2.85,3.09c0,2.09,1.25,3.1,2.81,3.1ZM59.93,6.88l.62-2.47L63,3.79l-2.47-.62L59.93.71l-.62,2.46-2.47.62,2.47.62Zm-37.3,7.8a11.5,11.5,0,0,0-9.17-4.18C5.41,10.5,0,16.29,0,24.91c0,9.86,6.76,14.27,13.46,14.27a10.94,10.94,0,0,0,9.17-4.45v3.89h6.15V11.15H22.63Zm.74,10.63h0l0,0a1.08,1.08,0,0,1-.18.24h0L20.5,29.13a7.55,7.55,0,0,1-6.58,4c-4.25,0-7.7-3.73-7.7-8.33s3.45-8.34,7.7-8.34A7.53,7.53,0,0,1,20.23,20l2.94,3.9A1.12,1.12,0,0,1,23.37,25.31Z" fill="#fff"/>
</svg>
