<svg xmlns="http://www.w3.org/2000/svg" xmlns:xlink="http://www.w3.org/1999/xlink" x="0px" y="0px" width="122px" height="42px" viewBox="0 0 122 42" enable-background="new 0 0 122 42" xml:space="preserve"> <path d="M25.94,22.06l2.21002,1.57001c-1,1.37-2.34003,2.39001-4.67999,2.39001-3.04004-.02002-5.47003-2.33002-5.47003-5.48999v-.03003c0-3.08002,2.37-5.5,5.58002-5.5,2.15997,0,3.54999,.90997,4.48999,2.21002l-2.21002,1.70996c-.59998-.76001-1.29999-1.23999-2.31-1.23999-1.47998,0-2.51996,1.25-2.51996,2.79999v.03003c0,1.58997,1.03998,2.83002,2.51996,2.83002,1.10004,0,1.75-.51001,2.39001-1.28003Zm10.06-7.06h-3v11h9v-3h-6V15Zm10,11h9v-3h-6v-1.46997h5v-2h-5v-1.53003h6v-3h-9v11Zm19.57001-11l4.65002,11h-3.17004l-.82001-2h-4.31995l-.80005,2h-3.10999l4.65002-11h2.91998Zm-.27002,7l-1.21997-3.10999-1.23004,3.10999h2.45001Zm23.70001,4h1V15h-1v11Zm12-6.73999l-2.71997-4.26001h-3.28003v11h3v-6.28998l2.98999,4.32001,3.01001-4.35004v6.32001h3V15h-3.38l-2.62,4.26001Zm14,3.73999V15h-3v11h9v-3h-6Zm-33.39001-.45001l2.76001,3.45001h-3.71997l-2.34003-3h-1.31v3h-3V15h5.33002c1.71997,0,2.90997,.44,3.66998,1.19,.66003,.63,1,1.47998,1,2.56v.75c0,1.52002-.95001,2.52002-2.39001,3.04999Zm-1.06-3.60999c0-.85999-.63-1.29999-1.64996-1.29999h-1.90002v2.64001h1.91998c1.03003,0,1.63-.5,1.63-1.30005v-.03998Z" fill="#0b2471" /> <g> <path d="M.45799,19.95352c.23918,11.7975,9.79102,21.34977,21.58851,21.58896v-2.99599h.45356c4.93869,0,9.58682-1.86652,13.14003-5.26469l-3.60458-3.60458c-2.58495,2.43878-5.95301,3.77644-9.53544,3.77644-3.72905,0-7.23353-1.45105-9.86809-4.08561l-.32068-.32068,2.12873-2.12873c-1.86962-2.02774-2.89368-4.64459-2.89368-7.41867,0-6.03982,4.91389-10.95327,10.95371-10.95327,2.77453,0,5.39137,1.02406,7.41911,2.89323l5.72091-5.72135C32.08689,2.3195,27.43876,.45343,22.50007,.45343,11.9977,.45343,3.45354,8.99759,3.45354,19.49996v.45356H.45799Z" fill="#fff" /> <path fill="#82DD22" d="M22.5,39C11.75,39,3,30.25,3,19.5H0C0,31.93,10.07,42,22.5,42V39z" /> <path fill="#14AA8C" d="M22.5,3c4.55,0,8.67,1.85,11.66,4.84l2.13-2.13C32.76,2.18,27.88,0,22.5,0C11.73,0,3,8.73,3,19.5h3 C6,10.4,13.4,3,22.5,3z" /> <path fill="#AFE61E" d="M22.5,36C13.4,36,6,28.6,6,19.5H3C3,30.27,11.73,39,22.5,39V36z" /> <path fill="#14AA8C" d="M36.29,33.29l-2.13-2.13l0,0l-2.12-2.12C29.6,31.49,26.22,33,22.5,33s-7.1-1.51-9.54-3.96l-2.13,2.13 C13.82,34.15,17.94,36,22.5,36v3C27.88,39,32.76,36.82,36.29,33.29z" /> <path fill="#0096FF" d="M12.95,29.05l2.12-2.12c-1.9-1.9-3.08-4.53-3.08-7.42C12,13.71,16.71,9,22.5,9c2.89,0,5.52,1.18,7.42,3.08 l2.12-2.12C29.6,7.51,26.23,6,22.5,6C15.04,6,9,12.04,9,19.5C9,23.23,10.51,26.6,12.95,29.05z" /> <path fill="#50BEFF" d="M12.96,29.04C10.51,26.6,9,23.22,9,19.5C9,12.06,15.06,6,22.5,6c3.72,0,7.1,1.51,9.54,3.96l2.13-2.13 C31.18,4.85,27.06,3,22.5,3C13.39,3,6,10.39,6,19.5c0,4.56,1.85,8.68,4.83,11.67L12.96,29.04z" /> </g> </svg>
