<svg xmlns="http://www.w3.org/2000/svg" xmlns:xlink="http://www.w3.org/1999/xlink" x="0px" y="0px"
	 viewBox="0 0 64 64" enable-background="new 0 0 64 64" xml:space="preserve">
	 <path d="M9.50488,30.84637c.26367,13.00537,10.79346,23.53564,23.79883,23.79932v-3.30273h.5c5.44434,0,10.56836-2.05762,14.48535-5.80371l-3.97363-3.97363c-2.84961,2.68848-6.5625,4.16309-10.51172,4.16309-4.11084,0-7.97412-1.59961-10.87842-4.50391l-.35352-.35352,2.34668-2.34668c-2.06104-2.23535-3.18994-5.12012-3.18994-8.17822,0-6.6582,5.41699-12.07471,12.0752-12.07471,3.05859,0,5.94336,1.12891,8.17871,3.18945l6.30664-6.30713c-3.91699-3.74707-9.04102-5.8042-14.48535-5.8042-11.57764,0-20.99658,9.41895-20.99658,20.99658v.5h-3.30225Z" fill="#0b2471"/>
<g>
	<path fill="#82DD22" d="M33.80364,51.84291c-11.87267,0-21.49649-9.62381-21.49649-21.49649H9
		C9,44.0463,20.10376,55.15006,33.80364,55.15006V51.84291z"/>
	<path fill="#AFE61E" d="M33.80364,48.53576c-10.04547,0-18.18933-8.14386-18.18933-18.18933h-3.30715
		c0,11.87268,9.62381,21.49649,21.49649,21.49649V48.53576z"/>
	<path fill="#14AA8C" d="M49,15.15006c-3.8859-3.89417-9.26003-6.30012-15.19636-6.30012
		c-11.87267,0-21.49649,9.62381-21.49649,21.49649h3.30715c0-10.04547,8.14386-18.18933,18.18933-18.18933
		c5.02687,0,9.5742,2.0339,12.86482,5.32452L49,15.15006z"/>
	<path fill="#50BEFF" d="M23.27863,40.87143c-2.69533-2.69533-4.35717-6.41587-4.35717-10.52501
		c0-8.21827,6.66391-14.88218,14.88218-14.88218c4.10913,0,7.82968,1.66184,10.52501,4.35717l2.33981-2.33981
		c-3.29062-3.29062-7.83795-5.32452-12.86482-5.32452c-10.04547,0-18.18933,8.14386-18.18933,18.18933
		c0,5.02687,2.0339,9.57421,5.32451,12.86482L23.27863,40.87143z"/>
	<path fill="#0096FF" d="M25.61844,38.53163c-2.09177-2.09178-3.38983-4.98553-3.38983-8.1852
		c0-6.39107,5.18396-11.57503,11.57503-11.57503c3.19967,0,6.09343,1.29806,8.1852,3.38983l2.33981-2.33981
		c-2.69533-2.69533-6.41588-4.35717-10.52501-4.35717c-8.21827,0-14.88218,6.66391-14.88218,14.88218
		c0,4.10913,1.66184,7.82968,4.35717,10.52501L25.61844,38.53163z"/>
	<path fill="#14AA8C" d="M49,45.54279l-2.33981-2.33981l0,0l-2.33981-2.33981c-2.68706,2.7036-6.40761,4.36544-10.51674,4.36544
		s-7.82968-1.66184-10.52501-4.35717l-2.33981,2.33981c3.29062,3.29062,7.83795,5.32452,12.86482,5.32452v3.30715
		C39.73997,51.84291,45.1141,49.43696,49,45.54279z"/>
</g>
<path fill="#0b2471" d="M27.84291,31.61968v-0.03307c0-3.47251,2.67052-6.20091,6.28359-6.20091
	c2.43902,0,4.00166,1.02522,5.05994,2.48863l-2.48863,1.92642c-0.67797-0.85159-1.46342-1.39727-2.60438-1.39727
	c-1.67011,0-2.84415,1.41381-2.84415,3.15006v0.03307c0,1.78586,1.17404,3.18313,2.84415,3.18313
	c1.24018,0,1.97602-0.57875,2.69533-1.44688l2.48863,1.76933c-1.12443,1.55436-2.64572,2.69533-5.28318,2.69533
	C30.58784,37.78751,27.84291,35.18313,27.84291,31.61968z"/>
</svg>
