<svg xmlns="http://www.w3.org/2000/svg" width="88" height="88" viewBox="0 0 88 88">
    <g transform="translate(-.456)">
        <path fill="none" d="M0 0H88V88H0z" transform="translate(.456)"/>
        <ellipse cx="37.5" cy="7" fill="rgba(167,178,216,0.24)" rx="37.5" ry="7" transform="translate(7.456 59)"/>
        <path fill="#4d66ff" d="M61.876 45.887C50 35.625 71.938 25.563 67.308 14.3c-2.616-6.04-10.463-8.052-15.291-3.828-3.017 2.414-1.208 5.428 1.809 3.419a5.9 5.9 0 0 1 9.457 2.414c2.417 5.837-7.242 15.095-8.65 20.525-1.61 5.432 2.414 14.89 9.86 14.89h14.89a2.446 2.446 0 0 0-2.415-2.82c4.024-3.622 4.628-8.048.2-13.482C82 39.444 82.2 45.682 79.182 48.7a3.806 3.806 0 0 1 1.81 3.019h5.836a5.361 5.361 0 0 0-2.214-2.012c-.6-10.062 5.03-13.08 6.842-18.914 1.208-4.628-.6-9.457-2.012-13.482 2.214-1.61 5.03 1.208 7.446-3.22-2.012-3.22-1.006-7.646-5.232-8.854-.8-2.012.2-3.419 1.208-5.232C82.4 3.627 80.792 6.242 79.786 14.694c-1.61 11.268-4.426 6.842-12.274 12.676-7.446 5.432-5.836 11.47-5.634 18.512z" transform="translate(-30.009 15.995)"/>
    </g>
</svg>
