<svg xmlns="http://www.w3.org/2000/svg" width="88" height="88" viewBox="0 0 88 88">
    <defs>
        <style>
            .cls-11,.cls-4,.cls-7{fill:#4d66ff}.cls-4{opacity:.692}.cls-12{fill:#5a658e}.cls-7{opacity:.246}.cls-10{fill:#d3ff00}
        </style>
    </defs>
    <g id="icon-researcher" transform="translate(-.456)">
        <path id="icon-rec" fill="none" d="M0 0H88V88H0z" transform="translate(.456)"/>
        <circle id="e" cx="1.5" cy="1.5" r="1.5" fill="#4d66ff" opacity="0.56" transform="translate(64.456 46)"/>
        <circle id="e-2" cx="2.5" cy="2.5" r="2.5" fill="#4d66ff" opacity="0.584" transform="translate(60.456 39)"/>
        <circle id="e-3" cx="1" cy="1" r="1" class="cls-4" transform="translate(4.456 27)"/>
        <circle id="e-4" cx="1.5" cy="1.5" r="1.5" fill="#4d66ff" opacity="0.913" transform="translate(66.456 34)"/>
        <path id="r" fill="#5a658e" d="M0 0H3V1H0z" opacity="0.796" transform="scale(-1) rotate(79 -8.284 -23.223)"/>
        <circle id="e-5" cx="1" cy="1" r="1" class="cls-7" transform="translate(38.456 9)"/>
        <path id="p" fill="#4d66ff" d="M1 0l1 5H0z" opacity="0.717" transform="scale(-1) rotate(-57 -91.262 49.5)"/>
        <path id="p-2" fill="#5a658e" d="M1.5 0L3 3H0z" opacity="0.228" transform="rotate(-144 18.803 29.311)"/>
        <path id="p-3" d="M2 0l2 2H0z" class="cls-10" transform="rotate(-49.98 30.225 -10.01)"/>
        <path id="p-4" d="M1 0l1 4H0z" class="cls-10" transform="rotate(21 8.147 160.502)"/>
        <circle id="e-6" cx=".5" cy=".5" r=".5" class="cls-11" transform="translate(58.456 2)"/>
        <circle id="e-7" cx="1" cy="1" r="1" class="cls-4" transform="translate(18.456 40)"/>
        <circle id="e-8" cx="1" cy="1" r="1" class="cls-7" transform="translate(10.456 41)"/>
        <g id="researcher" transform="translate(20.456 17)">
            <path id="researcher-2" d="M34.828 10.422a9.217 9.217 0 0 0 1.489-2.195 1 1 0 0 0 0-.882L34.982 4.63a1.631 1.631 0 0 0-.239-.316C30.541 0 29.19 0 28.747 0a2.043 2.043 0 0 0-1.338.687 3.171 3.171 0 0 1-3.68.723c-3.3-1.116-8.283 1.524-10.707 3.261C10.4 6.555 10.4 7.45 10.4 7.786c0 1.078.008 2.922 2.11 3.519-.866 1.541-2.054 4.09.352 6.59a8.672 8.672 0 0 1 .7 1.087c.065 5.754 4.575 12.378 10.375 12.378 4.828 0 11.047-6.5 11.131-13.45.057-.057.145-.133.208-.188.119-.1.234-.2.33-.3 1.673-1.749.483-5.406-.77-7M12.4 7.9c.716-1.319 7.443-5.7 10.692-4.6a5.134 5.134 0 0 0 5.645-1.119c.06-.052.113-.1.164-.146.524.191 1.894 1.1 4.361 3.616L34.3 7.767a5.7 5.7 0 0 1-1.3 1.62 1.491 1.491 0 0 0-.48.112c-1.226 0-3.41-.063-4.388-1.057a5.84 5.84 0 0 0-4.717-1.656 2.2 2.2 0 0 0-2.129 1.375.921.921 0 0 1-.43.482l-1.5.763a.877.877 0 0 1-.392.094h-4.899c-1.62 0-1.669-.342-1.67-1.6m2.837 9.881V15.43a1.038 1.038 0 0 1 1.037-1.037h5.81a.164.164 0 0 1 .161.161v3.23a1.038 1.038 0 0 1-1.04 1.037h-4.931a1.022 1.022 0 0 1-.782-.376 2.973 2.973 0 0 0-.226-.514 1.194 1.194 0 0 1-.029-.147m8.7 11.576c-3.608 0-7.922-4.242-8.335-9.663a2.02 2.02 0 0 0 .675.124H21.2a2.04 2.04 0 0 0 2.037-2.037v-1.356h1.67v1.356a2.04 2.04 0 0 0 2.037 2.037h4.934a2.011 2.011 0 0 0 1.013-.281c-.893 5.191-5.458 9.82-8.965 9.82m8.989-11.576a1.038 1.038 0 0 1-1.037 1.037h-4.931a1.038 1.038 0 0 1-1.037-1.037v-3.23a.164.164 0 0 1 .161-.161h5.81a1.038 1.038 0 0 1 1.037 1.037zm1.235-1.749c-.055.058-.123.114-.19.172l-.045.041v-.818a2.039 2.039 0 0 0-2.037-2.037h-5.81a1.162 1.162 0 0 0-1.161 1.161v.874H23.24v-.874a1.163 1.163 0 0 0-1.161-1.161h-5.81a2.039 2.039 0 0 0-2.037 2.037v.992c-1.336-1.461-.766-2.78.2-4.464.093-.162.176-.311.257-.458h4.267a2.879 2.879 0 0 0 1.3-.312l1.5-.762a2.944 2.944 0 0 0 1.369-1.494c.037-.088.06-.146.283-.146A3.91 3.91 0 0 1 26.7 9.844c1.628 1.656 4.615 1.656 6.051 1.656a2.011 2.011 0 0 0 .348-.032 5.874 5.874 0 0 1 1.243 2.756 2.314 2.314 0 0 1-.189 1.811" class="cls-12"/>
            <path id="researcher-3" d="M36.274 33.916a23.283 23.283 0 0 0-4.488-2.209c-1.8-.656-3.428.718-4.872 1.927-1.039.87-2.114 1.77-2.984 1.77s-1.947-.9-2.987-1.77c-1.446-1.209-3.086-2.583-4.875-1.925C6.457 35.214 0 44.742 0 55.419a1 1 0 0 0 1 1h32.5a1 1 0 0 0 0-2H2.021a23.053 23.053 0 0 1 13.937-20.5l7.1 12.511a1 1 0 0 0 1.739 0l7.052-12.418a14.293 14.293 0 0 1 3.354 1.6 1 1 0 1 0 1.069-1.689M23.93 43.9l-5.525-9.732c.406.288.833.642 1.254.995 1.315 1.1 2.673 2.236 4.271 2.236s2.955-1.138 4.269-2.237c.426-.358.857-.718 1.267-1.01z" class="cls-12"/>
            <path id="bottle" d="M47.569 43.024V36.6h.723a1 1 0 0 0 1-1V34a1 1 0 0 0-1-1h-8.536a1 1 0 0 0-1 1v1.6a1 1 0 0 0 1 1h.722v6.373l-.039.089c-2.538 2.184-4.647 6.169-4.647 8.832a3.793 3.793 0 0 0 3.073 3.831 39.854 39.854 0 0 0 10.317 0 3.794 3.794 0 0 0 3.074-3.831c0-2.664-2.159-6.709-4.687-8.866m-5.676 1.425a1.017 1.017 0 0 0 .283-.373l.217-.495a.993.993 0 0 0 .085-.4V36.6h3.091v6.583a1.079 1.079 0 0 0 .025.226l.091.392a1.007 1.007 0 0 0 .357.561 11.942 11.942 0 0 1 2.612 3.092 9.635 9.635 0 0 0-4.539 1.383c-1.553.981-2.187.8-3.724.355-.48-.138-1.046-.295-1.7-.433a13.159 13.159 0 0 1 3.2-4.306m6.72 9.355a17.259 17.259 0 0 1-4.5.368h-.17a17.548 17.548 0 0 1-4.505-.368c-1.167-.347-1.642-.9-1.642-1.914a5.254 5.254 0 0 1 .193-1.241c.715.134 1.311.305 1.853.461a8.186 8.186 0 0 0 2.3.432 5.6 5.6 0 0 0 3.049-1.017 8.177 8.177 0 0 1 4.033-1.129c.134-.013.276-.031.412-.044a7.076 7.076 0 0 1 .622 2.531c0 1.013-.476 1.567-1.643 1.914" class="cls-11"/>
        </g>
    </g>
</svg>
