<svg xmlns="http://www.w3.org/2000/svg" viewBox="0 0 28 28">
  <defs>
    <style>.a{fill:#8492c2;}</style>
  </defs>
  <title>sidebar-profile-icon</title>
  <path class="a"
        d="M14,15.75a7.6,7.6,0,0,1-3.94-1.07,8.05,8.05,0,0,1-2.87-2.87A7.56,7.56,0,0,1,6.13,7.88,7.57,7.57,0,0,1,7.19,3.94a8.05,8.05,0,0,1,2.87-2.87,7.79,7.79,0,0,1,7.88,0,8.05,8.05,0,0,1,2.87,2.87,7.56,7.56,0,0,1,1.06,3.93,7.57,7.57,0,0,1-1.06,3.94,8.05,8.05,0,0,1-2.87,2.87A7.58,7.58,0,0,1,14,15.75Z"/>
  <path class="a"
        d="M21,17.5a6.93,6.93,0,0,1,3.53.93A6.73,6.73,0,0,1,27.07,21,6.93,6.93,0,0,1,28,24.5v.88A2.63,2.63,0,0,1,25.38,28H2.63a2.5,2.5,0,0,1-1.86-.77A2.53,2.53,0,0,1,0,25.38V24.5A6.93,6.93,0,0,1,.93,21a6.73,6.73,0,0,1,2.54-2.54A7,7,0,0,1,7,17.5h3a9.49,9.49,0,0,0,8,0Z"/>
</svg>
