<svg xmlns="http://www.w3.org/2000/svg" viewBox="0 0 24.18 24.18">
  <defs>
    <style>.a{fill:none;}.b{fill:#d3ff00;}</style>
  </defs>
  <title>sidebar-annotator-icon-active</title>
  <rect class="a" x="0.09" y="0.09" width="2.18" height="2.18"/>
  <rect class="a" x="21.91" y="0.09" width="2.18" height="2.18"/>
  <path class="a" d="M1.18,1.18H23V23H1.18Z"/>
  <path class="b" d="M2.18,2.18V22H22V2.18H2.18m-1-1H23V23H1.18Z"/>
  <path class="b"
        d="M20,7l-1.9-.77A1.61,1.61,0,0,0,16.94,5l-.1-1.19a.43.43,0,0,0-.74-.25l-.5.55L15.3,3a.44.44,0,0,0-.39-.31.43.43,0,0,0-.42.29l-2.62,7.25a7.59,7.59,0,0,0-4.56,3.35,6.37,6.37,0,0,0-.81,4.87,3.83,3.83,0,0,0,1.15,2H7.28a4.36,4.36,0,0,1-4-2.48.42.42,0,0,0-.56-.2h0a.43.43,0,0,0-.2.57,5.22,5.22,0,0,0,4.7,3H15.3a.42.42,0,0,0,.43-.42A2,2,0,0,0,14,19a3.21,3.21,0,0,0,.36-1.8l.11,0L17,21.12a.42.42,0,0,0,.36.2h1.54a.42.42,0,0,0,.37-.22.43.43,0,0,0,0-.44s-1.61-2.56-2.47-4V9.51a2.55,2.55,0,0,0,.39,0,3.37,3.37,0,0,0,3-1.93l0,0A.42.42,0,0,0,20,7Z"/>
  <rect class="b" width="2.18" height="2.18"/>
  <rect class="b" x="22" width="2.18" height="2.18"/>
  <rect class="b" y="22" width="2.18" height="2.18"/>
  <rect class="b" x="22" y="22" width="2.18" height="2.18"/>
</svg>
