<svg xmlns="http://www.w3.org/2000/svg" viewBox="0 0 24 24">
  <defs>
    <style>.a{fill:#d3ff00;}</style>
  </defs>
  <title>sidebar-data-icon-active</title>
  <path class="a"
        d="M17.6,4.9H1.3A1.24,1.24,0,0,0,0,6.09V22.3A1.65,1.65,0,0,0,1.5,24H17.4a1.74,1.74,0,0,0,1.7-1.7V6.3A1.5,1.5,0,0,0,17.6,4.9ZM4.9,8.5a1.5,1.5,0,0,1,0,3A1.54,1.54,0,0,1,3.4,10,1.48,1.48,0,0,1,4.84,8.5ZM1.7,20.3l4.6-6,2.2,2.8,3.4-4.8,5.6,8Z"/>
  <path class="a"
        d="M21.8,0H6.9C6.4,0,6,.6,6,1.4s.4,1.4.9,1.4H19A2.22,2.22,0,0,1,21.2,5V17c0,.5.6,1,1.4,1s1.4-.4,1.4-1V2.2A2.22,2.22,0,0,0,21.8,0Z"/>
</svg>
