<svg xmlns="http://www.w3.org/2000/svg" viewBox="0 0 27.13 27.12">
  <defs>
    <style>.a{fill:#8492c2;}</style>
  </defs>
  <title>sidebar-icon-help</title>
  <path class="a"
        d="M13.56,18.16a1.46,1.46,0,0,1,1.1.43,1.51,1.51,0,0,1,.44,1.1,1.49,1.49,0,0,1-.44,1.09,1.51,1.51,0,0,1-1.1.44A1.5,1.5,0,0,1,12,19.69a1.51,1.51,0,0,1,.44-1.1A1.48,1.48,0,0,1,13.56,18.16Zm-.43-1.32a.59.59,0,0,1-.47-.19.66.66,0,0,1-.19-.46,3.86,3.86,0,0,1,.77-2.41,8.29,8.29,0,0,1,1.7-1.31,6,6,0,0,0,1.2-.93,1.77,1.77,0,0,0,.55-1.26,1.84,1.84,0,0,0-.77-1.48,3.55,3.55,0,0,0-2.36-.71,4.07,4.07,0,0,0-1.88.39,4.25,4.25,0,0,0-1.4,1.2.57.57,0,0,1-.38.22.66.66,0,0,1-.49-.11l-.71-.5a.66.66,0,0,1-.28-.43.57.57,0,0,1,.11-.49,7.54,7.54,0,0,1,2-1.8,6.3,6.3,0,0,1,3-.66,5.93,5.93,0,0,1,3.78,1.2,3.81,3.81,0,0,1,1.52,3.17,3.49,3.49,0,0,1-.76,2.3A7.47,7.47,0,0,1,16.4,14a8.19,8.19,0,0,0-1.26.93,2,2,0,0,0-.49,1.31.65.65,0,0,1-.66.66Zm.43-15.09A11.47,11.47,0,0,0,7.63,3.34,11.77,11.77,0,0,0,3.34,7.63a11.47,11.47,0,0,0-1.59,5.93A11.48,11.48,0,0,0,3.34,19.5a11.77,11.77,0,0,0,4.29,4.29,11.56,11.56,0,0,0,5.93,1.58,11.57,11.57,0,0,0,5.94-1.58,11.77,11.77,0,0,0,4.29-4.29,11.87,11.87,0,0,0,0-11.87,11.7,11.7,0,0,0-4.32-4.29A11.57,11.57,0,0,0,13.56,1.75Zm0-1.75a13.12,13.12,0,0,1,6.78,1.83,13.74,13.74,0,0,1,4.95,5,13.16,13.16,0,0,1,1.84,6.78,13.13,13.13,0,0,1-1.84,6.78,13.66,13.66,0,0,1-4.95,4.95,13,13,0,0,1-6.78,1.83,13.05,13.05,0,0,1-6.78-1.83,13.74,13.74,0,0,1-4.95-4.95A13.12,13.12,0,0,1,0,13.56,13.15,13.15,0,0,1,1.83,6.78a13.81,13.81,0,0,1,5-4.95A13.15,13.15,0,0,1,13.56,0Z"/>
</svg>
