<svg xmlns="http://www.w3.org/2000/svg" viewBox="0 0 26 24.46">
  <defs>
    <style>.a{fill:#8f9dc9;}</style>
  </defs>
  <title>sidebar-projects-icon</title>
  <path class="a"
        d="M5.08,13.61a1.42,1.42,0,0,1-1.26-.81H0a3.82,3.82,0,0,0,2.88,3.25A4,4,0,0,0,5,20.6a3.93,3.93,0,0,0,7.39,1.79V15.93H9.59v1.66a1.36,1.36,0,0,1,.81,1.26,1.33,1.33,0,0,1-1.31,1.34h0a1.35,1.35,0,0,1-1.34-1.34,1.45,1.45,0,0,1,.81-1.26V14.83h3.94V10H9.34V7.8H8a1.34,1.34,0,0,1-1.26.81,1.34,1.34,0,0,1-.07-2.68h.07A1.43,1.43,0,0,1,8,6.74h2.4v2.2h2.08V2.07A4.07,4.07,0,0,0,9,0,3.92,3.92,0,0,0,5,3.86,3.93,3.93,0,0,0,2.92,8.41,4,4,0,0,0,0,11.66H3.9a1.35,1.35,0,0,1,1.26-.81A1.33,1.33,0,0,1,6.5,12.16v0a1.44,1.44,0,0,1-1.42,1.42Z"/>
  <path class="a"
        d="M23.08,8.41A4,4,0,0,0,21,3.86a3.93,3.93,0,0,0-7.39-1.79V5h2.68a1.35,1.35,0,0,1,1.26-.81,1.32,1.32,0,0,1,1.34,1.31v0a1.36,1.36,0,0,1-1.34,1.34,1.43,1.43,0,0,1-1.26-.81H13.53v13H15.6V16.53h2.48a1.36,1.36,0,1,1,1.33,1.87h-.07a1.42,1.42,0,0,1-1.26-.81H16.66v2.56H13.53V22.3A3.86,3.86,0,0,0,17,24.37a3.94,3.94,0,0,0,3.94-3.86A3.91,3.91,0,0,0,23,16c.17,0,.29-.12.45-.16V13.65H19V10.93A1.37,1.37,0,1,1,20.84,9.6v.07A1.43,1.43,0,0,1,20,10.93v1.62h4.51v2.6a3.58,3.58,0,0,0,1.46-3A4,4,0,0,0,23.08,8.41Z"/>
</svg>
