<svg xmlns="http://www.w3.org/2000/svg" viewBox="0 0 23.22 24">
  <defs>
    <style>.a{fill:#8f9dc9;}</style>
  </defs>
  <title>sidebar-workers-icon</title>
  <path class="a"
        d="M22.72,8H.5a.5.5,0,0,0-.5.51H0v6.19a.5.5,0,0,0,.5.51H22.72a.5.5,0,0,0,.5-.51h0V8.5a.51.51,0,0,0-.5-.52ZM4,12.71A1.12,1.12,0,1,1,5.1,11.59h0A1.12,1.12,0,0,1,4,12.71Zm4.22,0a1.12,1.12,0,1,1,1.12-1.12A1.12,1.12,0,0,1,8.2,12.71ZM21,12.43a.26.26,0,0,1-.26.26h-5a.26.26,0,0,1-.26-.26V10.75a.26.26,0,0,1,.26-.25h5a.26.26,0,0,1,.26.25ZM22.72,0H.5A.5.5,0,0,0,0,.51H0V6.71a.5.5,0,0,0,.5.51H22.72a.5.5,0,0,0,.5-.51h0V.52a.51.51,0,0,0-.5-.52ZM4,4.73A1.12,1.12,0,1,1,5.1,3.61h0A1.12,1.12,0,0,1,4,4.73Zm4.22,0A1.12,1.12,0,1,1,9.32,3.61h0A1.13,1.13,0,0,1,8.2,4.73ZM21,4.45a.26.26,0,0,1-.26.26h-5a.26.26,0,0,1-.26-.26V2.77a.26.26,0,0,1,.26-.25h5a.26.26,0,0,1,.26.25ZM22.72,16H.5a.5.5,0,0,0-.5.51H0v6.19a.5.5,0,0,0,.5.51H3.37v.56a.26.26,0,0,0,.26.26H7.5a.26.26,0,0,0,.26-.26h0v-.56h7.7v.56a.26.26,0,0,0,.25.26h3.88a.26.26,0,0,0,.25-.26h0v-.56h2.88a.5.5,0,0,0,.5-.51h0V16.48a.51.51,0,0,0-.5-.52ZM4,20.69A1.12,1.12,0,1,1,5.1,19.57h0A1.12,1.12,0,0,1,4,20.69Zm4.22,0a1.12,1.12,0,1,1,1.12-1.12A1.12,1.12,0,0,1,8.2,20.69ZM21,20.41a.26.26,0,0,1-.26.26h-5a.26.26,0,0,1-.26-.26V18.73a.26.26,0,0,1,.26-.25h5a.26.26,0,0,1,.26.25Z"/>
</svg>
